<svg width="27" height="39" viewBox="0 0 27 39" fill="none" xmlns="http://www.w3.org/2000/svg">
<path d="M13.4517 18.4596C12.1775 18.4596 10.9556 17.9534 10.0546 17.0525C9.15365 16.1515 8.6475 14.9295 8.6475 13.6554C8.6475 12.3813 9.15365 11.1593 10.0546 10.2583C10.9556 9.35739 12.1775 8.85124 13.4517 8.85124C14.7258 8.85124 15.9478 9.35739 16.8487 10.2583C17.7497 11.1593 18.2558 12.3813 18.2558 13.6554C18.2558 14.2863 18.1316 14.911 17.8901 15.4939C17.6487 16.0767 17.2948 16.6064 16.8487 17.0525C16.4026 17.4986 15.873 17.8524 15.2901 18.0939C14.7073 18.3353 14.0826 18.4596 13.4517 18.4596ZM13.4517 0.203735C9.88407 0.203735 6.46258 1.62096 3.9399 4.14364C1.41723 6.66632 0 10.0878 0 13.6554C0 23.7442 13.4517 38.6371 13.4517 38.6371C13.4517 38.6371 26.9033 23.7442 26.9033 13.6554C26.9033 10.0878 25.4861 6.66632 22.9634 4.14364C20.4408 1.62096 17.0193 0.203735 13.4517 0.203735Z" fill="#FFF6EE"/>
</svg>
