<svg width="36" height="37" viewBox="0 0 36 37" fill="none" xmlns="http://www.w3.org/2000/svg">
<mask id="path-1-inside-1_15_244" fill="white">
<path d="M35.18 13.3249H35.1706L20.7783 6.98639V5.01028H21.3473C21.6173 5.01169 21.8799 4.92152 22.0921 4.7545C22.3043 4.58748 22.4536 4.35346 22.5156 4.09065C22.5777 3.82784 22.5488 3.55175 22.4338 3.30746C22.3187 3.06316 22.1242 2.86508 21.8821 2.74555L18.3619 1.00377C18.1955 0.921946 18.0126 0.879395 17.8272 0.879395C17.6417 0.879395 17.4588 0.921946 17.2924 1.00377L13.7722 2.74555C13.5301 2.86508 13.3356 3.06316 13.2206 3.30746C13.1055 3.55175 13.0766 3.82784 13.1387 4.09065C13.2007 4.35346 13.35 4.58748 13.5622 4.7545C13.7744 4.92152 14.037 5.01169 14.307 5.01028H14.876V6.98639L0.482533 13.3196H0.473089C0.367545 13.3659 0.277878 13.4422 0.215154 13.5389C0.152431 13.6356 0.119397 13.7485 0.120129 13.8638V15.6345C0.120129 15.9476 0.2445 16.2478 0.46588 16.4692C0.687261 16.6906 0.987518 16.815 1.3006 16.815H1.89083V32.1611H1.3006C0.987518 32.1611 0.687261 32.2854 0.46588 32.5068C0.2445 32.7282 0.120129 33.0284 0.120129 33.3415V35.1122C0.120129 35.4253 0.2445 35.7256 0.46588 35.9469C0.687261 36.1683 0.987518 36.2927 1.3006 36.2927H34.3537C34.6668 36.2927 34.9671 36.1683 35.1884 35.9469C35.4098 35.7256 35.5342 35.4253 35.5342 35.1122V33.3415C35.5342 33.0284 35.4098 32.7282 35.1884 32.5068C34.9671 32.2854 34.6668 32.1611 34.3537 32.1611H33.7635V16.815H34.3537C34.6668 16.815 34.9671 16.6906 35.1884 16.4692C35.4098 16.2478 35.5342 15.9476 35.5342 15.6345V13.8638C35.5338 13.7493 35.5001 13.6374 35.4372 13.5417C35.3743 13.446 35.285 13.3707 35.18 13.3249ZM20.0641 7.96145L32.1374 13.2736H3.51693L15.5902 7.96145H20.0641ZM14.2958 3.80384L17.8372 2.06206L21.3568 3.80384L21.3473 3.82981L14.2958 3.80384ZM19.5979 5.01028V6.78098H16.0565V5.01028H19.5979ZM3.0713 16.815H4.25177V32.1611H3.0713V16.815ZM28.4514 32.1611V25.0782H30.2221V32.1611H28.4514ZM25.5002 25.0782H27.2709V32.1611H25.5002V25.0782ZM30.2221 23.8978H25.5002V16.815H30.2221V23.8978ZM24.3197 32.1611H23.1393V16.815H24.3197V32.1611ZM21.9588 32.1611H13.6955V16.815H21.9588V32.1611ZM12.515 32.1611H11.3346V16.815H12.515V32.1611ZM5.43224 25.0782H7.20294V32.1611H5.43224V25.0782ZM8.38341 25.0782H10.1541V32.1611H8.38341V25.0782ZM10.1541 23.8978H5.43224V16.815H10.1541V23.8978ZM34.3537 35.1122H1.3006V33.3415H34.3537V35.1122ZM32.583 32.1611H31.4025V16.815H32.583V32.1611ZM1.3006 15.6345V14.454H34.3537V15.6345H1.3006Z"/>
</mask>
<path d="M35.18 13.3249H35.1706L20.7783 6.98639V5.01028H21.3473C21.6173 5.01169 21.8799 4.92152 22.0921 4.7545C22.3043 4.58748 22.4536 4.35346 22.5156 4.09065C22.5777 3.82784 22.5488 3.55175 22.4338 3.30746C22.3187 3.06316 22.1242 2.86508 21.8821 2.74555L18.3619 1.00377C18.1955 0.921946 18.0126 0.879395 17.8272 0.879395C17.6417 0.879395 17.4588 0.921946 17.2924 1.00377L13.7722 2.74555C13.5301 2.86508 13.3356 3.06316 13.2206 3.30746C13.1055 3.55175 13.0766 3.82784 13.1387 4.09065C13.2007 4.35346 13.35 4.58748 13.5622 4.7545C13.7744 4.92152 14.037 5.01169 14.307 5.01028H14.876V6.98639L0.482533 13.3196H0.473089C0.367545 13.3659 0.277878 13.4422 0.215154 13.5389C0.152431 13.6356 0.119397 13.7485 0.120129 13.8638V15.6345C0.120129 15.9476 0.2445 16.2478 0.46588 16.4692C0.687261 16.6906 0.987518 16.815 1.3006 16.815H1.89083V32.1611H1.3006C0.987518 32.1611 0.687261 32.2854 0.46588 32.5068C0.2445 32.7282 0.120129 33.0284 0.120129 33.3415V35.1122C0.120129 35.4253 0.2445 35.7256 0.46588 35.9469C0.687261 36.1683 0.987518 36.2927 1.3006 36.2927H34.3537C34.6668 36.2927 34.9671 36.1683 35.1884 35.9469C35.4098 35.7256 35.5342 35.4253 35.5342 35.1122V33.3415C35.5342 33.0284 35.4098 32.7282 35.1884 32.5068C34.9671 32.2854 34.6668 32.1611 34.3537 32.1611H33.7635V16.815H34.3537C34.6668 16.815 34.9671 16.6906 35.1884 16.4692C35.4098 16.2478 35.5342 15.9476 35.5342 15.6345V13.8638C35.5338 13.7493 35.5001 13.6374 35.4372 13.5417C35.3743 13.446 35.285 13.3707 35.18 13.3249ZM20.0641 7.96145L32.1374 13.2736H3.51693L15.5902 7.96145H20.0641ZM14.2958 3.80384L17.8372 2.06206L21.3568 3.80384L21.3473 3.82981L14.2958 3.80384ZM19.5979 5.01028V6.78098H16.0565V5.01028H19.5979ZM3.0713 16.815H4.25177V32.1611H3.0713V16.815ZM28.4514 32.1611V25.0782H30.2221V32.1611H28.4514ZM25.5002 25.0782H27.2709V32.1611H25.5002V25.0782ZM30.2221 23.8978H25.5002V16.815H30.2221V23.8978ZM24.3197 32.1611H23.1393V16.815H24.3197V32.1611ZM21.9588 32.1611H13.6955V16.815H21.9588V32.1611ZM12.515 32.1611H11.3346V16.815H12.515V32.1611ZM5.43224 25.0782H7.20294V32.1611H5.43224V25.0782ZM8.38341 25.0782H10.1541V32.1611H8.38341V25.0782ZM10.1541 23.8978H5.43224V16.815H10.1541V23.8978ZM34.3537 35.1122H1.3006V33.3415H34.3537V35.1122ZM32.583 32.1611H31.4025V16.815H32.583V32.1611ZM1.3006 15.6345V14.454H34.3537V15.6345H1.3006Z" fill="#DEC58C" stroke="#DEC58C" stroke-width="0.893882" mask="url(#path-1-inside-1_15_244)"/>
</svg>
