<svg width="37" height="31" viewBox="0 0 37 31" fill="none" xmlns="http://www.w3.org/2000/svg">
<mask id="path-1-inside-1_15_240" fill="white">
<path fill-rule="evenodd" clip-rule="evenodd" d="M1.44713 0.327864C1.24418 0.428431 1.09894 0.57449 1.00128 0.776216L0.923828 0.936173L0.924639 15.4033L0.92545 29.8704L1.00065 30.0362C1.09038 30.2342 1.18634 30.3435 1.38464 30.4737L1.5321 30.5705L1.82702 30.5706L2.12194 30.5708L2.23254 30.4996C2.41727 30.3806 2.54858 30.2465 2.63223 30.0915L2.71178 29.9441L2.72232 28.1283L2.73287 26.3125L5.83741 26.3219L8.94196 26.3313L8.9604 28.1377L8.97883 29.9441L9.0412 30.0731C9.12282 30.242 9.23965 30.3662 9.42121 30.4773L9.56867 30.5674L9.84788 30.5691L10.1271 30.5708L10.3041 30.4602L10.481 30.3496L10.5865 30.2021L10.692 30.0547L10.7294 29.8561L10.7668 29.6575V15.8566V2.05573H13.7899H16.813L16.8036 5.84065L16.7942 9.62558L16.5362 9.70606C15.3692 10.0699 14.4201 11.0094 14.0341 12.1828C13.9062 12.5716 13.8638 12.87 13.865 13.3733L13.866 13.7972L13.9157 14.0757C14.0902 15.0538 14.6869 15.9545 15.5517 16.5451C15.9565 16.8216 16.2598 16.9486 16.9785 17.1427L17.126 17.1826L17.679 17.1838L18.2319 17.1851L18.6011 17.0872C19.0537 16.9672 19.4622 16.7821 19.8642 16.515L20.1693 16.3122L20.4473 16.0167C21.0179 15.4102 21.3332 14.7883 21.4765 13.987L21.5414 13.6237L21.521 13.2312C21.4733 12.3172 21.1724 11.5445 20.5982 10.8619L20.3839 10.6071L20.059 10.3589C19.6043 10.0117 19.2657 9.83103 18.8033 9.68928L18.6006 9.62709L18.5912 5.84143L18.5818 2.05573H21.992H25.4022V5.84648V9.63727L25.2166 9.68007C25.1146 9.70362 24.9571 9.75664 24.8665 9.79789C24.776 9.8391 24.6616 9.88817 24.6123 9.90693C24.5629 9.9257 24.3762 10.0363 24.1974 10.1527L23.8723 10.3643L23.5753 10.6615C22.6971 11.5403 22.3315 12.6426 22.492 13.9272L22.5311 14.2396L22.6449 14.5686C23.0885 15.8516 24.0133 16.7116 25.3469 17.0815L25.7155 17.1837L26.2685 17.1851L26.8215 17.1865L27.2086 17.0836C28.0055 16.8717 28.6978 16.4465 29.1676 15.8801C29.5607 15.4063 29.688 15.1943 29.8849 14.6855L30.0118 14.3573L30.0662 14.022C30.1348 13.599 30.1352 13.1944 30.0673 12.7444C30.0015 12.3078 29.9426 12.1267 29.7143 11.6591L29.5344 11.2904L29.2984 10.9931C28.9628 10.5703 28.3038 10.0371 27.9512 9.90299C27.8982 9.88283 27.8017 9.84113 27.7368 9.81035C27.6719 9.77953 27.5224 9.72571 27.4045 9.69072L27.1901 9.62709L27.1807 5.84143L27.1714 2.05573H30.1944H33.2176V3.56358V5.07143L32.7291 5.08426L32.2406 5.09709L32.0232 5.20724L31.8058 5.31743L31.684 5.50216L31.5623 5.68693L31.5384 5.87217L31.5145 6.05746L31.556 6.21163C31.5788 6.29645 31.6511 6.43702 31.7166 6.52406L31.8356 6.68228L32.0355 6.78366L32.2354 6.88504H32.7265H33.2176V8.41494V9.94483H32.7702H32.3229L32.1895 9.98483C32.1161 10.0068 31.9911 10.069 31.9117 10.1231L31.7673 10.2213L31.6537 10.4056L31.5402 10.59L31.5417 10.8559L31.5432 11.122L31.6892 11.3315L31.8351 11.541L32.0194 11.6369L32.2038 11.7328L32.7107 11.7455L33.2176 11.7583V13.2812V14.8041L32.6922 14.8168L32.1669 14.8294L32.0027 14.9216L31.8386 15.0138L31.718 15.172C31.6518 15.259 31.5788 15.3999 31.5558 15.485L31.5142 15.6397L31.5361 15.7998C31.5791 16.1132 31.8 16.4205 32.0605 16.5294L32.183 16.5805H32.7003H33.2176V18.1104V19.6403L32.8028 19.6407L32.3881 19.6411L32.2052 19.6966C31.9541 19.7728 31.7973 19.8864 31.6683 20.0857L31.5589 20.2546L31.5358 20.4232L31.5127 20.5917L31.558 20.7803L31.6032 20.9689L31.7929 21.1676L31.9826 21.3663L32.13 21.4063L32.2775 21.4463L32.7475 21.4465L33.2176 21.4467V22.9766V24.5065H32.781H32.3445L32.1711 24.5587C31.9411 24.6279 31.7747 24.76 31.6463 24.9751L31.5409 25.1516L31.5406 25.4097L31.5402 25.6677L31.6424 25.8416C31.767 26.0535 31.9409 26.1914 32.1711 26.2607L32.3445 26.3129H32.7797H33.2149L33.2254 28.1285L33.236 29.9441L33.3155 30.0915C33.3992 30.2465 33.5305 30.3806 33.7152 30.4996L33.8258 30.5708L34.1208 30.5706L34.4157 30.5705L34.5631 30.4737C34.7614 30.3435 34.8574 30.2342 34.9471 30.0362L35.0223 29.8704L35.0231 28.0916L35.0239 26.3129H35.4596H35.8953L36.0869 26.256L36.2784 26.1991L36.4128 26.0812L36.5471 25.9632L36.6331 25.7786L36.719 25.594L36.7194 25.4102L36.7197 25.2264L36.6202 25.0297C36.5655 24.9215 36.4661 24.7851 36.3995 24.7266L36.2784 24.6203L36.0869 24.5634L35.8953 24.5065H35.4596H35.0239V22.9766V21.4467L35.5124 21.4451L36.0009 21.4435L36.1359 21.3952C36.3189 21.3299 36.4679 21.203 36.5951 21.0043L36.7013 20.8384L36.6989 20.5619L36.6965 20.2855L36.5969 20.115L36.4974 19.9445L36.3541 19.8452C36.2753 19.7905 36.1319 19.7221 36.0354 19.6931L35.8601 19.6403H35.442H35.0239V18.113V16.5857L35.5919 16.5739L36.1598 16.5621L36.32 16.4461L36.4801 16.3301L36.5882 16.1546L36.6962 15.9792L36.7126 15.7812L36.729 15.5833L36.6645 15.4145C36.6291 15.3216 36.5483 15.1867 36.4851 15.1146L36.3701 14.9836L36.1854 14.8977L36.0009 14.8117L35.5124 14.8114L35.0239 14.811V13.2811V11.7512H35.45H35.876L36.0306 11.7119C36.1156 11.6903 36.2512 11.6275 36.3318 11.5724L36.4785 11.4723L36.5899 11.2919L36.7013 11.1115L36.7006 10.8508L36.6998 10.59L36.5948 10.4134C36.4723 10.2074 36.3169 10.0791 36.0951 10.0009L35.9363 9.94483H35.4801H35.0239V8.41494V6.88504L35.5124 6.88467L36.0009 6.8843L36.1854 6.79837L36.3701 6.7124L36.4851 6.58142C36.5483 6.50935 36.6293 6.37387 36.665 6.28034L36.73 6.11025L36.7094 5.91066L36.6888 5.71107L36.5631 5.51466L36.4375 5.31828L36.2192 5.20768L36.0009 5.09709L35.5124 5.08426L35.0239 5.07143V3.0165V0.961536L34.9119 0.737397L34.7999 0.513258L34.6087 0.390534L34.4174 0.267774L18.0116 0.258521L1.60583 0.249268L1.44713 0.327864ZM8.9604 3.56719V5.07865H5.8453H2.73021V3.56719V2.05573H5.8453H8.9604V3.56719ZM8.95158 8.42415L8.96121 9.94483H5.84571H2.73021V8.41471V6.88463L5.83609 6.89403L8.94196 6.90347L8.95158 8.42415ZM17.9864 11.3463L18.2569 11.3813L18.4841 11.4815C19.0867 11.7471 19.5098 12.2493 19.6728 12.8924L19.7331 13.1303L19.7173 13.4638L19.7015 13.7972L19.6143 14.0368C19.4994 14.3523 19.2971 14.6487 19.0408 14.8772L18.8326 15.0628L18.553 15.1973L18.2734 15.3319L17.9854 15.3739L17.6974 15.4159L17.3933 15.3722L17.0891 15.3285L16.7805 15.1763L16.472 15.0242L16.246 14.795L16.02 14.5657L15.8828 14.2921L15.7456 14.0184L15.6816 13.6745L15.6175 13.3306L15.6817 13.0109L15.7458 12.6913L15.8634 12.4517L15.9809 12.212L16.2634 11.9262L16.5459 11.6404L16.8299 11.511L17.1139 11.3815L17.3596 11.3499C17.6947 11.3066 17.6818 11.3067 17.9864 11.3463ZM26.575 11.347L26.8795 11.3852L27.1458 11.5116L27.4121 11.638L27.6253 11.828C27.7425 11.9325 27.9016 12.1114 27.9788 12.2256L28.1191 12.4332L28.2232 12.7466L28.3273 13.0599L28.3249 13.3917L28.3225 13.7235L28.2297 13.9872C27.9491 14.7853 27.2753 15.3188 26.4609 15.3876L26.1928 15.4103L25.9301 15.366L25.6674 15.3217L25.4422 15.2152C24.8747 14.9468 24.4959 14.5049 24.3347 13.9232L24.2594 13.6512V13.3548V13.0584L24.3347 12.7865C24.4343 12.427 24.5551 12.2291 24.8671 11.914L25.1257 11.6528L25.4137 11.5172L25.7017 11.3817L25.9482 11.3499C26.0838 11.3325 26.2118 11.3161 26.2326 11.3135C26.2534 11.3109 26.4075 11.326 26.575 11.347ZM8.95158 13.2719L8.94196 14.7926L5.83609 14.802L2.73021 14.8114V13.2813V11.7512H5.84571H8.96121L8.95158 13.2719ZM8.95158 18.1196L8.96121 19.6403H5.84571H2.73021V18.1102V16.5801L5.83609 16.5895L8.94196 16.599L8.95158 18.1196ZM8.95158 22.9674L8.94196 24.4881L5.83609 24.4975L2.73021 24.5069V22.9768V21.4467H5.84571H8.96121L8.95158 22.9674Z"/>
</mask>
<path fill-rule="evenodd" clip-rule="evenodd" d="M1.44713 0.327864C1.24418 0.428431 1.09894 0.57449 1.00128 0.776216L0.923828 0.936173L0.924639 15.4033L0.92545 29.8704L1.00065 30.0362C1.09038 30.2342 1.18634 30.3435 1.38464 30.4737L1.5321 30.5705L1.82702 30.5706L2.12194 30.5708L2.23254 30.4996C2.41727 30.3806 2.54858 30.2465 2.63223 30.0915L2.71178 29.9441L2.72232 28.1283L2.73287 26.3125L5.83741 26.3219L8.94196 26.3313L8.9604 28.1377L8.97883 29.9441L9.0412 30.0731C9.12282 30.242 9.23965 30.3662 9.42121 30.4773L9.56867 30.5674L9.84788 30.5691L10.1271 30.5708L10.3041 30.4602L10.481 30.3496L10.5865 30.2021L10.692 30.0547L10.7294 29.8561L10.7668 29.6575V15.8566V2.05573H13.7899H16.813L16.8036 5.84065L16.7942 9.62558L16.5362 9.70606C15.3692 10.0699 14.4201 11.0094 14.0341 12.1828C13.9062 12.5716 13.8638 12.87 13.865 13.3733L13.866 13.7972L13.9157 14.0757C14.0902 15.0538 14.6869 15.9545 15.5517 16.5451C15.9565 16.8216 16.2598 16.9486 16.9785 17.1427L17.126 17.1826L17.679 17.1838L18.2319 17.1851L18.6011 17.0872C19.0537 16.9672 19.4622 16.7821 19.8642 16.515L20.1693 16.3122L20.4473 16.0167C21.0179 15.4102 21.3332 14.7883 21.4765 13.987L21.5414 13.6237L21.521 13.2312C21.4733 12.3172 21.1724 11.5445 20.5982 10.8619L20.3839 10.6071L20.059 10.3589C19.6043 10.0117 19.2657 9.83103 18.8033 9.68928L18.6006 9.62709L18.5912 5.84143L18.5818 2.05573H21.992H25.4022V5.84648V9.63727L25.2166 9.68007C25.1146 9.70362 24.9571 9.75664 24.8665 9.79789C24.776 9.8391 24.6616 9.88817 24.6123 9.90693C24.5629 9.9257 24.3762 10.0363 24.1974 10.1527L23.8723 10.3643L23.5753 10.6615C22.6971 11.5403 22.3315 12.6426 22.492 13.9272L22.5311 14.2396L22.6449 14.5686C23.0885 15.8516 24.0133 16.7116 25.3469 17.0815L25.7155 17.1837L26.2685 17.1851L26.8215 17.1865L27.2086 17.0836C28.0055 16.8717 28.6978 16.4465 29.1676 15.8801C29.5607 15.4063 29.688 15.1943 29.8849 14.6855L30.0118 14.3573L30.0662 14.022C30.1348 13.599 30.1352 13.1944 30.0673 12.7444C30.0015 12.3078 29.9426 12.1267 29.7143 11.6591L29.5344 11.2904L29.2984 10.9931C28.9628 10.5703 28.3038 10.0371 27.9512 9.90299C27.8982 9.88283 27.8017 9.84113 27.7368 9.81035C27.6719 9.77953 27.5224 9.72571 27.4045 9.69072L27.1901 9.62709L27.1807 5.84143L27.1714 2.05573H30.1944H33.2176V3.56358V5.07143L32.7291 5.08426L32.2406 5.09709L32.0232 5.20724L31.8058 5.31743L31.684 5.50216L31.5623 5.68693L31.5384 5.87217L31.5145 6.05746L31.556 6.21163C31.5788 6.29645 31.6511 6.43702 31.7166 6.52406L31.8356 6.68228L32.0355 6.78366L32.2354 6.88504H32.7265H33.2176V8.41494V9.94483H32.7702H32.3229L32.1895 9.98483C32.1161 10.0068 31.9911 10.069 31.9117 10.1231L31.7673 10.2213L31.6537 10.4056L31.5402 10.59L31.5417 10.8559L31.5432 11.122L31.6892 11.3315L31.8351 11.541L32.0194 11.6369L32.2038 11.7328L32.7107 11.7455L33.2176 11.7583V13.2812V14.8041L32.6922 14.8168L32.1669 14.8294L32.0027 14.9216L31.8386 15.0138L31.718 15.172C31.6518 15.259 31.5788 15.3999 31.5558 15.485L31.5142 15.6397L31.5361 15.7998C31.5791 16.1132 31.8 16.4205 32.0605 16.5294L32.183 16.5805H32.7003H33.2176V18.1104V19.6403L32.8028 19.6407L32.3881 19.6411L32.2052 19.6966C31.9541 19.7728 31.7973 19.8864 31.6683 20.0857L31.5589 20.2546L31.5358 20.4232L31.5127 20.5917L31.558 20.7803L31.6032 20.9689L31.7929 21.1676L31.9826 21.3663L32.13 21.4063L32.2775 21.4463L32.7475 21.4465L33.2176 21.4467V22.9766V24.5065H32.781H32.3445L32.1711 24.5587C31.9411 24.6279 31.7747 24.76 31.6463 24.9751L31.5409 25.1516L31.5406 25.4097L31.5402 25.6677L31.6424 25.8416C31.767 26.0535 31.9409 26.1914 32.1711 26.2607L32.3445 26.3129H32.7797H33.2149L33.2254 28.1285L33.236 29.9441L33.3155 30.0915C33.3992 30.2465 33.5305 30.3806 33.7152 30.4996L33.8258 30.5708L34.1208 30.5706L34.4157 30.5705L34.5631 30.4737C34.7614 30.3435 34.8574 30.2342 34.9471 30.0362L35.0223 29.8704L35.0231 28.0916L35.0239 26.3129H35.4596H35.8953L36.0869 26.256L36.2784 26.1991L36.4128 26.0812L36.5471 25.9632L36.6331 25.7786L36.719 25.594L36.7194 25.4102L36.7197 25.2264L36.6202 25.0297C36.5655 24.9215 36.4661 24.7851 36.3995 24.7266L36.2784 24.6203L36.0869 24.5634L35.8953 24.5065H35.4596H35.0239V22.9766V21.4467L35.5124 21.4451L36.0009 21.4435L36.1359 21.3952C36.3189 21.3299 36.4679 21.203 36.5951 21.0043L36.7013 20.8384L36.6989 20.5619L36.6965 20.2855L36.5969 20.115L36.4974 19.9445L36.3541 19.8452C36.2753 19.7905 36.1319 19.7221 36.0354 19.6931L35.8601 19.6403H35.442H35.0239V18.113V16.5857L35.5919 16.5739L36.1598 16.5621L36.32 16.4461L36.4801 16.3301L36.5882 16.1546L36.6962 15.9792L36.7126 15.7812L36.729 15.5833L36.6645 15.4145C36.6291 15.3216 36.5483 15.1867 36.4851 15.1146L36.3701 14.9836L36.1854 14.8977L36.0009 14.8117L35.5124 14.8114L35.0239 14.811V13.2811V11.7512H35.45H35.876L36.0306 11.7119C36.1156 11.6903 36.2512 11.6275 36.3318 11.5724L36.4785 11.4723L36.5899 11.2919L36.7013 11.1115L36.7006 10.8508L36.6998 10.59L36.5948 10.4134C36.4723 10.2074 36.3169 10.0791 36.0951 10.0009L35.9363 9.94483H35.4801H35.0239V8.41494V6.88504L35.5124 6.88467L36.0009 6.8843L36.1854 6.79837L36.3701 6.7124L36.4851 6.58142C36.5483 6.50935 36.6293 6.37387 36.665 6.28034L36.73 6.11025L36.7094 5.91066L36.6888 5.71107L36.5631 5.51466L36.4375 5.31828L36.2192 5.20768L36.0009 5.09709L35.5124 5.08426L35.0239 5.07143V3.0165V0.961536L34.9119 0.737397L34.7999 0.513258L34.6087 0.390534L34.4174 0.267774L18.0116 0.258521L1.60583 0.249268L1.44713 0.327864ZM8.9604 3.56719V5.07865H5.8453H2.73021V3.56719V2.05573H5.8453H8.9604V3.56719ZM8.95158 8.42415L8.96121 9.94483H5.84571H2.73021V8.41471V6.88463L5.83609 6.89403L8.94196 6.90347L8.95158 8.42415ZM17.9864 11.3463L18.2569 11.3813L18.4841 11.4815C19.0867 11.7471 19.5098 12.2493 19.6728 12.8924L19.7331 13.1303L19.7173 13.4638L19.7015 13.7972L19.6143 14.0368C19.4994 14.3523 19.2971 14.6487 19.0408 14.8772L18.8326 15.0628L18.553 15.1973L18.2734 15.3319L17.9854 15.3739L17.6974 15.4159L17.3933 15.3722L17.0891 15.3285L16.7805 15.1763L16.472 15.0242L16.246 14.795L16.02 14.5657L15.8828 14.2921L15.7456 14.0184L15.6816 13.6745L15.6175 13.3306L15.6817 13.0109L15.7458 12.6913L15.8634 12.4517L15.9809 12.212L16.2634 11.9262L16.5459 11.6404L16.8299 11.511L17.1139 11.3815L17.3596 11.3499C17.6947 11.3066 17.6818 11.3067 17.9864 11.3463ZM26.575 11.347L26.8795 11.3852L27.1458 11.5116L27.4121 11.638L27.6253 11.828C27.7425 11.9325 27.9016 12.1114 27.9788 12.2256L28.1191 12.4332L28.2232 12.7466L28.3273 13.0599L28.3249 13.3917L28.3225 13.7235L28.2297 13.9872C27.9491 14.7853 27.2753 15.3188 26.4609 15.3876L26.1928 15.4103L25.9301 15.366L25.6674 15.3217L25.4422 15.2152C24.8747 14.9468 24.4959 14.5049 24.3347 13.9232L24.2594 13.6512V13.3548V13.0584L24.3347 12.7865C24.4343 12.427 24.5551 12.2291 24.8671 11.914L25.1257 11.6528L25.4137 11.5172L25.7017 11.3817L25.9482 11.3499C26.0838 11.3325 26.2118 11.3161 26.2326 11.3135C26.2534 11.3109 26.4075 11.326 26.575 11.347ZM8.95158 13.2719L8.94196 14.7926L5.83609 14.802L2.73021 14.8114V13.2813V11.7512H5.84571H8.96121L8.95158 13.2719ZM8.95158 18.1196L8.96121 19.6403H5.84571H2.73021V18.1102V16.5801L5.83609 16.5895L8.94196 16.599L8.95158 18.1196ZM8.95158 22.9674L8.94196 24.4881L5.83609 24.4975L2.73021 24.5069V22.9768V21.4467H5.84571H8.96121L8.95158 22.9674Z" fill="#DEC58C" stroke="#DEC58C" stroke-width="2" mask="url(#path-1-inside-1_15_240)"/>
</svg>
