<svg width="42" height="38" viewBox="0 0 42 38" fill="none" xmlns="http://www.w3.org/2000/svg">
<path d="M23.6451 9.84729L23.645 9.84732L23.6451 9.84729ZM23.6451 9.84729L23.6512 9.84228L23.7014 9.80151L23.9097 9.63223L24.5899 9.07934L25.6598 8.20967L25.66 8.20958C26.191 7.77758 26.8614 7.53891 27.5465 7.53891H30.2834C31.1988 7.53891 32.0364 7.06614 32.5229 6.27976L32.523 6.27958C33.0005 5.50635 33.8382 4.38098 35.1117 3.40116L35.1182 3.39614M23.6451 9.84729L35.1182 3.39614M35.1182 3.39614L35.1245 3.39076M35.1182 3.39614L35.1245 3.39076M35.1245 3.39076C35.1249 3.39035 35.1254 3.38994 35.1259 3.38953L35.1245 3.39076ZM7.11816 10.4345L7.12912 10.1337C7.19807 8.24073 7.74337 6.13615 8.74982 4.49556C9.7568 2.85408 11.2545 1.63745 13.2258 1.63745C13.2258 1.63745 13.2258 1.63745 13.2258 1.63745L37.0086 1.63683L37.1281 2.19167C36.4209 2.51111 35.7544 2.90893 35.132 3.38475L7.11816 10.4345ZM7.11816 10.4345H7.41922M7.11816 10.4345H7.41922M7.41922 10.4345H21.9923C22.5909 10.4345 23.1759 10.2273 23.6418 9.84993M7.41922 10.4345L23.6418 9.84993M23.6418 9.84993C23.6419 9.8499 23.6419 9.84989 23.6419 9.84987L23.6418 9.84993ZM6.74551 10.6288H6.74557L6.74546 10.6232C6.74524 10.6123 6.74445 10.6023 6.74338 10.5933C6.74812 7.99831 7.49212 5.65796 8.67643 3.97229C9.86524 2.28021 11.4787 1.26929 13.2251 1.26929H40.7919C40.8121 1.26929 40.8587 1.28188 40.9065 1.32397C40.9532 1.36506 40.9719 1.40852 40.9746 1.43535L40.9746 1.43553C40.9783 1.47314 41.0433 2.2432 40.616 3.21897C40.1923 4.18655 39.2741 5.38156 37.2713 6.26839L37.0314 6.3746L37.1129 6.62394C37.5153 7.85609 37.7313 9.21669 37.7313 10.6208C37.7313 13.2242 36.9865 15.5729 35.7986 17.2631C34.61 18.9544 32.9968 19.9649 31.2507 19.9649H19.8219H19.5316V20.2551V31.4117C19.5316 32.4131 18.7165 33.2282 17.7158 33.2282H14.9356C13.9342 33.2282 13.1192 32.4131 13.1192 31.4117V30.5988V30.3085H12.8289H7.34811H7.05782V30.5988V34.5549C7.05782 35.5562 6.24274 36.3713 5.24136 36.3713H1.76551H1.47522L1.47522 36.6616L1.47522 37.1917C1.47522 37.2931 1.39284 37.3755 1.29145 37.3755C1.19005 37.3755 1.10767 37.2931 1.10767 37.1917L1.10767 18.2841C1.10767 18.1827 1.19005 18.1004 1.29145 18.1004C1.39285 18.1004 1.47522 18.1827 1.47522 18.2841L1.47522 19.3095V19.5998H1.76551H5.24136C6.24275 19.5998 7.05782 20.4149 7.05782 21.4162V25.331V25.6213H7.34811H12.8289H13.1192V25.331V20.2265V19.9594L12.8529 19.9372C11.1919 19.7992 9.67047 18.7471 8.55477 17.0753C7.44011 15.405 6.74701 13.1366 6.74551 10.6288ZM6.73172 10.5387C6.73196 10.5395 6.73239 10.541 6.73285 10.5426L6.73209 10.54L6.73172 10.5387ZM23.5588 9.54335C23.616 9.6095 23.6555 9.7054 23.6425 9.84409L23.462 9.62203L23.5588 9.54335ZM29.4703 7.90647H29.2693L29.1986 8.09468C28.9124 8.85637 28.7555 9.71638 28.7555 10.6146C28.7555 11.9814 29.099 13.1294 29.5675 13.9439C29.8014 14.3506 30.0705 14.6811 30.3507 14.9133C30.6266 15.1419 30.9379 15.2949 31.2507 15.2949C31.5635 15.2949 31.8749 15.1419 32.1508 14.9133C32.4309 14.6811 32.7 14.3506 32.9339 13.9439C33.4024 13.1294 33.7459 11.9814 33.7459 10.6146C33.7459 9.09908 33.3179 7.89049 32.8189 7.10385L32.6267 6.80084L32.3705 7.05211C31.8163 7.59569 31.0764 7.90647 30.2834 7.90647H29.4703ZM1.47522 35.7135V36.0038H1.76551H5.24136C6.04056 36.0038 6.69027 35.3541 6.69027 34.5549V21.4162C6.69027 20.617 6.04056 19.9673 5.24136 19.9673H1.76551H1.47522V20.2576V35.7135ZM7.05782 29.6506V29.9409H7.34811H12.8289H13.1192V29.6506V26.2791V25.9888H12.8289H7.34811H7.05782V26.2791V29.6506ZM13.777 19.9673H13.4867V20.2576V20.2803V20.303V20.3256V20.3482V20.3709V20.3935V20.4161V20.4387V20.4612V20.4838V20.5064V20.5289V20.5514V20.5739V20.5965V20.6189V20.6414V20.6639V20.6864V20.7088V20.7312V20.7537V20.7761V20.7985V20.8209V20.8433V20.8656V20.888V20.9103V20.9327V20.955V20.9773V20.9996V21.0219V21.0442V21.0665V21.0887V21.111V21.1332V21.1555V21.1777V21.1999V21.2221V21.2443V21.2665V21.2886V21.3108V21.333V21.3551V21.3772V21.3994V21.4215V21.4436V21.4657V21.4877V21.5098V21.5319V21.5539V21.576V21.598V21.62V21.6421V21.6641V21.6861V21.7081V21.73V21.752V21.774V21.7959V21.8179V21.8398V21.8617V21.8837V21.9056V21.9275V21.9494V21.9712V21.9931V22.015V22.0369V22.0587V22.0806V22.1024V22.1242V22.146V22.1678V22.1897V22.2114V22.2332V22.255V22.2768V22.2986V22.3203V22.3421V22.3638V22.3855V22.4073V22.429V22.4507V22.4724V22.4941V22.5158V22.5375V22.5592V22.5808V22.6025V22.6242V22.6458V22.6675V22.6891V22.7107V22.7323V22.754V22.7756V22.7972V22.8188V22.8404V22.8619V22.8835V22.9051V22.9267V22.9482V22.9698V22.9913V23.0129V23.0344V23.0559V23.0775V23.099V23.1205V23.142V23.1635V23.185V23.2065V23.228V23.2495V23.2709V23.2924V23.3139V23.3353V23.3568V23.3782V23.3997V23.4211V23.4426V23.464V23.4854V23.5068V23.5283V23.5497V23.5711V23.5925V23.6139V23.6353V23.6567V23.678V23.6994V23.7208V23.7422V23.7635V23.7849V23.8063V23.8276V23.849V23.8703V23.8917V23.913V23.9343V23.9557V23.977V23.9983V24.0197V24.041V24.0623V24.0836V24.1049V24.1262V24.1475V24.1688V24.1901V24.2114V24.2327V24.254V24.2753V24.2966V24.3178V24.3391V24.3604V24.3817V24.4029V24.4242V24.4455V24.4667V24.488V24.5092V24.5305V24.5517V24.573V24.5942V24.6155V24.6367V24.658V24.6792V24.7005V24.7217V24.7429V24.7642V24.7854V24.8066V24.8279V24.8491V24.8703V24.8915V24.9128V24.934V24.9552V24.9764V24.9976V25.0189V25.0401V25.0613V25.0825V25.1037V25.1249V25.1462V25.1674V25.1886V25.2098V25.231V25.2522V25.2734V25.2946V25.3158V25.337V25.3583V25.3795V25.4007V25.4219V25.4431V25.4643V25.4855V25.5067V25.5279V25.5491V25.5703V25.5916V25.6128V25.634V25.6552V25.6764V25.6976V25.7188V25.74V25.7613V25.7825V25.8037V25.8249V25.8461V25.8673V25.8886V25.9098V25.931V25.9522V25.9735V25.9947V26.0159V26.0371V26.0584V26.0796V26.1008V26.1221V26.1433V26.1646V26.1858V26.207V26.2283V26.2495V26.2708V26.292V26.3133V26.3345V26.3558V26.3771V26.3983V26.4196V26.4409V26.4621V26.4834V26.5047V26.526V26.5472V26.5685V26.5898V26.6111V26.6324V26.6537V26.675V26.6963V26.7176V26.7389V26.7602V26.7815V26.8028V26.8242V26.8455V26.8668V26.8881V26.9095V26.9308V26.9522V26.9735V26.9948V27.0162V27.0376V27.0589V27.0803V27.1017V27.123V27.1444V27.1658V27.1872V27.2086V27.23V27.2514V27.2728V27.2942V27.3156V27.337V27.3584V27.3799V27.4013V27.4227V27.4442V27.4656V27.4871V27.5085V27.53V27.5514V27.5729V27.5944V27.6159V27.6374V27.6589V27.6804V27.7019V27.7234V27.7449V27.7664V27.7879V27.8095V27.831V27.8526V27.8741V27.8957V27.9172V27.9388V27.9604V27.9819V28.0035V28.0251V28.0467V28.0683V28.0899V28.1116V28.1332V28.1548V28.1765V28.1981V28.2198V28.2414V28.2631V28.2848V28.3064V28.3281V28.3498V28.3715V28.3932V28.4149V28.4367V28.4584V28.4801V28.5019V28.5236V28.5454V28.5672V28.5889V28.6107V28.6325V28.6543V28.6761V28.6979V28.7198V28.7416V28.7634V28.7853V28.8071V28.829V28.8509V28.8727V28.8946V28.9165V28.9384V28.9604V28.9823V29.0042V29.0261V29.0481V29.0701V29.092V29.114V29.136V29.158V29.18V29.202V29.224V29.246V29.2681V29.2901V29.3122V29.3342V29.3563V29.3784V29.4005V29.4226V29.4447V29.4668V29.489V29.5111V29.5333V29.5554V29.5776V29.5998V29.622V29.6442V29.6664V29.6886V29.7109V29.7331V29.7554V29.7776V29.7999V29.8222V29.8445V29.8668V29.8891V29.9115V29.9338V29.9562V29.9785V30.0009V30.0233V30.0457V30.0681V30.0905V30.1129V30.1354V30.1578V30.1803V30.2028V30.2253V30.2478V30.2703V30.2928V30.3153V30.3379V30.3604V30.383V30.4056V30.4282V30.4508V30.4734V30.496V30.5187V30.5413V30.564V30.5866V30.6093V30.632V30.6548V30.6775V30.7002V30.723V30.7457V30.7685V30.7913V30.8141V30.8369V30.8598V30.8826V30.9055V30.9283V30.9512V30.9741V30.997V31.0199V31.0429V31.0658V31.0888V31.1118V31.1348V31.1578V31.1808V31.2038V31.2269V31.2499V31.273V31.2961V31.3192V31.3423V31.3654V31.3886V31.4117C13.4867 32.2109 14.1364 32.8606 14.9356 32.8606H17.7158C18.5145 32.8606 19.1641 32.2108 19.1641 31.4117V20.2576V19.9673H18.8738H13.777ZM28.323 19.5973H29.2593L28.4872 19.0676C25.9651 17.3375 24.7708 13.7813 24.7708 10.6208C24.7708 10.4396 24.7789 10.2572 24.7874 10.0673C24.7882 10.0492 24.789 10.031 24.7899 10.0128L24.8185 9.36694L24.3168 9.77468L23.8765 10.1325C23.8764 10.1325 23.8764 10.1325 23.8764 10.1325C23.3454 10.564 22.6754 10.8021 21.9923 10.8021H7.41906H7.11806L7.12897 11.1029C7.21355 13.4356 7.90343 15.5456 8.98324 17.0804C10.0621 18.6138 11.5513 19.5973 13.2258 19.5973H28.323ZM25.3344 8.94776L25.2431 9.02194L25.2292 9.13876C25.172 9.61972 25.1383 10.1157 25.1383 10.6208C25.1383 13.0653 25.8043 15.2948 26.8946 16.9215C27.9835 18.5462 29.5187 19.5973 31.2507 19.5973C32.9827 19.5973 34.518 18.5462 35.6071 16.9216C36.6976 15.2948 37.3637 13.0653 37.3637 10.6208C37.3637 8.11242 36.6533 5.74829 35.3955 4.03645L35.2113 3.78574L34.9739 3.98685C34.023 4.79247 33.3603 5.65656 32.9378 6.31326L32.829 6.4824L32.9491 6.64371C33.672 7.61431 34.1134 9.06354 34.1134 10.6146C34.1134 11.9899 33.7564 13.2725 33.2071 14.2025C32.6509 15.1442 31.9399 15.6625 31.2507 15.6625C30.5615 15.6625 29.8505 15.1442 29.2943 14.2025C28.745 13.2725 28.388 11.9899 28.388 10.6146C28.388 9.795 28.5095 9.00246 28.7369 8.28439L28.8566 7.90646H28.4602H27.5465C26.9451 7.90646 26.3582 8.11528 25.8923 8.49441L25.3344 8.94776ZM36.7895 5.75887L36.9049 6.03322L37.1763 5.91092C39.8382 4.71128 40.4586 2.9406 40.5833 2.02639L40.6346 1.65026L40.2582 1.69931C38.5848 1.91733 37.0717 2.48595 35.7513 3.39645L35.5048 3.56647L35.6824 3.8076C36.1131 4.39227 36.4885 5.04376 36.7895 5.75887ZM20.2553 3.68096H24.9521C25.0535 3.68096 25.1358 3.76334 25.1358 3.86474C25.1358 3.96614 25.0535 4.04852 24.9521 4.04852H20.2553C20.1539 4.04852 20.0715 3.96614 20.0715 3.86474C20.0715 3.76334 20.1539 3.68096 20.2553 3.68096ZM17.9158 3.68096H18.1355C18.2369 3.68096 18.3193 3.76334 18.3193 3.86474C18.3193 3.96614 18.2369 4.04852 18.1355 4.04852H17.9158C17.8144 4.04852 17.732 3.96614 17.732 3.86474C17.732 3.76334 17.8144 3.68096 17.9158 3.68096Z" fill="#DEC58C" stroke="#DEC58C" stroke-width="0.580576"/>
</svg>
