<svg width="40" height="41" viewBox="0 0 40 41" fill="none" xmlns="http://www.w3.org/2000/svg">
<path d="M19.2199 19.8441H19.3905V19.6736V13.9022C19.3905 13.5429 19.6851 13.2482 20.0444 13.2482C20.4037 13.2482 20.6984 13.5429 20.6984 13.9022V24.6205C20.6984 24.9798 20.4037 25.2744 20.0444 25.2744C19.6851 25.2744 19.3905 24.9798 19.3905 24.6205V21.3225V21.152H19.2199H12.6241C12.2648 21.152 11.9701 20.8573 11.9701 20.498C11.9701 20.1388 12.2648 19.8441 12.6241 19.8441H19.2199ZM33.2362 2.1889H33.0656V2.35942V5.65735C33.0656 6.01664 32.771 6.31131 32.4117 6.31131C32.0524 6.31131 31.7577 6.01664 31.7577 5.65735V1.53493C31.7577 1.17564 32.0524 0.88097 32.4117 0.88097H37.3668C38.6323 0.88097 39.6615 1.91694 39.6615 3.1839V37.8122C39.6615 39.0784 38.6248 40.1151 37.3586 40.1151H2.73029C1.46406 40.1151 0.427356 39.0784 0.427356 37.8122V3.1839C0.427356 1.91768 1.46406 0.88097 2.73029 0.88097H26.6403C26.9996 0.88097 27.2943 1.17564 27.2943 1.53493V5.65735C27.2943 6.01664 26.9996 6.31131 26.6403 6.31131C26.281 6.31131 25.9863 6.01664 25.9863 5.65735V2.35942V2.1889H25.8158H20.8689H20.6984V2.35942V9.77976C20.6984 10.1391 20.4037 10.4337 20.0444 10.4337C19.6851 10.4337 19.3905 10.1391 19.3905 9.77976V2.35942V2.1889H19.2199H2.73029C2.18264 2.1889 1.73528 2.63626 1.73528 3.1839V19.6736V19.8441H1.9058H9.30142C9.66071 19.8441 9.95538 20.1388 9.95538 20.498C9.95538 20.8573 9.66071 21.152 9.30142 21.152H1.9058H1.73528V21.3225V37.8122C1.73528 38.3598 2.18264 38.8072 2.73029 38.8072H19.2199H19.3905V38.6367V29.5674C19.3905 29.2081 19.6851 28.9134 20.0444 28.9134C20.4037 28.9134 20.6984 29.2081 20.6984 29.5674V38.6367V38.8072H20.8689H37.3586C37.9062 38.8072 38.3536 38.3598 38.3536 37.8122V25.4449V25.2744H38.1831H25.8158C25.4565 25.2744 25.1619 24.9798 25.1619 24.6205C25.1619 24.2612 25.4565 23.9665 25.8158 23.9665H38.1831H38.3536V23.796V19.6736V19.503H38.1831H29.9382C29.5789 19.503 29.2843 19.2084 29.2843 18.8491C29.2843 18.4898 29.5789 18.1951 29.9382 18.1951H38.1831H38.3536V18.0246V3.1839C38.3536 2.63737 37.9073 2.1889 37.3668 2.1889H33.2362Z" fill="#DEC58C" stroke="#DEC58C" stroke-width="0.341041"/>
</svg>
