<svg width="26" height="35" viewBox="0 0 26 35" fill="none" xmlns="http://www.w3.org/2000/svg">
<path d="M8.32285 25.0425V24.7925H8.07285H5.5873C4.33519 24.7925 3.13436 24.2951 2.24899 23.4097C1.36361 22.5243 0.866211 21.3235 0.866211 20.0714V1.42979C0.866211 1.16649 0.970807 0.91397 1.15699 0.727788C1.34317 0.541607 1.59568 0.437012 1.85898 0.437012H24.2289C24.4922 0.437012 24.7447 0.541607 24.9309 0.727788C25.1171 0.913969 25.2217 1.16648 25.2217 1.42979V20.0714C25.2217 21.3235 24.7243 22.5243 23.8389 23.4097C22.9535 24.2951 21.7527 24.7925 20.5006 24.7925H18.015H17.765V25.0425V30.0136C17.765 31.2657 17.2676 32.4665 16.3823 33.3519C15.4969 34.2373 14.2961 34.7347 13.0439 34.7347C11.7918 34.7347 10.591 34.2373 9.70563 33.3519C8.82025 32.4665 8.32285 31.2657 8.32285 30.0136V25.0425ZM2.85176 15.1003V15.3503H3.10176H22.9861H23.2361V15.1003V2.67256V2.42256H22.9861H20.5006H20.2506V2.67256V8.88643C20.2506 9.14973 20.146 9.40224 19.9598 9.58842C19.7736 9.7746 19.5211 9.8792 19.2578 9.8792C18.9945 9.8792 18.742 9.7746 18.5558 9.58842C18.3696 9.40224 18.265 9.14973 18.265 8.88643V2.67256V2.42256H18.015H15.5295H15.2795V2.67256V6.40088C15.2795 6.66418 15.1749 6.9167 14.9887 7.10288C14.8025 7.28906 14.55 7.39365 14.2867 7.39365C14.0234 7.39365 13.7709 7.28906 13.5847 7.10288C13.3985 6.91669 13.2939 6.66418 13.2939 6.40088V2.67256V2.42256H13.0439H3.10176H2.85176V2.67256V15.1003ZM3.10176 17.3358H2.85176V17.5858V20.0714C2.85176 20.7969 3.13997 21.4927 3.65298 22.0057C4.166 22.5187 4.86179 22.8069 5.5873 22.8069H9.31563C9.57893 22.8069 9.83144 22.9115 10.0176 23.0977C10.2038 23.2839 10.3084 23.5364 10.3084 23.7997V30.0136C10.3084 30.7391 10.5966 31.4349 11.1096 31.9479C11.6226 32.4609 12.3184 32.7491 13.0439 32.7491C13.7695 32.7491 14.4653 32.4609 14.9783 31.9479C15.4913 31.4349 15.7795 30.7391 15.7795 30.0136V23.7997C15.7795 23.5364 15.8841 23.2839 16.0703 23.0977C16.2564 22.9115 16.509 22.8069 16.7723 22.8069H20.5006C21.2261 22.8069 21.9219 22.5187 22.4349 22.0057C22.9479 21.4927 23.2361 20.7969 23.2361 20.0714V17.5858V17.3358H22.9861H3.10176Z" fill="#DEC58C" stroke="#DEC58C" stroke-width="0.5"/>
</svg>
