<svg width="41" height="43" viewBox="0 0 41 43" fill="none" xmlns="http://www.w3.org/2000/svg">
<mask id="path-1-inside-1_15_289" fill="white">
<path fill-rule="evenodd" clip-rule="evenodd" d="M39.6188 42.4791H0.468163C0.24018 42.4791 0.0566406 42.2947 0.0566406 42.0675V0.752343C0.0566406 0.525182 0.24018 0.34082 0.468163 0.34082H39.6188C39.8467 0.34082 40.0303 0.525182 40.0303 0.752343V42.0675C40.0303 42.2947 39.8459 42.4791 39.6188 42.4791ZM0.879685 41.656H39.2072V1.16387H0.879685V41.656Z"/>
<path fill-rule="evenodd" clip-rule="evenodd" d="M39.6188 3.4116H0.468163C0.24018 3.4116 0.0566406 3.22724 0.0566406 3.00008C0.0566406 2.77292 0.24018 2.58856 0.468163 2.58856H39.6188C39.8467 2.58856 40.0303 2.77292 40.0303 3.00008C40.0303 3.22724 39.8467 3.4116 39.6188 3.4116Z"/>
<path fill-rule="evenodd" clip-rule="evenodd" d="M39.6188 6.21818H0.468163C0.24018 6.21818 0.0566406 6.03382 0.0566406 5.80666C0.0566406 5.5795 0.24018 5.39514 0.468163 5.39514H39.6188C39.8467 5.39514 40.0303 5.5795 40.0303 5.80666C40.0303 6.03382 39.8467 6.21818 39.6188 6.21818Z"/>
<path fill-rule="evenodd" clip-rule="evenodd" d="M30.4072 42.4791H3.20232C2.97516 42.4791 2.7908 42.2947 2.7908 42.0675V9.53258C2.7908 9.30542 2.97516 9.12106 3.20232 9.12106H30.4072C30.6344 9.12106 30.8179 9.30542 30.8179 9.53258V42.0675C30.8188 42.2947 30.6344 42.4791 30.4072 42.4791ZM3.61384 41.656H29.9957V9.94411H3.61384V41.656Z"/>
<path fill-rule="evenodd" clip-rule="evenodd" d="M27.6435 39.7153H5.9661C5.73894 39.7153 5.55458 39.5309 5.55458 39.3038V12.2964C5.55458 12.0692 5.73894 11.8848 5.9661 11.8848H27.6435C27.8706 11.8848 28.055 12.0692 28.055 12.2964V39.3038C28.055 39.5309 27.8706 39.7153 27.6435 39.7153ZM6.37762 38.8922H27.2319V12.7079H6.37762V38.8922Z"/>
<path fill-rule="evenodd" clip-rule="evenodd" d="M18.1719 39.7153H15.4377C15.2105 39.7153 15.0262 39.5309 15.0262 39.3038V12.2964C15.0262 12.0692 15.2105 11.8848 15.4377 11.8848H18.1719C18.3998 11.8848 18.5834 12.0692 18.5834 12.2964V39.3038C18.5834 39.5309 18.3998 39.7153 18.1719 39.7153ZM15.8492 38.8922H17.7603V12.7079H15.8492V38.8922Z"/>
<path fill-rule="evenodd" clip-rule="evenodd" d="M10.6714 28.6585C10.4443 28.6585 10.2599 28.4741 10.2599 28.247V23.3531C10.2599 23.126 10.4443 22.9416 10.6714 22.9416C10.8994 22.9416 11.083 23.126 11.083 23.3531V28.247C11.083 28.4741 10.8994 28.6585 10.6714 28.6585Z"/>
<path fill-rule="evenodd" clip-rule="evenodd" d="M12.7587 25.4922C12.6665 25.4922 12.5735 25.461 12.497 25.3976L10.6714 23.8873L8.84676 25.3976C8.67227 25.5424 8.41219 25.5178 8.26733 25.3433C8.12248 25.168 8.14717 24.9087 8.32248 24.763L10.4097 23.0363C10.562 22.9104 10.7817 22.9104 10.934 23.0363L13.0212 24.763C13.1965 24.9087 13.2212 25.168 13.0764 25.3433C12.9949 25.4412 12.8772 25.4922 12.7587 25.4922Z"/>
<path fill-rule="evenodd" clip-rule="evenodd" d="M22.9381 28.6585C22.7109 28.6585 22.5266 28.4741 22.5266 28.247V23.3531C22.5266 23.1252 22.7109 22.9416 22.9381 22.9416C23.1653 22.9416 23.3496 23.1252 23.3496 23.3531V28.247C23.3496 28.4741 23.1653 28.6585 22.9381 28.6585Z"/>
<path fill-rule="evenodd" clip-rule="evenodd" d="M22.9381 28.6585C22.8451 28.6585 22.7521 28.6272 22.6756 28.5638L20.5883 26.8363C20.413 26.6914 20.3891 26.4322 20.534 26.2569C20.6788 26.0824 20.9381 26.0577 21.1134 26.2025L22.9381 27.7128L24.7628 26.2025C24.9381 26.0577 25.1974 26.0824 25.3422 26.2569C25.4871 26.4322 25.4632 26.6914 25.2879 26.8363L23.2007 28.5638C23.1241 28.6272 23.0311 28.6585 22.9381 28.6585Z"/>
<path fill-rule="evenodd" clip-rule="evenodd" d="M36.8319 24.5383C36.8319 24.5383 36.8311 24.5383 36.8303 24.5383H32.6023C32.4525 24.5383 32.3142 24.4569 32.2418 24.3252C32.1694 24.1943 32.1743 24.0338 32.2542 23.9071L34.413 20.4881C34.4887 20.3688 34.6204 20.2964 34.7611 20.2964H34.7653C34.9076 20.298 35.0393 20.3729 35.1134 20.4947L37.1653 23.8848C37.2146 23.9531 37.2434 24.0363 37.2434 24.1268C37.2434 24.354 37.0591 24.5383 36.8319 24.5383ZM33.3488 23.7153H36.1002L34.7537 21.4906L33.3488 23.7153Z"/>
<path fill-rule="evenodd" clip-rule="evenodd" d="M34.7611 31.3038C34.6204 31.3038 34.4887 31.2313 34.413 31.112L32.2542 27.6931C32.1743 27.5663 32.1694 27.4058 32.2418 27.275C32.3142 27.1433 32.4525 27.0618 32.6023 27.0618H36.8303C36.9792 27.0618 37.1159 27.1416 37.1891 27.2717C37.2616 27.4009 37.2591 27.5597 37.1825 27.6865L35.1134 31.1054C35.0393 31.2272 34.9076 31.3021 34.7653 31.3038C34.7636 31.3038 34.7628 31.3038 34.7611 31.3038ZM33.3488 27.8848L34.7537 30.1095L36.1002 27.8848H33.3488Z"/>
</mask>
<path fill-rule="evenodd" clip-rule="evenodd" d="M39.6188 42.4791H0.468163C0.24018 42.4791 0.0566406 42.2947 0.0566406 42.0675V0.752343C0.0566406 0.525182 0.24018 0.34082 0.468163 0.34082H39.6188C39.8467 0.34082 40.0303 0.525182 40.0303 0.752343V42.0675C40.0303 42.2947 39.8459 42.4791 39.6188 42.4791ZM0.879685 41.656H39.2072V1.16387H0.879685V41.656Z" fill="#DEC58C"/>
<path fill-rule="evenodd" clip-rule="evenodd" d="M39.6188 3.4116H0.468163C0.24018 3.4116 0.0566406 3.22724 0.0566406 3.00008C0.0566406 2.77292 0.24018 2.58856 0.468163 2.58856H39.6188C39.8467 2.58856 40.0303 2.77292 40.0303 3.00008C40.0303 3.22724 39.8467 3.4116 39.6188 3.4116Z" fill="#DEC58C"/>
<path fill-rule="evenodd" clip-rule="evenodd" d="M39.6188 6.21818H0.468163C0.24018 6.21818 0.0566406 6.03382 0.0566406 5.80666C0.0566406 5.5795 0.24018 5.39514 0.468163 5.39514H39.6188C39.8467 5.39514 40.0303 5.5795 40.0303 5.80666C40.0303 6.03382 39.8467 6.21818 39.6188 6.21818Z" fill="#DEC58C"/>
<path fill-rule="evenodd" clip-rule="evenodd" d="M30.4072 42.4791H3.20232C2.97516 42.4791 2.7908 42.2947 2.7908 42.0675V9.53258C2.7908 9.30542 2.97516 9.12106 3.20232 9.12106H30.4072C30.6344 9.12106 30.8179 9.30542 30.8179 9.53258V42.0675C30.8188 42.2947 30.6344 42.4791 30.4072 42.4791ZM3.61384 41.656H29.9957V9.94411H3.61384V41.656Z" fill="#DEC58C"/>
<path fill-rule="evenodd" clip-rule="evenodd" d="M27.6435 39.7153H5.9661C5.73894 39.7153 5.55458 39.5309 5.55458 39.3038V12.2964C5.55458 12.0692 5.73894 11.8848 5.9661 11.8848H27.6435C27.8706 11.8848 28.055 12.0692 28.055 12.2964V39.3038C28.055 39.5309 27.8706 39.7153 27.6435 39.7153ZM6.37762 38.8922H27.2319V12.7079H6.37762V38.8922Z" fill="#DEC58C"/>
<path fill-rule="evenodd" clip-rule="evenodd" d="M18.1719 39.7153H15.4377C15.2105 39.7153 15.0262 39.5309 15.0262 39.3038V12.2964C15.0262 12.0692 15.2105 11.8848 15.4377 11.8848H18.1719C18.3998 11.8848 18.5834 12.0692 18.5834 12.2964V39.3038C18.5834 39.5309 18.3998 39.7153 18.1719 39.7153ZM15.8492 38.8922H17.7603V12.7079H15.8492V38.8922Z" fill="#DEC58C"/>
<path fill-rule="evenodd" clip-rule="evenodd" d="M10.6714 28.6585C10.4443 28.6585 10.2599 28.4741 10.2599 28.247V23.3531C10.2599 23.126 10.4443 22.9416 10.6714 22.9416C10.8994 22.9416 11.083 23.126 11.083 23.3531V28.247C11.083 28.4741 10.8994 28.6585 10.6714 28.6585Z" fill="#DEC58C"/>
<path fill-rule="evenodd" clip-rule="evenodd" d="M12.7587 25.4922C12.6665 25.4922 12.5735 25.461 12.497 25.3976L10.6714 23.8873L8.84676 25.3976C8.67227 25.5424 8.41219 25.5178 8.26733 25.3433C8.12248 25.168 8.14717 24.9087 8.32248 24.763L10.4097 23.0363C10.562 22.9104 10.7817 22.9104 10.934 23.0363L13.0212 24.763C13.1965 24.9087 13.2212 25.168 13.0764 25.3433C12.9949 25.4412 12.8772 25.4922 12.7587 25.4922Z" fill="#DEC58C"/>
<path fill-rule="evenodd" clip-rule="evenodd" d="M22.9381 28.6585C22.7109 28.6585 22.5266 28.4741 22.5266 28.247V23.3531C22.5266 23.1252 22.7109 22.9416 22.9381 22.9416C23.1653 22.9416 23.3496 23.1252 23.3496 23.3531V28.247C23.3496 28.4741 23.1653 28.6585 22.9381 28.6585Z" fill="#DEC58C"/>
<path fill-rule="evenodd" clip-rule="evenodd" d="M22.9381 28.6585C22.8451 28.6585 22.7521 28.6272 22.6756 28.5638L20.5883 26.8363C20.413 26.6914 20.3891 26.4322 20.534 26.2569C20.6788 26.0824 20.9381 26.0577 21.1134 26.2025L22.9381 27.7128L24.7628 26.2025C24.9381 26.0577 25.1974 26.0824 25.3422 26.2569C25.4871 26.4322 25.4632 26.6914 25.2879 26.8363L23.2007 28.5638C23.1241 28.6272 23.0311 28.6585 22.9381 28.6585Z" fill="#DEC58C"/>
<path fill-rule="evenodd" clip-rule="evenodd" d="M36.8319 24.5383C36.8319 24.5383 36.8311 24.5383 36.8303 24.5383H32.6023C32.4525 24.5383 32.3142 24.4569 32.2418 24.3252C32.1694 24.1943 32.1743 24.0338 32.2542 23.9071L34.413 20.4881C34.4887 20.3688 34.6204 20.2964 34.7611 20.2964H34.7653C34.9076 20.298 35.0393 20.3729 35.1134 20.4947L37.1653 23.8848C37.2146 23.9531 37.2434 24.0363 37.2434 24.1268C37.2434 24.354 37.0591 24.5383 36.8319 24.5383ZM33.3488 23.7153H36.1002L34.7537 21.4906L33.3488 23.7153Z" fill="#DEC58C"/>
<path fill-rule="evenodd" clip-rule="evenodd" d="M34.7611 31.3038C34.6204 31.3038 34.4887 31.2313 34.413 31.112L32.2542 27.6931C32.1743 27.5663 32.1694 27.4058 32.2418 27.275C32.3142 27.1433 32.4525 27.0618 32.6023 27.0618H36.8303C36.9792 27.0618 37.1159 27.1416 37.1891 27.2717C37.2616 27.4009 37.2591 27.5597 37.1825 27.6865L35.1134 31.1054C35.0393 31.2272 34.9076 31.3021 34.7653 31.3038C34.7636 31.3038 34.7628 31.3038 34.7611 31.3038ZM33.3488 27.8848L34.7537 30.1095L36.1002 27.8848H33.3488Z" fill="#DEC58C"/>
<path d="M0.879685 41.656H0.299109V42.2366H0.879685V41.656ZM39.2072 41.656V42.2366H39.7878V41.656H39.2072ZM39.2072 1.16387H39.7878V0.583289H39.2072V1.16387ZM0.879685 1.16387V0.583289H0.299109V1.16387H0.879685ZM30.8179 42.0675H30.2374L30.2374 42.0696L30.8179 42.0675ZM3.61384 41.656H3.03326V42.2366H3.61384V41.656ZM29.9957 41.656V42.2366H30.5763V41.656H29.9957ZM29.9957 9.94411H30.5763V9.36353H29.9957V9.94411ZM3.61384 9.94411V9.36353H3.03326V9.94411H3.61384ZM6.37762 38.8922H5.79705V39.4728H6.37762V38.8922ZM27.2319 38.8922V39.4728H27.8125V38.8922H27.2319ZM27.2319 12.7079H27.8125V12.1273H27.2319V12.7079ZM6.37762 12.7079V12.1273H5.79705V12.7079H6.37762ZM15.8492 38.8922H15.2686V39.4728H15.8492V38.8922ZM17.7603 38.8922V39.4728H18.3409V38.8922H17.7603ZM17.7603 12.7079H18.3409V12.1273H17.7603V12.7079ZM15.8492 12.7079V12.1273H15.2686V12.7079H15.8492ZM12.497 25.3976L12.8672 24.9504L12.867 24.9503L12.497 25.3976ZM10.6714 23.8873L11.0415 23.44L10.6714 23.1337L10.3013 23.4401L10.6714 23.8873ZM8.84676 25.3976L8.47657 24.9503L8.47591 24.9509L8.84676 25.3976ZM8.26733 25.3433L7.81978 25.7131L7.82063 25.7141L8.26733 25.3433ZM8.32248 24.763L7.9524 24.3157L7.95142 24.3165L8.32248 24.763ZM10.4097 23.0363L10.0397 22.5889L10.0396 22.5889L10.4097 23.0363ZM10.934 23.0363L11.3041 22.5889L11.304 22.5889L10.934 23.0363ZM13.0212 24.763L13.3923 24.3165L13.3913 24.3157L13.0212 24.763ZM13.0764 25.3433L13.5227 25.7146L13.5239 25.7131L13.0764 25.3433ZM22.6756 28.5638L23.0458 28.1167L23.0457 28.1166L22.6756 28.5638ZM20.5883 26.8363L20.9585 26.389L20.9581 26.3887L20.5883 26.8363ZM20.534 26.2569L20.0873 25.886L20.0864 25.887L20.534 26.2569ZM21.1134 26.2025L21.4836 25.7553L21.4832 25.755L21.1134 26.2025ZM22.9381 27.7128L22.5679 28.1601L22.9381 28.4665L23.3083 28.1601L22.9381 27.7128ZM24.7628 26.2025L24.393 25.755L24.3926 25.7553L24.7628 26.2025ZM25.3422 26.2569L25.7898 25.887L25.7889 25.886L25.3422 26.2569ZM25.2879 26.8363L24.9181 26.3887L24.9177 26.389L25.2879 26.8363ZM23.2007 28.5638L22.8305 28.1166L22.8304 28.1167L23.2007 28.5638ZM32.2418 24.3252L32.7505 24.0454L32.7498 24.044L32.2418 24.3252ZM32.2542 23.9071L31.7632 23.5971L31.7629 23.5976L32.2542 23.9071ZM34.413 20.4881L33.9228 20.1771L33.9221 20.1782L34.413 20.4881ZM34.7653 20.2964L34.772 19.7158H34.7653V20.2964ZM35.1134 20.4947L35.6101 20.1941L35.6095 20.1931L35.1134 20.4947ZM37.1653 23.8848L36.6686 24.1855L36.6809 24.2057L36.6947 24.225L37.1653 23.8848ZM33.3488 23.7153L32.8579 23.4053L32.2955 24.2959H33.3488V23.7153ZM36.1002 23.7153V24.2959H37.1303L36.5969 23.4147L36.1002 23.7153ZM34.7537 21.4906L35.2504 21.19L34.7642 20.3867L34.2629 21.1806L34.7537 21.4906ZM34.413 31.112L33.9221 31.422L33.9228 31.423L34.413 31.112ZM32.2542 27.6931L31.7629 28.0025L31.7632 28.003L32.2542 27.6931ZM32.2418 27.275L32.7498 27.5561L32.7505 27.5547L32.2418 27.275ZM37.1891 27.2717L37.6956 26.9878L37.695 26.9867L37.1891 27.2717ZM37.1825 27.6865L37.6792 27.9871L37.6795 27.9866L37.1825 27.6865ZM35.1134 31.1054L35.6095 31.4071L35.6101 31.406L35.1134 31.1054ZM34.7653 31.3038V31.8844L34.772 31.8843L34.7653 31.3038ZM33.3488 27.8848V27.3043H32.2955L32.8579 28.1948L33.3488 27.8848ZM34.7537 30.1095L34.2629 30.4195L34.7642 31.2134L35.2504 30.4101L34.7537 30.1095ZM36.1002 27.8848L36.5969 28.1855L37.1303 27.3043H36.1002V27.8848ZM39.6188 41.8985H0.468163V43.0596H39.6188V41.8985ZM0.468163 41.8985C0.561579 41.8985 0.637217 41.9748 0.637217 42.0675H-0.523935C-0.523935 42.6146 -0.08122 43.0596 0.468163 43.0596V41.8985ZM0.637217 42.0675V0.752343H-0.523935V42.0675H0.637217ZM0.637217 0.752343C0.637217 0.845069 0.561579 0.921396 0.468163 0.921396V-0.239756C-0.08122 -0.239756 -0.523935 0.205296 -0.523935 0.752343H0.637217ZM0.468163 0.921396H39.6188V-0.239756H0.468163V0.921396ZM39.6188 0.921396C39.5253 0.921396 39.4497 0.845069 39.4497 0.752343H40.6109C40.6109 0.205296 40.1681 -0.239756 39.6188 -0.239756V0.921396ZM39.4497 0.752343V42.0675H40.6109V0.752343H39.4497ZM39.4497 42.0675C39.4497 41.9741 39.5253 41.8985 39.6188 41.8985V43.0596C40.1666 43.0596 40.6109 42.6153 40.6109 42.0675H39.4497ZM0.879685 42.2366H39.2072V41.0754H0.879685V42.2366ZM39.7878 41.656V1.16387H38.6267V41.656H39.7878ZM39.2072 0.583289H0.879685V1.74444H39.2072V0.583289ZM0.299109 1.16387V41.656H1.46026V1.16387H0.299109ZM39.6188 2.83102H0.468163V3.99218H39.6188V2.83102ZM0.468163 2.83102C0.561579 2.83102 0.637217 2.90735 0.637217 3.00008H-0.523935C-0.523935 3.54712 -0.08122 3.99218 0.468163 3.99218V2.83102ZM0.637217 3.00008C0.637217 3.0928 0.561579 3.16913 0.468163 3.16913V2.00798C-0.0812197 2.00798 -0.523935 2.45303 -0.523935 3.00008H0.637217ZM0.468163 3.16913H39.6188V2.00798H0.468163V3.16913ZM39.6188 3.16913C39.5253 3.16913 39.4497 3.0928 39.4497 3.00008H40.6109C40.6109 2.45303 40.1681 2.00798 39.6188 2.00798V3.16913ZM39.4497 3.00008C39.4497 2.90735 39.5253 2.83102 39.6188 2.83102V3.99218C40.1681 3.99218 40.6109 3.54712 40.6109 3.00008H39.4497ZM39.6188 5.63761H0.468163V6.79876H39.6188V5.63761ZM0.468163 5.63761C0.561579 5.63761 0.637217 5.71393 0.637217 5.80666H-0.523935C-0.523935 6.35371 -0.08122 6.79876 0.468163 6.79876V5.63761ZM0.637217 5.80666C0.637217 5.89939 0.561579 5.97571 0.468163 5.97571V4.81456C-0.08122 4.81456 -0.523935 5.25961 -0.523935 5.80666H0.637217ZM0.468163 5.97571H39.6188V4.81456H0.468163V5.97571ZM39.6188 5.97571C39.5253 5.97571 39.4497 5.89939 39.4497 5.80666H40.6109C40.6109 5.25961 40.1681 4.81456 39.6188 4.81456V5.97571ZM39.4497 5.80666C39.4497 5.71393 39.5253 5.63761 39.6188 5.63761V6.79876C40.1681 6.79876 40.6109 6.35371 40.6109 5.80666H39.4497ZM30.4072 41.8985H3.20232V43.0596H30.4072V41.8985ZM3.20232 41.8985C3.2958 41.8985 3.37137 41.9741 3.37137 42.0675H2.21022C2.21022 42.6153 2.65451 43.0596 3.20232 43.0596V41.8985ZM3.37137 42.0675V9.53258H2.21022V42.0675H3.37137ZM3.37137 9.53258C3.37137 9.62607 3.2958 9.70164 3.20232 9.70164V8.54049C2.65451 8.54049 2.21022 8.98478 2.21022 9.53258H3.37137ZM3.20232 9.70164H30.4072V8.54049H3.20232V9.70164ZM30.4072 9.70164C30.3122 9.70164 30.2374 9.62455 30.2374 9.53258H31.3985C31.3985 8.9863 30.9566 8.54049 30.4072 8.54049V9.70164ZM30.2374 9.53258V42.0675H31.3985V9.53258H30.2374ZM30.2374 42.0696C30.237 41.9741 30.3142 41.8985 30.4072 41.8985V43.0596C30.9546 43.0596 31.4005 42.6153 31.3985 42.0654L30.2374 42.0696ZM3.61384 42.2366H29.9957V41.0754H3.61384V42.2366ZM30.5763 41.656V9.94411H29.4151V41.656H30.5763ZM29.9957 9.36353H3.61384V10.5247H29.9957V9.36353ZM3.03326 9.94411V41.656H4.19442V9.94411H3.03326ZM27.6435 39.1347H5.9661V40.2959H27.6435V39.1347ZM5.9661 39.1347C6.05958 39.1347 6.13516 39.2103 6.13516 39.3038H4.974C4.974 39.8516 5.4183 40.2959 5.9661 40.2959V39.1347ZM6.13516 39.3038V12.2964H4.974V39.3038H6.13516ZM6.13516 12.2964C6.13516 12.3899 6.05958 12.4654 5.9661 12.4654V11.3043C5.4183 11.3043 4.974 11.7486 4.974 12.2964H6.13516ZM5.9661 12.4654H27.6435V11.3043H5.9661V12.4654ZM27.6435 12.4654C27.55 12.4654 27.4744 12.3899 27.4744 12.2964H28.6356C28.6356 11.7486 28.1913 11.3043 27.6435 11.3043V12.4654ZM27.4744 12.2964V39.3038H28.6356V12.2964H27.4744ZM27.4744 39.3038C27.4744 39.2103 27.55 39.1347 27.6435 39.1347V40.2959C28.1913 40.2959 28.6356 39.8516 28.6356 39.3038H27.4744ZM6.37762 39.4728H27.2319V38.3117H6.37762V39.4728ZM27.8125 38.8922V12.7079H26.6514V38.8922H27.8125ZM27.2319 12.1273H6.37762V13.2885H27.2319V12.1273ZM5.79705 12.7079V38.8922H6.9582V12.7079H5.79705ZM18.1719 39.1347H15.4377V40.2959H18.1719V39.1347ZM15.4377 39.1347C15.5312 39.1347 15.6068 39.2103 15.6068 39.3038H14.4456C14.4456 39.8516 14.8899 40.2959 15.4377 40.2959V39.1347ZM15.6068 39.3038V12.2964H14.4456V39.3038H15.6068ZM15.6068 12.2964C15.6068 12.3899 15.5312 12.4654 15.4377 12.4654V11.3043C14.8899 11.3043 14.4456 11.7486 14.4456 12.2964H15.6068ZM15.4377 12.4654H18.1719V11.3043H15.4377V12.4654ZM18.1719 12.4654C18.0784 12.4654 18.0028 12.3891 18.0028 12.2964H19.164C19.164 11.7493 18.7212 11.3043 18.1719 11.3043V12.4654ZM18.0028 12.2964V39.3038H19.164V12.2964H18.0028ZM18.0028 39.3038C18.0028 39.211 18.0784 39.1347 18.1719 39.1347V40.2959C18.7212 40.2959 19.164 39.8508 19.164 39.3038H18.0028ZM15.8492 39.4728H17.7603V38.3117H15.8492V39.4728ZM18.3409 38.8922V12.7079H17.1798V38.8922H18.3409ZM17.7603 12.1273H15.8492V13.2885H17.7603V12.1273ZM15.2686 12.7079V38.8922H16.4298V12.7079H15.2686ZM10.6714 28.0779C10.7649 28.0779 10.8405 28.1535 10.8405 28.247H9.67935C9.67935 28.7948 10.1236 29.2391 10.6714 29.2391V28.0779ZM10.8405 28.247V23.3531H9.67935V28.247H10.8405ZM10.8405 23.3531C10.8405 23.4466 10.7649 23.5222 10.6714 23.5222V22.361C10.1236 22.361 9.67935 22.8053 9.67935 23.3531H10.8405ZM10.6714 23.5222C10.578 23.5222 10.5024 23.4459 10.5024 23.3531H11.6635C11.6635 22.8061 11.2208 22.361 10.6714 22.361V23.5222ZM10.5024 23.3531V28.247H11.6635V23.3531H10.5024ZM10.5024 28.247C10.5024 28.1542 10.578 28.0779 10.6714 28.0779V29.2391C11.2208 29.2391 11.6635 28.794 11.6635 28.247H10.5024ZM12.7587 24.9117C12.7978 24.9117 12.8367 24.9251 12.8672 24.9504L12.1267 25.8448C12.3103 25.9968 12.5352 26.0728 12.7587 26.0728V24.9117ZM12.867 24.9503L11.0415 23.44L10.3014 24.3346L12.1269 25.8449L12.867 24.9503ZM10.3013 23.4401L8.47657 24.9503L9.21694 25.8448L11.0416 24.3346L10.3013 23.4401ZM8.47591 24.9509C8.54925 24.89 8.655 24.9013 8.71404 24.9724L7.82063 25.7141C8.16938 26.1342 8.7953 26.1949 9.2176 25.8443L8.47591 24.9509ZM8.71489 24.9735C8.77483 25.046 8.7632 25.1517 8.69354 25.2096L7.95142 24.3165C7.53114 24.6657 7.47013 25.2899 7.81978 25.7131L8.71489 24.9735ZM8.69256 25.2104L10.7798 23.4836L10.0396 22.5889L7.9524 24.3157L8.69256 25.2104ZM10.7797 23.4837C10.7173 23.5353 10.6264 23.5353 10.564 23.4837L11.304 22.5889C10.937 22.2854 10.4067 22.2854 10.0397 22.5889L10.7797 23.4837ZM10.5639 23.4836L12.6512 25.2104L13.3913 24.3157L11.3041 22.5889L10.5639 23.4836ZM12.6502 25.2096C12.5805 25.1517 12.5689 25.046 12.6288 24.9735L13.5239 25.7131C13.8736 25.2899 13.8126 24.6657 13.3923 24.3165L12.6502 25.2096ZM12.6301 24.972C12.6631 24.9322 12.7115 24.9117 12.7587 24.9117V26.0728C13.0429 26.0728 13.3267 25.9502 13.5227 25.7146L12.6301 24.972ZM22.9381 28.0779C23.0316 28.0779 23.1072 28.1535 23.1072 28.247H21.946C21.946 28.7948 22.3903 29.2391 22.9381 29.2391V28.0779ZM23.1072 28.247V23.3531H21.946V28.247H23.1072ZM23.1072 23.3531C23.1072 23.4466 23.0308 23.5222 22.9381 23.5222V22.361C22.3911 22.361 21.946 22.8038 21.946 23.3531H23.1072ZM22.9381 23.5222C22.8454 23.5222 22.7691 23.4466 22.7691 23.3531H23.9302C23.9302 22.8038 23.4852 22.361 22.9381 22.361V23.5222ZM22.7691 23.3531V28.247H23.9302V23.3531H22.7691ZM22.7691 28.247C22.7691 28.1535 22.8446 28.0779 22.9381 28.0779V29.2391C23.4859 29.2391 23.9302 28.7948 23.9302 28.247H22.7691ZM22.9381 28.0779C22.9758 28.0779 23.0148 28.091 23.0458 28.1167L22.3053 29.011C22.4894 29.1634 22.7144 29.2391 22.9381 29.2391V28.0779ZM23.0457 28.1166L20.9585 26.389L20.2181 27.2835L22.3054 29.0111L23.0457 28.1166ZM20.9581 26.3887C21.0316 26.4494 21.0396 26.5564 20.9816 26.6267L20.0864 25.887C19.7386 26.3079 19.7944 26.9334 20.2185 27.2838L20.9581 26.3887ZM20.9807 26.6277C20.9213 26.6993 20.8153 26.7093 20.7436 26.6501L21.4832 25.755C21.0609 25.406 20.4364 25.4654 20.0873 25.886L20.9807 26.6277ZM20.7432 26.6498L22.5679 28.1601L23.3083 27.2656L21.4836 25.7553L20.7432 26.6498ZM23.3083 28.1601L25.133 26.6498L24.3926 25.7553L22.5679 27.2656L23.3083 28.1601ZM25.1326 26.6501C25.0609 26.7093 24.955 26.6993 24.8955 26.6277L25.7889 25.886C25.4398 25.4654 24.8153 25.406 24.393 25.755L25.1326 26.6501ZM24.8947 26.6267C24.8366 26.5564 24.8446 26.4494 24.9181 26.3887L25.6577 27.2838C26.0818 26.9334 26.1376 26.308 25.7898 25.887L24.8947 26.6267ZM24.9177 26.389L22.8305 28.1166L23.5708 29.0111L25.6581 27.2835L24.9177 26.389ZM22.8304 28.1167C22.8614 28.091 22.9004 28.0779 22.9381 28.0779V29.2391C23.1618 29.2391 23.3868 29.1634 23.5709 29.011L22.8304 28.1167ZM36.8319 24.5383C36.8319 23.9578 36.8319 23.9578 36.8319 23.9578C36.8319 23.9578 36.8319 23.9578 36.8319 23.9578C36.8319 23.9578 36.8319 23.9578 36.8319 23.9578H36.8319H36.8319H36.8319C36.8319 23.9578 36.8319 23.9578 36.8319 23.9578H36.8319C36.8319 23.9578 36.8319 23.9578 36.8319 23.9578C36.8319 23.9578 36.8319 23.9578 36.8319 23.9578H36.8319C36.8319 23.9578 36.8319 23.9578 36.8319 23.9578C36.8319 23.9578 36.8319 23.9578 36.8319 23.9578C36.8319 23.9578 36.8319 23.9578 36.8319 23.9578C36.8319 23.9578 36.8319 23.9578 36.8319 23.9578C36.8319 23.9578 36.8319 23.9578 36.8319 23.9578H36.8319C36.8319 23.9578 36.8319 23.9578 36.8319 23.9578C36.8319 23.9578 36.8319 23.9578 36.8319 23.9578C36.8319 23.9578 36.8319 23.9578 36.8319 23.9578C36.8319 23.9578 36.8319 23.9578 36.8318 23.9578C36.8318 23.9578 36.8318 23.9578 36.8318 23.9578H36.8318C36.8318 23.9578 36.8318 23.9578 36.8318 23.9578C36.8318 23.9578 36.8318 23.9578 36.8318 23.9578C36.8318 23.9578 36.8318 23.9578 36.8318 23.9578C36.8318 23.9578 36.8318 23.9578 36.8318 23.9578H36.8318H36.8318H36.8318H36.8318H36.8318H36.8318H36.8318H36.8318C36.8318 23.9578 36.8318 23.9578 36.8318 23.9578C36.8318 23.9578 36.8318 23.9578 36.8318 23.9578C36.8318 23.9578 36.8318 23.9578 36.8318 23.9578C36.8318 23.9578 36.8318 23.9578 36.8318 23.9578H36.8318C36.8318 23.9578 36.8318 23.9578 36.8318 23.9578C36.8318 23.9578 36.8318 23.9578 36.8318 23.9578C36.8318 23.9578 36.8318 23.9578 36.8318 23.9578H36.8318C36.8318 23.9578 36.8318 23.9578 36.8318 23.9578C36.8318 23.9578 36.8318 23.9578 36.8318 23.9578H36.8317C36.8317 23.9578 36.8317 23.9578 36.8317 23.9578C36.8317 23.9578 36.8317 23.9578 36.8317 23.9578H36.8317C36.8317 23.9578 36.8317 23.9578 36.8317 23.9578H36.8317C36.8317 23.9578 36.8317 23.9578 36.8317 23.9578H36.8317C36.8317 23.9578 36.8317 23.9578 36.8317 23.9578C36.8317 23.9578 36.8317 23.9578 36.8317 23.9578C36.8317 23.9578 36.8317 23.9578 36.8317 23.9578C36.8317 23.9578 36.8317 23.9578 36.8317 23.9578C36.8317 23.9578 36.8317 23.9578 36.8317 23.9578C36.8317 23.9578 36.8317 23.9578 36.8317 23.9578C36.8317 23.9578 36.8317 23.9578 36.8317 23.9578H36.8317C36.8317 23.9578 36.8317 23.9578 36.8317 23.9578H36.8317C36.8317 23.9578 36.8317 23.9578 36.8317 23.9578H36.8317C36.8317 23.9578 36.8317 23.9578 36.8317 23.9578C36.8317 23.9578 36.8317 23.9578 36.8317 23.9578H36.8317C36.8317 23.9578 36.8317 23.9578 36.8317 23.9578H36.8317C36.8317 23.9578 36.8317 23.9578 36.8317 23.9578C36.8316 23.9578 36.8316 23.9578 36.8316 23.9578H36.8316C36.8316 23.9578 36.8316 23.9578 36.8316 23.9578C36.8316 23.9578 36.8316 23.9578 36.8316 23.9578H36.8316C36.8316 23.9578 36.8316 23.9578 36.8316 23.9578C36.8316 23.9578 36.8316 23.9578 36.8316 23.9578H36.8316C36.8316 23.9578 36.8316 23.9578 36.8316 23.9578C36.8316 23.9578 36.8316 23.9578 36.8316 23.9578C36.8316 23.9578 36.8316 23.9578 36.8316 23.9578H36.8316C36.8316 23.9578 36.8316 23.9578 36.8316 23.9578C36.8316 23.9578 36.8316 23.9578 36.8316 23.9578H36.8316H36.8316C36.8316 23.9578 36.8316 23.9578 36.8316 23.9578C36.8316 23.9578 36.8316 23.9578 36.8316 23.9578H36.8316H36.8316C36.8316 23.9578 36.8316 23.9578 36.8316 23.9578C36.8316 23.9578 36.8316 23.9578 36.8316 23.9578C36.8316 23.9578 36.8316 23.9578 36.8316 23.9578H36.8316C36.8316 23.9578 36.8316 23.9578 36.8316 23.9578C36.8316 23.9578 36.8316 23.9578 36.8316 23.9578C36.8316 23.9578 36.8316 23.9578 36.8316 23.9578C36.8315 23.9578 36.8315 23.9578 36.8315 23.9578H36.8315H36.8315C36.8315 23.9578 36.8315 23.9578 36.8315 23.9578C36.8315 23.9578 36.8315 23.9578 36.8315 23.9578C36.8315 23.9578 36.8315 23.9578 36.8315 23.9578C36.8315 23.9578 36.8315 23.9578 36.8315 23.9578H36.8315H36.8315C36.8315 23.9578 36.8315 23.9578 36.8315 23.9578C36.8315 23.9578 36.8315 23.9578 36.8315 23.9578C36.8315 23.9578 36.8315 23.9578 36.8315 23.9578C36.8315 23.9578 36.8315 23.9578 36.8315 23.9578H36.8315H36.8315H36.8315C36.8315 23.9578 36.8315 23.9578 36.8315 23.9578C36.8315 23.9578 36.8315 23.9578 36.8315 23.9578C36.8315 23.9578 36.8315 23.9578 36.8315 23.9578C36.8315 23.9578 36.8315 23.9578 36.8315 23.9578C36.8315 23.9578 36.8315 23.9578 36.8315 23.9578C36.8315 23.9578 36.8315 23.9578 36.8315 23.9578H36.8315H36.8315H36.8315C36.8315 23.9578 36.8315 23.9578 36.8315 23.9578C36.8315 23.9578 36.8315 23.9578 36.8314 23.9578C36.8314 23.9578 36.8314 23.9578 36.8314 23.9578C36.8314 23.9578 36.8314 23.9578 36.8314 23.9578C36.8314 23.9578 36.8314 23.9578 36.8314 23.9578C36.8314 23.9578 36.8314 23.9578 36.8314 23.9578C36.8314 23.9578 36.8314 23.9578 36.8314 23.9578C36.8314 23.9578 36.8314 23.9578 36.8314 23.9578C36.8314 23.9578 36.8314 23.9578 36.8314 23.9578H36.8314H36.8314H36.8314H36.8314H36.8314H36.8314H36.8314C36.8314 23.9578 36.8314 23.9578 36.8314 23.9578C36.8314 23.9578 36.8314 23.9578 36.8314 23.9578C36.8314 23.9578 36.8314 23.9578 36.8314 23.9578C36.8314 23.9578 36.8314 23.9578 36.8314 23.9578C36.8314 23.9578 36.8314 23.9578 36.8314 23.9578C36.8314 23.9578 36.8314 23.9578 36.8314 23.9578C36.8314 23.9578 36.8314 23.9578 36.8314 23.9578C36.8314 23.9578 36.8314 23.9578 36.8314 23.9578C36.8314 23.9578 36.8314 23.9578 36.8314 23.9578C36.8314 23.9578 36.8314 23.9578 36.8314 23.9578C36.8314 23.9578 36.8314 23.9578 36.8314 23.9578C36.8314 23.9578 36.8314 23.9578 36.8313 23.9578C36.8313 23.9578 36.8313 23.9578 36.8313 23.9578C36.8313 23.9578 36.8313 23.9578 36.8313 23.9578C36.8313 23.9578 36.8313 23.9578 36.8313 23.9578C36.8313 23.9578 36.8313 23.9578 36.8313 23.9578C36.8313 23.9578 36.8313 23.9578 36.8313 23.9578C36.8313 23.9578 36.8313 23.9578 36.8313 23.9578C36.8313 23.9578 36.8313 23.9578 36.8313 23.9578C36.8313 23.9578 36.8313 23.9578 36.8313 23.9578C36.8313 23.9578 36.8313 23.9578 36.8313 23.9578C36.8313 23.9578 36.8313 23.9578 36.8313 23.9578C36.8313 23.9578 36.8313 23.9578 36.8313 23.9578C36.8313 23.9578 36.8313 23.9578 36.8313 23.9578C36.8313 23.9578 36.8313 23.9578 36.8313 23.9578C36.8313 23.9578 36.8313 23.9578 36.8313 23.9578C36.8313 23.9578 36.8313 23.9578 36.8313 23.9578C36.8313 23.9578 36.8313 23.9578 36.8313 23.9578C36.8313 23.9578 36.8313 23.9578 36.8313 23.9578C36.8313 23.9578 36.8313 23.9578 36.8313 23.9578C36.8313 23.9578 36.8313 23.9578 36.8313 23.9578C36.8313 23.9578 36.8313 23.9578 36.8313 23.9578C36.8313 23.9578 36.8313 23.9578 36.8313 23.9578C36.8313 23.9578 36.8313 23.9578 36.8313 23.9578H36.8313H36.8313H36.8312H36.8312H36.8312H36.8312H36.8312H36.8312C36.8312 23.9578 36.8312 23.9578 36.8312 23.9578C36.8312 23.9578 36.8312 23.9578 36.8312 23.9578C36.8312 23.9578 36.8312 23.9578 36.8312 23.9578C36.8312 23.9578 36.8312 23.9578 36.8312 23.9578C36.8312 23.9578 36.8312 23.9578 36.8312 23.9578C36.8312 23.9578 36.8312 23.9578 36.8312 23.9578C36.8312 23.9578 36.8312 23.9578 36.8312 23.9578C36.8312 23.9578 36.8312 23.9578 36.8312 23.9578C36.8312 23.9578 36.8312 23.9578 36.8312 23.9578C36.8312 23.9578 36.8312 23.9578 36.8312 23.9578H36.8312H36.8312H36.8312H36.8312C36.8312 23.9578 36.8312 23.9578 36.8312 23.9578C36.8312 23.9578 36.8312 23.9578 36.8312 23.9578C36.8312 23.9578 36.8312 23.9578 36.8312 23.9578C36.8312 23.9578 36.8312 23.9578 36.8312 23.9578C36.8312 23.9578 36.8312 23.9578 36.8312 23.9578C36.8312 23.9578 36.8312 23.9578 36.8311 23.9578C36.8311 23.9578 36.8311 23.9578 36.8311 23.9578C36.8311 23.9578 36.8311 23.9578 36.8311 23.9578H36.8311H36.8311H36.8311C36.8311 23.9578 36.8311 23.9578 36.8311 23.9578C36.8311 23.9578 36.8311 23.9578 36.8311 23.9578C36.8311 23.9578 36.8311 23.9578 36.8311 23.9578C36.8311 23.9578 36.8311 23.9578 36.8311 23.9578C36.8311 23.9578 36.8311 23.9578 36.8311 23.9578C36.8311 23.9578 36.8311 23.9578 36.8311 23.9578H36.8311H36.8311H36.8311C36.8311 23.9578 36.8311 23.9578 36.8311 23.9578C36.8311 23.9578 36.8311 23.9578 36.8311 23.9578C36.8311 23.9578 36.8311 23.9578 36.8311 23.9578C36.8311 23.9578 36.8311 23.9578 36.8311 23.9578C36.8311 23.9578 36.8311 23.9578 36.8311 23.9578H36.8311H36.8311H36.8311C36.8311 23.9578 36.8311 23.9578 36.8311 23.9578C36.831 23.9578 36.831 23.9578 36.831 23.9578C36.831 23.9578 36.831 23.9578 36.831 23.9578C36.831 23.9578 36.831 23.9578 36.831 23.9578C36.831 23.9578 36.831 23.9578 36.831 23.9578H36.831H36.831H36.831C36.831 23.9578 36.831 23.9578 36.831 23.9578C36.831 23.9578 36.831 23.9578 36.831 23.9578C36.831 23.9578 36.831 23.9578 36.831 23.9578C36.831 23.9578 36.831 23.9578 36.831 23.9578H36.831H36.831C36.831 23.9578 36.831 23.9578 36.831 23.9578C36.831 23.9578 36.831 23.9578 36.831 23.9578C36.831 23.9578 36.831 23.9578 36.831 23.9578C36.831 23.9578 36.831 23.9578 36.831 23.9578H36.831H36.831H36.831C36.831 23.9578 36.831 23.9578 36.831 23.9578C36.831 23.9578 36.831 23.9578 36.831 23.9578C36.831 23.9578 36.831 23.9578 36.8309 23.9578H36.8309H36.8309H36.8309C36.8309 23.9578 36.8309 23.9578 36.8309 23.9578C36.8309 23.9578 36.8309 23.9578 36.8309 23.9578C36.8309 23.9578 36.8309 23.9578 36.8309 23.9578H36.8309H36.8309H36.8309C36.8309 23.9578 36.8309 23.9578 36.8309 23.9578C36.8309 23.9578 36.8309 23.9578 36.8309 23.9578C36.8309 23.9578 36.8309 23.9578 36.8309 23.9578H36.8309H36.8309C36.8309 23.9578 36.8309 23.9578 36.8309 23.9578C36.8309 23.9578 36.8309 23.9578 36.8309 23.9578C36.8309 23.9578 36.8309 23.9578 36.8309 23.9578H36.8309H36.8309C36.8309 23.9578 36.8309 23.9578 36.8309 23.9578C36.8309 23.9578 36.8309 23.9578 36.8309 23.9578C36.8309 23.9578 36.8309 23.9578 36.8308 23.9578H36.8308H36.8308H36.8308C36.8308 23.9578 36.8308 23.9578 36.8308 23.9578C36.8308 23.9578 36.8308 23.9578 36.8308 23.9578C36.8308 23.9578 36.8308 23.9578 36.8308 23.9578H36.8308H36.8308C36.8308 23.9578 36.8308 23.9578 36.8308 23.9578C36.8308 23.9578 36.8308 23.9578 36.8308 23.9578H36.8308H36.8308C36.8308 23.9578 36.8308 23.9578 36.8308 23.9578C36.8308 23.9578 36.8308 23.9578 36.8308 23.9578C36.8308 23.9578 36.8308 23.9578 36.8308 23.9578H36.8308H36.8308C36.8308 23.9578 36.8308 23.9578 36.8308 23.9578C36.8308 23.9578 36.8308 23.9578 36.8308 23.9578C36.8308 23.9578 36.8308 23.9578 36.8308 23.9578H36.8308H36.8307C36.8307 23.9578 36.8307 23.9578 36.8307 23.9578C36.8307 23.9578 36.8307 23.9578 36.8307 23.9578C36.8307 23.9578 36.8307 23.9578 36.8307 23.9578H36.8307C36.8307 23.9578 36.8307 23.9578 36.8307 23.9578C36.8307 23.9578 36.8307 23.9578 36.8307 23.9578C36.8307 23.9578 36.8307 23.9578 36.8307 23.9578H36.8307H36.8307C36.8307 23.9578 36.8307 23.9578 36.8307 23.9578C36.8307 23.9578 36.8307 23.9578 36.8307 23.9578H36.8307H36.8307C36.8307 23.9578 36.8307 23.9578 36.8307 23.9578C36.8307 23.9578 36.8307 23.9578 36.8307 23.9578C36.8307 23.9578 36.8307 23.9578 36.8307 23.9578H36.8307H36.8307C36.8307 23.9578 36.8307 23.9578 36.8307 23.9578C36.8307 23.9578 36.8307 23.9578 36.8307 23.9578H36.8307H36.8306C36.8306 23.9578 36.8306 23.9578 36.8306 23.9578C36.8306 23.9578 36.8306 23.9578 36.8306 23.9578H36.8306H36.8306C36.8306 23.9578 36.8306 23.9578 36.8306 23.9578C36.8306 23.9578 36.8306 23.9578 36.8306 23.9578H36.8306H36.8306C36.8306 23.9578 36.8306 23.9578 36.8306 23.9578C36.8306 23.9578 36.8306 23.9578 36.8306 23.9578C36.8306 23.9578 36.8306 23.9578 36.8306 23.9578H36.8306C36.8306 23.9578 36.8306 23.9578 36.8306 23.9578C36.8306 23.9578 36.8306 23.9578 36.8306 23.9578C36.8306 23.9578 36.8306 23.9578 36.8306 23.9578H36.8306C36.8306 23.9578 36.8306 23.9578 36.8306 23.9578C36.8306 23.9578 36.8306 23.9578 36.8306 23.9578C36.8306 23.9578 36.8306 23.9578 36.8306 23.9578H36.8306C36.8305 23.9578 36.8305 23.9578 36.8305 23.9578C36.8305 23.9578 36.8305 23.9578 36.8305 23.9578C36.8305 23.9578 36.8305 23.9578 36.8305 23.9578H36.8305C36.8305 23.9578 36.8305 23.9578 36.8305 23.9578C36.8305 23.9578 36.8305 23.9578 36.8305 23.9578C36.8305 23.9578 36.8305 23.9578 36.8305 23.9578H36.8305C36.8305 23.9578 36.8305 23.9578 36.8305 23.9578C36.8305 23.9578 36.8305 23.9578 36.8305 23.9578C36.8305 23.9578 36.8305 23.9578 36.8305 23.9578H36.8305C36.8305 23.9578 36.8305 23.9578 36.8305 23.9578C36.8305 23.9578 36.8305 23.9578 36.8305 23.9578C36.8305 23.9578 36.8305 23.9578 36.8305 23.9578H36.8305C36.8305 23.9578 36.8305 23.9578 36.8305 23.9578C36.8305 23.9578 36.8305 23.9578 36.8305 23.9578H36.8305H36.8305C36.8305 23.9578 36.8305 23.9578 36.8305 23.9578C36.8304 23.9578 36.8304 23.9578 36.8304 23.9578H36.8304H36.8304C36.8304 23.9578 36.8304 23.9578 36.8304 23.9578C36.8304 23.9578 36.8304 23.9578 36.8304 23.9578H36.8304H36.8304C36.8304 23.9578 36.8304 23.9578 36.8304 23.9578C36.8304 23.9578 36.8304 23.9578 36.8304 23.9578H36.8304H36.8304C36.8304 23.9578 36.8304 23.9578 36.8304 23.9578C36.8304 23.9578 36.8304 23.9578 36.8304 23.9578H36.8304C36.8304 23.9578 36.8304 23.9578 36.8304 23.9578C36.8304 23.9578 36.8304 23.9578 36.8304 23.9578C36.8304 23.9578 36.8304 23.9578 36.8304 23.9578H36.8304C36.8304 23.9578 36.8304 23.9578 36.8304 23.9578C36.8304 23.9578 36.8304 23.9578 36.8304 23.9578H36.8303H36.8303C36.8303 23.9578 36.8303 23.9578 36.8303 23.9578C36.8303 23.9578 36.8303 23.9578 36.8303 23.9578H36.8303H36.8303C36.8303 23.9578 36.8303 23.9578 36.8303 23.9578C36.8303 23.9578 36.8303 23.9578 36.8303 23.9578H36.8303H36.8303C36.8303 23.9578 36.8303 23.9578 36.8303 23.9578C36.8303 23.9578 36.8303 23.9578 36.8303 23.9578H36.8303C36.8303 23.9578 36.8303 23.9578 36.8303 23.9578C36.8303 23.9578 36.8303 23.9578 36.8303 23.9578C36.8303 23.9578 36.8303 23.9578 36.8303 23.9578V25.1189C36.8303 25.1189 36.8303 25.1189 36.8303 25.1189C36.8303 25.1189 36.8303 25.1189 36.8303 25.1189C36.8303 25.1189 36.8303 25.1189 36.8303 25.1189H36.8303C36.8303 25.1189 36.8303 25.1189 36.8303 25.1189C36.8303 25.1189 36.8303 25.1189 36.8303 25.1189H36.8303H36.8303C36.8303 25.1189 36.8303 25.1189 36.8303 25.1189C36.8303 25.1189 36.8303 25.1189 36.8303 25.1189H36.8303H36.8303C36.8303 25.1189 36.8303 25.1189 36.8303 25.1189C36.8303 25.1189 36.8303 25.1189 36.8303 25.1189H36.8303H36.8304C36.8304 25.1189 36.8304 25.1189 36.8304 25.1189C36.8304 25.1189 36.8304 25.1189 36.8304 25.1189H36.8304C36.8304 25.1189 36.8304 25.1189 36.8304 25.1189C36.8304 25.1189 36.8304 25.1189 36.8304 25.1189C36.8304 25.1189 36.8304 25.1189 36.8304 25.1189H36.8304C36.8304 25.1189 36.8304 25.1189 36.8304 25.1189C36.8304 25.1189 36.8304 25.1189 36.8304 25.1189H36.8304H36.8304C36.8304 25.1189 36.8304 25.1189 36.8304 25.1189C36.8304 25.1189 36.8304 25.1189 36.8304 25.1189H36.8304H36.8304C36.8304 25.1189 36.8304 25.1189 36.8304 25.1189C36.8304 25.1189 36.8304 25.1189 36.8304 25.1189H36.8304H36.8304C36.8304 25.1189 36.8304 25.1189 36.8305 25.1189C36.8305 25.1189 36.8305 25.1189 36.8305 25.1189H36.8305H36.8305C36.8305 25.1189 36.8305 25.1189 36.8305 25.1189C36.8305 25.1189 36.8305 25.1189 36.8305 25.1189H36.8305C36.8305 25.1189 36.8305 25.1189 36.8305 25.1189C36.8305 25.1189 36.8305 25.1189 36.8305 25.1189C36.8305 25.1189 36.8305 25.1189 36.8305 25.1189H36.8305C36.8305 25.1189 36.8305 25.1189 36.8305 25.1189C36.8305 25.1189 36.8305 25.1189 36.8305 25.1189C36.8305 25.1189 36.8305 25.1189 36.8305 25.1189H36.8305C36.8305 25.1189 36.8305 25.1189 36.8305 25.1189C36.8305 25.1189 36.8305 25.1189 36.8305 25.1189C36.8305 25.1189 36.8305 25.1189 36.8305 25.1189H36.8305C36.8305 25.1189 36.8305 25.1189 36.8305 25.1189C36.8305 25.1189 36.8305 25.1189 36.8305 25.1189C36.8305 25.1189 36.8305 25.1189 36.8306 25.1189H36.8306C36.8306 25.1189 36.8306 25.1189 36.8306 25.1189C36.8306 25.1189 36.8306 25.1189 36.8306 25.1189C36.8306 25.1189 36.8306 25.1189 36.8306 25.1189H36.8306C36.8306 25.1189 36.8306 25.1189 36.8306 25.1189C36.8306 25.1189 36.8306 25.1189 36.8306 25.1189C36.8306 25.1189 36.8306 25.1189 36.8306 25.1189H36.8306C36.8306 25.1189 36.8306 25.1189 36.8306 25.1189C36.8306 25.1189 36.8306 25.1189 36.8306 25.1189C36.8306 25.1189 36.8306 25.1189 36.8306 25.1189H36.8306H36.8306C36.8306 25.1189 36.8306 25.1189 36.8306 25.1189C36.8306 25.1189 36.8306 25.1189 36.8306 25.1189H36.8306H36.8306C36.8306 25.1189 36.8306 25.1189 36.8306 25.1189C36.8306 25.1189 36.8306 25.1189 36.8306 25.1189H36.8307H36.8307C36.8307 25.1189 36.8307 25.1189 36.8307 25.1189C36.8307 25.1189 36.8307 25.1189 36.8307 25.1189H36.8307H36.8307C36.8307 25.1189 36.8307 25.1189 36.8307 25.1189C36.8307 25.1189 36.8307 25.1189 36.8307 25.1189C36.8307 25.1189 36.8307 25.1189 36.8307 25.1189H36.8307H36.8307C36.8307 25.1189 36.8307 25.1189 36.8307 25.1189C36.8307 25.1189 36.8307 25.1189 36.8307 25.1189H36.8307H36.8307C36.8307 25.1189 36.8307 25.1189 36.8307 25.1189C36.8307 25.1189 36.8307 25.1189 36.8307 25.1189C36.8307 25.1189 36.8307 25.1189 36.8307 25.1189H36.8307C36.8307 25.1189 36.8307 25.1189 36.8307 25.1189C36.8307 25.1189 36.8307 25.1189 36.8307 25.1189C36.8307 25.1189 36.8307 25.1189 36.8307 25.1189H36.8308H36.8308C36.8308 25.1189 36.8308 25.1189 36.8308 25.1189C36.8308 25.1189 36.8308 25.1189 36.8308 25.1189C36.8308 25.1189 36.8308 25.1189 36.8308 25.1189H36.8308H36.8308C36.8308 25.1189 36.8308 25.1189 36.8308 25.1189C36.8308 25.1189 36.8308 25.1189 36.8308 25.1189C36.8308 25.1189 36.8308 25.1189 36.8308 25.1189H36.8308H36.8308C36.8308 25.1189 36.8308 25.1189 36.8308 25.1189C36.8308 25.1189 36.8308 25.1189 36.8308 25.1189H36.8308H36.8308C36.8308 25.1189 36.8308 25.1189 36.8308 25.1189C36.8308 25.1189 36.8308 25.1189 36.8308 25.1189C36.8308 25.1189 36.8308 25.1189 36.8308 25.1189H36.8308H36.8308H36.8308C36.8309 25.1189 36.8309 25.1189 36.8309 25.1189C36.8309 25.1189 36.8309 25.1189 36.8309 25.1189C36.8309 25.1189 36.8309 25.1189 36.8309 25.1189H36.8309H36.8309C36.8309 25.1189 36.8309 25.1189 36.8309 25.1189C36.8309 25.1189 36.8309 25.1189 36.8309 25.1189C36.8309 25.1189 36.8309 25.1189 36.8309 25.1189H36.8309H36.8309C36.8309 25.1189 36.8309 25.1189 36.8309 25.1189C36.8309 25.1189 36.8309 25.1189 36.8309 25.1189C36.8309 25.1189 36.8309 25.1189 36.8309 25.1189H36.8309H36.8309H36.8309C36.8309 25.1189 36.8309 25.1189 36.8309 25.1189C36.8309 25.1189 36.8309 25.1189 36.8309 25.1189C36.8309 25.1189 36.8309 25.1189 36.8309 25.1189H36.8309H36.8309H36.8309C36.831 25.1189 36.831 25.1189 36.831 25.1189C36.831 25.1189 36.831 25.1189 36.831 25.1189C36.831 25.1189 36.831 25.1189 36.831 25.1189H36.831H36.831H36.831C36.831 25.1189 36.831 25.1189 36.831 25.1189C36.831 25.1189 36.831 25.1189 36.831 25.1189C36.831 25.1189 36.831 25.1189 36.831 25.1189C36.831 25.1189 36.831 25.1189 36.831 25.1189H36.831H36.831C36.831 25.1189 36.831 25.1189 36.831 25.1189C36.831 25.1189 36.831 25.1189 36.831 25.1189C36.831 25.1189 36.831 25.1189 36.831 25.1189C36.831 25.1189 36.831 25.1189 36.831 25.1189H36.831H36.831H36.831C36.831 25.1189 36.831 25.1189 36.831 25.1189C36.831 25.1189 36.831 25.1189 36.831 25.1189C36.831 25.1189 36.831 25.1189 36.831 25.1189C36.831 25.1189 36.831 25.1189 36.8311 25.1189C36.8311 25.1189 36.8311 25.1189 36.8311 25.1189H36.8311H36.8311H36.8311C36.8311 25.1189 36.8311 25.1189 36.8311 25.1189C36.8311 25.1189 36.8311 25.1189 36.8311 25.1189C36.8311 25.1189 36.8311 25.1189 36.8311 25.1189C36.8311 25.1189 36.8311 25.1189 36.8311 25.1189C36.8311 25.1189 36.8311 25.1189 36.8311 25.1189H36.8311H36.8311H36.8311C36.8311 25.1189 36.8311 25.1189 36.8311 25.1189C36.8311 25.1189 36.8311 25.1189 36.8311 25.1189C36.8311 25.1189 36.8311 25.1189 36.8311 25.1189C36.8311 25.1189 36.8311 25.1189 36.8311 25.1189C36.8311 25.1189 36.8311 25.1189 36.8311 25.1189C36.8311 25.1189 36.8311 25.1189 36.8311 25.1189H36.8311H36.8311H36.8311C36.8311 25.1189 36.8311 25.1189 36.8311 25.1189C36.8311 25.1189 36.8311 25.1189 36.8311 25.1189C36.8312 25.1189 36.8312 25.1189 36.8312 25.1189C36.8312 25.1189 36.8312 25.1189 36.8312 25.1189C36.8312 25.1189 36.8312 25.1189 36.8312 25.1189C36.8312 25.1189 36.8312 25.1189 36.8312 25.1189C36.8312 25.1189 36.8312 25.1189 36.8312 25.1189C36.8312 25.1189 36.8312 25.1189 36.8312 25.1189H36.8312H36.8312H36.8312H36.8312C36.8312 25.1189 36.8312 25.1189 36.8312 25.1189C36.8312 25.1189 36.8312 25.1189 36.8312 25.1189C36.8312 25.1189 36.8312 25.1189 36.8312 25.1189C36.8312 25.1189 36.8312 25.1189 36.8312 25.1189C36.8312 25.1189 36.8312 25.1189 36.8312 25.1189C36.8312 25.1189 36.8312 25.1189 36.8312 25.1189C36.8312 25.1189 36.8312 25.1189 36.8312 25.1189C36.8312 25.1189 36.8312 25.1189 36.8312 25.1189C36.8312 25.1189 36.8312 25.1189 36.8312 25.1189C36.8312 25.1189 36.8312 25.1189 36.8312 25.1189H36.8312H36.8312H36.8312H36.8312H36.8312H36.8313H36.8313H36.8313C36.8313 25.1189 36.8313 25.1189 36.8313 25.1189C36.8313 25.1189 36.8313 25.1189 36.8313 25.1189C36.8313 25.1189 36.8313 25.1189 36.8313 25.1189C36.8313 25.1189 36.8313 25.1189 36.8313 25.1189C36.8313 25.1189 36.8313 25.1189 36.8313 25.1189C36.8313 25.1189 36.8313 25.1189 36.8313 25.1189C36.8313 25.1189 36.8313 25.1189 36.8313 25.1189C36.8313 25.1189 36.8313 25.1189 36.8313 25.1189C36.8313 25.1189 36.8313 25.1189 36.8313 25.1189C36.8313 25.1189 36.8313 25.1189 36.8313 25.1189C36.8313 25.1189 36.8313 25.1189 36.8313 25.1189C36.8313 25.1189 36.8313 25.1189 36.8313 25.1189C36.8313 25.1189 36.8313 25.1189 36.8313 25.1189C36.8313 25.1189 36.8313 25.1189 36.8313 25.1189C36.8313 25.1189 36.8313 25.1189 36.8313 25.1189C36.8313 25.1189 36.8313 25.1189 36.8313 25.1189C36.8313 25.1189 36.8313 25.1189 36.8313 25.1189C36.8313 25.1189 36.8313 25.1189 36.8313 25.1189C36.8313 25.1189 36.8313 25.1189 36.8313 25.1189C36.8313 25.1189 36.8313 25.1189 36.8313 25.1189C36.8313 25.1189 36.8313 25.1189 36.8313 25.1189C36.8313 25.1189 36.8313 25.1189 36.8313 25.1189C36.8314 25.1189 36.8314 25.1189 36.8314 25.1189C36.8314 25.1189 36.8314 25.1189 36.8314 25.1189C36.8314 25.1189 36.8314 25.1189 36.8314 25.1189C36.8314 25.1189 36.8314 25.1189 36.8314 25.1189C36.8314 25.1189 36.8314 25.1189 36.8314 25.1189C36.8314 25.1189 36.8314 25.1189 36.8314 25.1189C36.8314 25.1189 36.8314 25.1189 36.8314 25.1189C36.8314 25.1189 36.8314 25.1189 36.8314 25.1189C36.8314 25.1189 36.8314 25.1189 36.8314 25.1189C36.8314 25.1189 36.8314 25.1189 36.8314 25.1189C36.8314 25.1189 36.8314 25.1189 36.8314 25.1189C36.8314 25.1189 36.8314 25.1189 36.8314 25.1189H36.8314H36.8314H36.8314H36.8314H36.8314H36.8314H36.8314C36.8314 25.1189 36.8314 25.1189 36.8314 25.1189C36.8314 25.1189 36.8314 25.1189 36.8314 25.1189C36.8314 25.1189 36.8314 25.1189 36.8314 25.1189C36.8314 25.1189 36.8314 25.1189 36.8314 25.1189C36.8314 25.1189 36.8314 25.1189 36.8314 25.1189C36.8314 25.1189 36.8314 25.1189 36.8314 25.1189C36.8314 25.1189 36.8314 25.1189 36.8314 25.1189C36.8315 25.1189 36.8315 25.1189 36.8315 25.1189C36.8315 25.1189 36.8315 25.1189 36.8315 25.1189H36.8315H36.8315H36.8315C36.8315 25.1189 36.8315 25.1189 36.8315 25.1189C36.8315 25.1189 36.8315 25.1189 36.8315 25.1189C36.8315 25.1189 36.8315 25.1189 36.8315 25.1189C36.8315 25.1189 36.8315 25.1189 36.8315 25.1189C36.8315 25.1189 36.8315 25.1189 36.8315 25.1189C36.8315 25.1189 36.8315 25.1189 36.8315 25.1189H36.8315H36.8315H36.8315C36.8315 25.1189 36.8315 25.1189 36.8315 25.1189C36.8315 25.1189 36.8315 25.1189 36.8315 25.1189C36.8315 25.1189 36.8315 25.1189 36.8315 25.1189C36.8315 25.1189 36.8315 25.1189 36.8315 25.1189H36.8315H36.8315C36.8315 25.1189 36.8315 25.1189 36.8315 25.1189C36.8315 25.1189 36.8315 25.1189 36.8315 25.1189C36.8315 25.1189 36.8315 25.1189 36.8315 25.1189C36.8315 25.1189 36.8315 25.1189 36.8315 25.1189H36.8315H36.8315C36.8315 25.1189 36.8315 25.1189 36.8316 25.1189C36.8316 25.1189 36.8316 25.1189 36.8316 25.1189C36.8316 25.1189 36.8316 25.1189 36.8316 25.1189C36.8316 25.1189 36.8316 25.1189 36.8316 25.1189H36.8316C36.8316 25.1189 36.8316 25.1189 36.8316 25.1189C36.8316 25.1189 36.8316 25.1189 36.8316 25.1189C36.8316 25.1189 36.8316 25.1189 36.8316 25.1189H36.8316H36.8316C36.8316 25.1189 36.8316 25.1189 36.8316 25.1189C36.8316 25.1189 36.8316 25.1189 36.8316 25.1189H36.8316H36.8316C36.8316 25.1189 36.8316 25.1189 36.8316 25.1189C36.8316 25.1189 36.8316 25.1189 36.8316 25.1189H36.8316C36.8316 25.1189 36.8316 25.1189 36.8316 25.1189C36.8316 25.1189 36.8316 25.1189 36.8316 25.1189C36.8316 25.1189 36.8316 25.1189 36.8316 25.1189H36.8316C36.8316 25.1189 36.8316 25.1189 36.8316 25.1189C36.8316 25.1189 36.8316 25.1189 36.8316 25.1189H36.8316C36.8316 25.1189 36.8316 25.1189 36.8316 25.1189C36.8316 25.1189 36.8316 25.1189 36.8316 25.1189H36.8316C36.8316 25.1189 36.8316 25.1189 36.8317 25.1189C36.8317 25.1189 36.8317 25.1189 36.8317 25.1189H36.8317C36.8317 25.1189 36.8317 25.1189 36.8317 25.1189H36.8317C36.8317 25.1189 36.8317 25.1189 36.8317 25.1189C36.8317 25.1189 36.8317 25.1189 36.8317 25.1189H36.8317C36.8317 25.1189 36.8317 25.1189 36.8317 25.1189H36.8317C36.8317 25.1189 36.8317 25.1189 36.8317 25.1189H36.8317C36.8317 25.1189 36.8317 25.1189 36.8317 25.1189C36.8317 25.1189 36.8317 25.1189 36.8317 25.1189C36.8317 25.1189 36.8317 25.1189 36.8317 25.1189C36.8317 25.1189 36.8317 25.1189 36.8317 25.1189C36.8317 25.1189 36.8317 25.1189 36.8317 25.1189C36.8317 25.1189 36.8317 25.1189 36.8317 25.1189C36.8317 25.1189 36.8317 25.1189 36.8317 25.1189H36.8317C36.8317 25.1189 36.8317 25.1189 36.8317 25.1189H36.8317C36.8317 25.1189 36.8317 25.1189 36.8317 25.1189H36.8317C36.8317 25.1189 36.8317 25.1189 36.8317 25.1189C36.8317 25.1189 36.8317 25.1189 36.8317 25.1189H36.8318C36.8318 25.1189 36.8318 25.1189 36.8318 25.1189C36.8318 25.1189 36.8318 25.1189 36.8318 25.1189H36.8318C36.8318 25.1189 36.8318 25.1189 36.8318 25.1189C36.8318 25.1189 36.8318 25.1189 36.8318 25.1189C36.8318 25.1189 36.8318 25.1189 36.8318 25.1189H36.8318C36.8318 25.1189 36.8318 25.1189 36.8318 25.1189C36.8318 25.1189 36.8318 25.1189 36.8318 25.1189C36.8318 25.1189 36.8318 25.1189 36.8318 25.1189C36.8318 25.1189 36.8318 25.1189 36.8318 25.1189H36.8318H36.8318H36.8318H36.8318H36.8318H36.8318H36.8318H36.8318C36.8318 25.1189 36.8318 25.1189 36.8318 25.1189C36.8318 25.1189 36.8318 25.1189 36.8318 25.1189C36.8318 25.1189 36.8318 25.1189 36.8318 25.1189C36.8318 25.1189 36.8318 25.1189 36.8318 25.1189H36.8318C36.8318 25.1189 36.8318 25.1189 36.8318 25.1189C36.8319 25.1189 36.8319 25.1189 36.8319 25.1189C36.8319 25.1189 36.8319 25.1189 36.8319 25.1189C36.8319 25.1189 36.8319 25.1189 36.8319 25.1189C36.8319 25.1189 36.8319 25.1189 36.8319 25.1189H36.8319C36.8319 25.1189 36.8319 25.1189 36.8319 25.1189C36.8319 25.1189 36.8319 25.1189 36.8319 25.1189C36.8319 25.1189 36.8319 25.1189 36.8319 25.1189C36.8319 25.1189 36.8319 25.1189 36.8319 25.1189C36.8319 25.1189 36.8319 25.1189 36.8319 25.1189H36.8319C36.8319 25.1189 36.8319 25.1189 36.8319 25.1189C36.8319 25.1189 36.8319 25.1189 36.8319 25.1189H36.8319C36.8319 25.1189 36.8319 25.1189 36.8319 25.1189H36.8319H36.8319H36.8319C36.8319 25.1189 36.8319 25.1189 36.8319 25.1189C36.8319 25.1189 36.8319 25.1189 36.8319 25.1189C36.8319 25.1189 36.8319 25.1189 36.8319 24.5383ZM36.8303 23.9578H32.6023V25.1189H36.8303V23.9578ZM32.6023 23.9578C32.6639 23.9578 32.7207 23.9912 32.7505 24.0454L31.7331 24.605C31.9077 24.9225 32.2411 25.1189 32.6023 25.1189V23.9578ZM32.7498 24.044C32.7805 24.0996 32.7776 24.1653 32.7454 24.2165L31.7629 23.5976C31.571 23.9023 31.5582 24.289 31.7338 24.6063L32.7498 24.044ZM32.7451 24.217L34.9039 20.7981L33.9221 20.1782L31.7632 23.5971L32.7451 24.217ZM34.9032 20.7992C34.8727 20.8472 34.8197 20.8769 34.7611 20.8769V19.7158C34.4211 19.7158 34.1047 19.8904 33.9228 20.1771L34.9032 20.7992ZM34.7611 20.8769H34.7653V19.7158H34.7611V20.8769ZM34.7585 20.8769C34.7009 20.8762 34.6475 20.846 34.6174 20.7964L35.6095 20.1931C35.4312 19.8998 35.1144 19.7198 34.772 19.7158L34.7585 20.8769ZM34.6167 20.7953L36.6686 24.1855L37.6619 23.5842L35.6101 20.1941L34.6167 20.7953ZM36.6947 24.225C36.675 24.1976 36.6629 24.1624 36.6629 24.1268H37.824C37.824 23.9101 37.7543 23.7087 37.6358 23.5447L36.6947 24.225ZM36.6629 24.1268C36.6629 24.0333 36.7384 23.9578 36.8319 23.9578V25.1189C37.3797 25.1189 37.824 24.6746 37.824 24.1268H36.6629ZM33.3488 24.2959H36.1002V23.1347H33.3488V24.2959ZM36.5969 23.4147L35.2504 21.19L34.2571 21.7912L35.6035 24.0159L36.5969 23.4147ZM34.2629 21.1806L32.8579 23.4053L33.8397 24.0253L35.2446 21.8006L34.2629 21.1806ZM34.7611 30.7232C34.8197 30.7232 34.8727 30.7529 34.9032 30.801L33.9228 31.423C34.1047 31.7098 34.4211 31.8843 34.7611 31.8843V30.7232ZM34.9039 30.802L32.7451 27.3831L31.7632 28.003L33.9221 31.422L34.9039 30.802ZM32.7454 27.3836C32.7776 27.4348 32.7805 27.5005 32.7498 27.5561L31.7338 26.9938C31.5582 27.3111 31.571 27.6978 31.7629 28.0025L32.7454 27.3836ZM32.7505 27.5547C32.7207 27.6089 32.6639 27.6424 32.6023 27.6424V26.4812C32.2411 26.4812 31.9077 26.6777 31.7331 26.9952L32.7505 27.5547ZM32.6023 27.6424H36.8303V26.4812H32.6023V27.6424ZM36.8303 27.6424C36.7695 27.6424 36.7128 27.6091 36.6833 27.5566L37.695 26.9867C37.5189 26.6742 37.189 26.4812 36.8303 26.4812V27.6424ZM36.6827 27.5555C36.6532 27.5029 36.6539 27.4387 36.6856 27.3864L37.6795 27.9866C37.8642 27.6807 37.8699 27.2989 37.6956 26.9878L36.6827 27.5555ZM36.6858 27.3859L34.6167 30.8048L35.6101 31.406L37.6792 27.9871L36.6858 27.3859ZM34.6174 30.8038C34.6475 30.7542 34.7009 30.7239 34.7585 30.7232L34.772 31.8843C35.1144 31.8803 35.4312 31.7003 35.6095 31.4071L34.6174 30.8038ZM34.7653 30.7232C34.7653 30.7232 34.7653 30.7232 34.7653 30.7232C34.7652 30.7232 34.7652 30.7232 34.7652 30.7232C34.7652 30.7232 34.7652 30.7232 34.7652 30.7232C34.7652 30.7232 34.7652 30.7232 34.7652 30.7232C34.7652 30.7232 34.7652 30.7232 34.7652 30.7232C34.7652 30.7232 34.7652 30.7232 34.7652 30.7232C34.7652 30.7232 34.7652 30.7232 34.7652 30.7232C34.7652 30.7232 34.7652 30.7232 34.7652 30.7232C34.7652 30.7232 34.7652 30.7232 34.7652 30.7232C34.7652 30.7232 34.7652 30.7232 34.7652 30.7232C34.7652 30.7232 34.7652 30.7232 34.7652 30.7232C34.7652 30.7232 34.7651 30.7232 34.7651 30.7232C34.7651 30.7232 34.7651 30.7232 34.7651 30.7232C34.7651 30.7232 34.7651 30.7232 34.7651 30.7232C34.7651 30.7232 34.7651 30.7232 34.7651 30.7232C34.7651 30.7232 34.7651 30.7232 34.7651 30.7232C34.7651 30.7232 34.7651 30.7232 34.7651 30.7232C34.7651 30.7232 34.7651 30.7232 34.7651 30.7232C34.7651 30.7232 34.7651 30.7232 34.7651 30.7232C34.7651 30.7232 34.7651 30.7232 34.7651 30.7232C34.7651 30.7232 34.7651 30.7232 34.7651 30.7232C34.7651 30.7232 34.7651 30.7232 34.7651 30.7232C34.765 30.7232 34.765 30.7232 34.765 30.7232C34.765 30.7232 34.765 30.7232 34.765 30.7232C34.765 30.7232 34.765 30.7232 34.765 30.7232C34.765 30.7232 34.765 30.7232 34.765 30.7232C34.765 30.7232 34.765 30.7232 34.765 30.7232C34.765 30.7232 34.765 30.7232 34.765 30.7232C34.765 30.7232 34.765 30.7232 34.765 30.7232C34.765 30.7232 34.765 30.7232 34.765 30.7232C34.765 30.7232 34.765 30.7232 34.765 30.7232C34.765 30.7232 34.765 30.7232 34.765 30.7232C34.765 30.7232 34.765 30.7232 34.765 30.7232C34.7649 30.7232 34.7649 30.7232 34.7649 30.7232C34.7649 30.7232 34.7649 30.7232 34.7649 30.7232C34.7649 30.7232 34.7649 30.7232 34.7649 30.7232C34.7649 30.7232 34.7649 30.7232 34.7649 30.7232C34.7649 30.7232 34.7649 30.7232 34.7649 30.7232C34.7649 30.7232 34.7649 30.7232 34.7649 30.7232C34.7649 30.7232 34.7649 30.7232 34.7649 30.7232C34.7649 30.7232 34.7649 30.7232 34.7649 30.7232C34.7649 30.7232 34.7649 30.7232 34.7649 30.7232C34.7649 30.7232 34.7649 30.7232 34.7649 30.7232C34.7649 30.7232 34.7649 30.7232 34.7649 30.7232C34.7649 30.7232 34.7648 30.7232 34.7648 30.7232C34.7648 30.7232 34.7648 30.7232 34.7648 30.7232C34.7648 30.7232 34.7648 30.7232 34.7648 30.7232C34.7648 30.7232 34.7648 30.7232 34.7648 30.7232C34.7648 30.7232 34.7648 30.7232 34.7648 30.7232C34.7648 30.7232 34.7648 30.7232 34.7648 30.7232C34.7648 30.7232 34.7648 30.7232 34.7648 30.7232C34.7648 30.7232 34.7648 30.7232 34.7648 30.7232C34.7648 30.7232 34.7648 30.7232 34.7648 30.7232C34.7648 30.7232 34.7648 30.7232 34.7648 30.7232C34.7648 30.7232 34.7648 30.7232 34.7648 30.7232C34.7648 30.7232 34.7648 30.7232 34.7647 30.7232C34.7647 30.7232 34.7647 30.7232 34.7647 30.7232C34.7647 30.7232 34.7647 30.7232 34.7647 30.7232C34.7647 30.7232 34.7647 30.7232 34.7647 30.7232C34.7647 30.7232 34.7647 30.7232 34.7647 30.7232C34.7647 30.7232 34.7647 30.7232 34.7647 30.7232C34.7647 30.7232 34.7647 30.7232 34.7647 30.7232C34.7647 30.7232 34.7647 30.7232 34.7647 30.7232C34.7647 30.7232 34.7647 30.7232 34.7647 30.7232C34.7647 30.7232 34.7647 30.7232 34.7647 30.7232C34.7647 30.7232 34.7647 30.7232 34.7647 30.7232C34.7647 30.7232 34.7647 30.7232 34.7647 30.7232C34.7646 30.7232 34.7646 30.7232 34.7646 30.7232C34.7646 30.7232 34.7646 30.7232 34.7646 30.7232C34.7646 30.7232 34.7646 30.7232 34.7646 30.7232C34.7646 30.7232 34.7646 30.7232 34.7646 30.7232C34.7646 30.7232 34.7646 30.7232 34.7646 30.7232C34.7646 30.7232 34.7646 30.7232 34.7646 30.7232C34.7646 30.7232 34.7646 30.7232 34.7646 30.7232C34.7646 30.7232 34.7646 30.7232 34.7646 30.7232C34.7646 30.7232 34.7646 30.7232 34.7646 30.7232C34.7646 30.7232 34.7646 30.7232 34.7646 30.7232C34.7646 30.7232 34.7646 30.7232 34.7646 30.7232C34.7646 30.7232 34.7646 30.7232 34.7646 30.7232C34.7645 30.7232 34.7645 30.7232 34.7645 30.7232C34.7645 30.7232 34.7645 30.7232 34.7645 30.7232C34.7645 30.7232 34.7645 30.7232 34.7645 30.7232C34.7645 30.7232 34.7645 30.7232 34.7645 30.7232C34.7645 30.7232 34.7645 30.7232 34.7645 30.7232C34.7645 30.7232 34.7645 30.7232 34.7645 30.7232C34.7645 30.7232 34.7645 30.7232 34.7645 30.7232C34.7645 30.7232 34.7645 30.7232 34.7645 30.7232C34.7645 30.7232 34.7645 30.7232 34.7645 30.7232C34.7645 30.7232 34.7645 30.7232 34.7645 30.7232C34.7645 30.7232 34.7645 30.7232 34.7645 30.7232C34.7645 30.7232 34.7645 30.7232 34.7645 30.7232C34.7645 30.7232 34.7644 30.7232 34.7644 30.7232C34.7644 30.7232 34.7644 30.7232 34.7644 30.7232C34.7644 30.7232 34.7644 30.7232 34.7644 30.7232C34.7644 30.7232 34.7644 30.7232 34.7644 30.7232C34.7644 30.7232 34.7644 30.7232 34.7644 30.7232C34.7644 30.7232 34.7644 30.7232 34.7644 30.7232C34.7644 30.7232 34.7644 30.7232 34.7644 30.7232C34.7644 30.7232 34.7644 30.7232 34.7644 30.7232C34.7644 30.7232 34.7644 30.7232 34.7644 30.7232C34.7644 30.7232 34.7644 30.7232 34.7644 30.7232C34.7644 30.7232 34.7644 30.7232 34.7644 30.7232C34.7644 30.7232 34.7644 30.7232 34.7644 30.7232C34.7644 30.7232 34.7643 30.7232 34.7643 30.7232C34.7643 30.7232 34.7643 30.7232 34.7643 30.7232C34.7643 30.7232 34.7643 30.7232 34.7643 30.7232C34.7643 30.7232 34.7643 30.7232 34.7643 30.7232C34.7643 30.7232 34.7643 30.7232 34.7643 30.7232C34.7643 30.7232 34.7643 30.7232 34.7643 30.7232C34.7643 30.7232 34.7643 30.7232 34.7643 30.7232C34.7643 30.7232 34.7643 30.7232 34.7643 30.7232C34.7643 30.7232 34.7643 30.7232 34.7643 30.7232C34.7643 30.7232 34.7643 30.7232 34.7643 30.7232C34.7643 30.7232 34.7643 30.7232 34.7643 30.7232C34.7643 30.7232 34.7643 30.7232 34.7643 30.7232C34.7643 30.7232 34.7643 30.7232 34.7642 30.7232C34.7642 30.7232 34.7642 30.7232 34.7642 30.7232C34.7642 30.7232 34.7642 30.7232 34.7642 30.7232C34.7642 30.7232 34.7642 30.7232 34.7642 30.7232C34.7642 30.7232 34.7642 30.7232 34.7642 30.7232C34.7642 30.7232 34.7642 30.7232 34.7642 30.7232C34.7642 30.7232 34.7642 30.7232 34.7642 30.7232C34.7642 30.7232 34.7642 30.7232 34.7642 30.7232C34.7642 30.7232 34.7642 30.7232 34.7642 30.7232C34.7642 30.7232 34.7642 30.7232 34.7642 30.7232C34.7642 30.7232 34.7642 30.7232 34.7642 30.7232C34.7642 30.7232 34.7642 30.7232 34.7642 30.7232C34.7642 30.7232 34.7642 30.7232 34.7642 30.7232C34.7642 30.7232 34.7641 30.7232 34.7641 30.7232C34.7641 30.7232 34.7641 30.7232 34.7641 30.7232C34.7641 30.7232 34.7641 30.7232 34.7641 30.7232C34.7641 30.7232 34.7641 30.7232 34.7641 30.7232C34.7641 30.7232 34.7641 30.7232 34.7641 30.7232C34.7641 30.7232 34.7641 30.7232 34.7641 30.7232C34.7641 30.7232 34.7641 30.7232 34.7641 30.7232C34.7641 30.7232 34.7641 30.7232 34.7641 30.7232C34.7641 30.7232 34.7641 30.7232 34.7641 30.7232C34.7641 30.7232 34.7641 30.7232 34.7641 30.7232C34.7641 30.7232 34.7641 30.7232 34.7641 30.7232C34.7641 30.7232 34.7641 30.7232 34.7641 30.7232C34.7641 30.7232 34.7641 30.7232 34.7641 30.7232C34.764 30.7232 34.764 30.7232 34.764 30.7232C34.764 30.7232 34.764 30.7232 34.764 30.7232C34.764 30.7232 34.764 30.7232 34.764 30.7232C34.764 30.7232 34.764 30.7232 34.764 30.7232C34.764 30.7232 34.764 30.7232 34.764 30.7232C34.764 30.7232 34.764 30.7232 34.764 30.7232C34.764 30.7232 34.764 30.7232 34.764 30.7232C34.764 30.7232 34.764 30.7232 34.764 30.7232C34.764 30.7232 34.764 30.7232 34.764 30.7232C34.764 30.7232 34.764 30.7232 34.764 30.7232C34.764 30.7232 34.764 30.7232 34.764 30.7232C34.764 30.7232 34.764 30.7232 34.764 30.7232C34.764 30.7232 34.764 30.7232 34.764 30.7232C34.764 30.7232 34.764 30.7232 34.7639 30.7232C34.7639 30.7232 34.7639 30.7232 34.7639 30.7232C34.7639 30.7232 34.7639 30.7232 34.7639 30.7232C34.7639 30.7232 34.7639 30.7232 34.7639 30.7232C34.7639 30.7232 34.7639 30.7232 34.7639 30.7232C34.7639 30.7232 34.7639 30.7232 34.7639 30.7232C34.7639 30.7232 34.7639 30.7232 34.7639 30.7232C34.7639 30.7232 34.7639 30.7232 34.7639 30.7232C34.7639 30.7232 34.7639 30.7232 34.7639 30.7232C34.7639 30.7232 34.7639 30.7232 34.7639 30.7232C34.7639 30.7232 34.7639 30.7232 34.7639 30.7232C34.7639 30.7232 34.7639 30.7232 34.7639 30.7232C34.7639 30.7232 34.7639 30.7232 34.7639 30.7232C34.7639 30.7232 34.7639 30.7232 34.7638 30.7232C34.7638 30.7232 34.7638 30.7232 34.7638 30.7232C34.7638 30.7232 34.7638 30.7232 34.7638 30.7232C34.7638 30.7232 34.7638 30.7232 34.7638 30.7232C34.7638 30.7232 34.7638 30.7232 34.7638 30.7232C34.7638 30.7232 34.7638 30.7232 34.7638 30.7232C34.7638 30.7232 34.7638 30.7232 34.7638 30.7232C34.7638 30.7232 34.7638 30.7232 34.7638 30.7232H34.7638C34.7638 30.7232 34.7638 30.7232 34.7638 30.7232C34.7638 30.7232 34.7638 30.7232 34.7638 30.7232C34.7638 30.7232 34.7638 30.7232 34.7638 30.7232C34.7638 30.7232 34.7638 30.7232 34.7638 30.7232C34.7638 30.7232 34.7638 30.7232 34.7638 30.7232C34.7637 30.7232 34.7637 30.7232 34.7637 30.7232C34.7637 30.7232 34.7637 30.7232 34.7637 30.7232C34.7637 30.7232 34.7637 30.7232 34.7637 30.7232C34.7637 30.7232 34.7637 30.7232 34.7637 30.7232C34.7637 30.7232 34.7637 30.7232 34.7637 30.7232C34.7637 30.7232 34.7637 30.7232 34.7637 30.7232C34.7637 30.7232 34.7637 30.7232 34.7637 30.7232C34.7637 30.7232 34.7637 30.7232 34.7637 30.7232C34.7637 30.7232 34.7637 30.7232 34.7637 30.7232C34.7637 30.7232 34.7637 30.7232 34.7637 30.7232C34.7637 30.7232 34.7637 30.7232 34.7637 30.7232C34.7637 30.7232 34.7637 30.7232 34.7637 30.7232C34.7637 30.7232 34.7637 30.7232 34.7637 30.7232H34.7636C34.7636 30.7232 34.7636 30.7232 34.7636 30.7232C34.7636 30.7232 34.7636 30.7232 34.7636 30.7232C34.7636 30.7232 34.7636 30.7232 34.7636 30.7232C34.7636 30.7232 34.7636 30.7232 34.7636 30.7232C34.7636 30.7232 34.7636 30.7232 34.7636 30.7232C34.7636 30.7232 34.7636 30.7232 34.7636 30.7232C34.7636 30.7232 34.7636 30.7232 34.7636 30.7232C34.7636 30.7232 34.7636 30.7232 34.7636 30.7232C34.7636 30.7232 34.7636 30.7232 34.7636 30.7232C34.7636 30.7232 34.7636 30.7232 34.7636 30.7232C34.7636 30.7232 34.7636 30.7232 34.7636 30.7232C34.7636 30.7232 34.7636 30.7232 34.7636 30.7232H34.7636C34.7635 30.7232 34.7635 30.7232 34.7635 30.7232C34.7635 30.7232 34.7635 30.7232 34.7635 30.7232C34.7635 30.7232 34.7635 30.7232 34.7635 30.7232C34.7635 30.7232 34.7635 30.7232 34.7635 30.7232C34.7635 30.7232 34.7635 30.7232 34.7635 30.7232C34.7635 30.7232 34.7635 30.7232 34.7635 30.7232C34.7635 30.7232 34.7635 30.7232 34.7635 30.7232C34.7635 30.7232 34.7635 30.7232 34.7635 30.7232C34.7635 30.7232 34.7635 30.7232 34.7635 30.7232C34.7635 30.7232 34.7635 30.7232 34.7635 30.7232H34.7635C34.7635 30.7232 34.7635 30.7232 34.7635 30.7232C34.7635 30.7232 34.7635 30.7232 34.7635 30.7232C34.7635 30.7232 34.7635 30.7232 34.7635 30.7232C34.7634 30.7232 34.7634 30.7232 34.7634 30.7232C34.7634 30.7232 34.7634 30.7232 34.7634 30.7232C34.7634 30.7232 34.7634 30.7232 34.7634 30.7232C34.7634 30.7232 34.7634 30.7232 34.7634 30.7232C34.7634 30.7232 34.7634 30.7232 34.7634 30.7232C34.7634 30.7232 34.7634 30.7232 34.7634 30.7232C34.7634 30.7232 34.7634 30.7232 34.7634 30.7232H34.7634C34.7634 30.7232 34.7634 30.7232 34.7634 30.7232C34.7634 30.7232 34.7634 30.7232 34.7634 30.7232C34.7634 30.7232 34.7634 30.7232 34.7634 30.7232C34.7634 30.7232 34.7634 30.7232 34.7634 30.7232C34.7634 30.7232 34.7634 30.7232 34.7634 30.7232C34.7634 30.7232 34.7634 30.7232 34.7633 30.7232C34.7633 30.7232 34.7633 30.7232 34.7633 30.7232C34.7633 30.7232 34.7633 30.7232 34.7633 30.7232C34.7633 30.7232 34.7633 30.7232 34.7633 30.7232H34.7633C34.7633 30.7232 34.7633 30.7232 34.7633 30.7232C34.7633 30.7232 34.7633 30.7232 34.7633 30.7232C34.7633 30.7232 34.7633 30.7232 34.7633 30.7232C34.7633 30.7232 34.7633 30.7232 34.7633 30.7232C34.7633 30.7232 34.7633 30.7232 34.7633 30.7232C34.7633 30.7232 34.7633 30.7232 34.7633 30.7232C34.7633 30.7232 34.7633 30.7232 34.7633 30.7232C34.7633 30.7232 34.7633 30.7232 34.7633 30.7232C34.7633 30.7232 34.7633 30.7232 34.7633 30.7232H34.7632C34.7632 30.7232 34.7632 30.7232 34.7632 30.7232C34.7632 30.7232 34.7632 30.7232 34.7632 30.7232C34.7632 30.7232 34.7632 30.7232 34.7632 30.7232C34.7632 30.7232 34.7632 30.7232 34.7632 30.7232C34.7632 30.7232 34.7632 30.7232 34.7632 30.7232C34.7632 30.7232 34.7632 30.7232 34.7632 30.7232C34.7632 30.7232 34.7632 30.7232 34.7632 30.7232C34.7632 30.7232 34.7632 30.7232 34.7632 30.7232H34.7632C34.7632 30.7232 34.7632 30.7232 34.7632 30.7232C34.7632 30.7232 34.7632 30.7232 34.7632 30.7232C34.7632 30.7232 34.7632 30.7232 34.7632 30.7232C34.7632 30.7232 34.7632 30.7232 34.7632 30.7232C34.7631 30.7232 34.7631 30.7232 34.7631 30.7232C34.7631 30.7232 34.7631 30.7232 34.7631 30.7232C34.7631 30.7232 34.7631 30.7232 34.7631 30.7232C34.7631 30.7232 34.7631 30.7232 34.7631 30.7232C34.7631 30.7232 34.7631 30.7232 34.7631 30.7232H34.7631C34.7631 30.7232 34.7631 30.7232 34.7631 30.7232C34.7631 30.7232 34.7631 30.7232 34.7631 30.7232C34.7631 30.7232 34.7631 30.7232 34.7631 30.7232C34.7631 30.7232 34.7631 30.7232 34.7631 30.7232C34.7631 30.7232 34.7631 30.7232 34.7631 30.7232C34.7631 30.7232 34.7631 30.7232 34.7631 30.7232C34.7631 30.7232 34.7631 30.7232 34.7631 30.7232C34.7631 30.7232 34.7631 30.7232 34.7631 30.7232C34.7631 30.7232 34.763 30.7232 34.763 30.7232H34.763C34.763 30.7232 34.763 30.7232 34.763 30.7232C34.763 30.7232 34.763 30.7232 34.763 30.7232C34.763 30.7232 34.763 30.7232 34.763 30.7232C34.763 30.7232 34.763 30.7232 34.763 30.7232C34.763 30.7232 34.763 30.7232 34.763 30.7232C34.763 30.7232 34.763 30.7232 34.763 30.7232C34.763 30.7232 34.763 30.7232 34.763 30.7232C34.763 30.7232 34.763 30.7232 34.763 30.7232C34.763 30.7232 34.763 30.7232 34.763 30.7232H34.763C34.763 30.7232 34.763 30.7232 34.763 30.7232C34.763 30.7232 34.763 30.7232 34.763 30.7232C34.7629 30.7232 34.7629 30.7232 34.7629 30.7232C34.7629 30.7232 34.7629 30.7232 34.7629 30.7232C34.7629 30.7232 34.7629 30.7232 34.7629 30.7232C34.7629 30.7232 34.7629 30.7232 34.7629 30.7232C34.7629 30.7232 34.7629 30.7232 34.7629 30.7232C34.7629 30.7232 34.7629 30.7232 34.7629 30.7232C34.7629 30.7232 34.7629 30.7232 34.7629 30.7232C34.7629 30.7232 34.7629 30.7232 34.7629 30.7232H34.7629C34.7629 30.7232 34.7629 30.7232 34.7629 30.7232C34.7629 30.7232 34.7629 30.7232 34.7629 30.7232C34.7629 30.7232 34.7629 30.7232 34.7629 30.7232C34.7629 30.7232 34.7629 30.7232 34.7629 30.7232C34.7629 30.7232 34.7629 30.7232 34.7628 30.7232C34.7628 30.7232 34.7628 30.7232 34.7628 30.7232C34.7628 30.7232 34.7628 30.7232 34.7628 30.7232C34.7628 30.7232 34.7628 30.7232 34.7628 30.7232C34.7628 30.7232 34.7628 30.7232 34.7628 30.7232C34.7628 30.7232 34.7628 30.7232 34.7628 30.7232C34.7628 30.7232 34.7628 30.7232 34.7628 30.7232C34.7628 30.7232 34.7628 30.7232 34.7628 30.7232H34.7628C34.7628 30.7232 34.7628 30.7232 34.7628 30.7232C34.7628 30.7232 34.7628 30.7232 34.7628 30.7232C34.7628 30.7232 34.7628 30.7232 34.7628 30.7232C34.7628 30.7232 34.7628 30.7232 34.7628 30.7232C34.7628 30.7232 34.7628 30.7232 34.7628 30.7232C34.7627 30.7232 34.7627 30.7232 34.7627 30.7232C34.7627 30.7232 34.7627 30.7232 34.7627 30.7232C34.7627 30.7232 34.7627 30.7232 34.7627 30.7232C34.7627 30.7232 34.7627 30.7232 34.7627 30.7232C34.7627 30.7232 34.7627 30.7232 34.7627 30.7232C34.7627 30.7232 34.7627 30.7232 34.7627 30.7232C34.7627 30.7232 34.7627 30.7232 34.7627 30.7232C34.7627 30.7232 34.7627 30.7232 34.7627 30.7232C34.7627 30.7232 34.7627 30.7232 34.7627 30.7232H34.7627C34.7627 30.7232 34.7627 30.7232 34.7627 30.7232C34.7627 30.7232 34.7627 30.7232 34.7627 30.7232C34.7627 30.7232 34.7627 30.7232 34.7627 30.7232C34.7627 30.7232 34.7626 30.7232 34.7626 30.7232C34.7626 30.7232 34.7626 30.7232 34.7626 30.7232C34.7626 30.7232 34.7626 30.7232 34.7626 30.7232C34.7626 30.7232 34.7626 30.7232 34.7626 30.7232C34.7626 30.7232 34.7626 30.7232 34.7626 30.7232C34.7626 30.7232 34.7626 30.7232 34.7626 30.7232C34.7626 30.7232 34.7626 30.7232 34.7626 30.7232C34.7626 30.7232 34.7626 30.7232 34.7626 30.7232C34.7626 30.7232 34.7626 30.7232 34.7626 30.7232C34.7626 30.7232 34.7626 30.7232 34.7626 30.7232C34.7626 30.7232 34.7626 30.7232 34.7626 30.7232C34.7626 30.7232 34.7626 30.7232 34.7626 30.7232C34.7626 30.7232 34.7626 30.7232 34.7626 30.7232C34.7626 30.7232 34.7626 30.7232 34.7626 30.7232C34.7626 30.7232 34.7625 30.7232 34.7625 30.7232C34.7625 30.7232 34.7625 30.7232 34.7625 30.7232C34.7625 30.7232 34.7625 30.7232 34.7625 30.7232C34.7625 30.7232 34.7625 30.7232 34.7625 30.7232C34.7625 30.7232 34.7625 30.7232 34.7625 30.7232C34.7625 30.7232 34.7625 30.7232 34.7625 30.7232C34.7625 30.7232 34.7625 30.7232 34.7625 30.7232C34.7625 30.7232 34.7625 30.7232 34.7625 30.7232C34.7625 30.7232 34.7625 30.7232 34.7625 30.7232C34.7625 30.7232 34.7625 30.7232 34.7625 30.7232C34.7625 30.7232 34.7625 30.7232 34.7625 30.7232C34.7625 30.7232 34.7625 30.7232 34.7625 30.7232C34.7625 30.7232 34.7625 30.7232 34.7625 30.7232C34.7625 30.7232 34.7624 30.7232 34.7624 30.7232C34.7624 30.7232 34.7624 30.7232 34.7624 30.7232C34.7624 30.7232 34.7624 30.7232 34.7624 30.7232C34.7624 30.7232 34.7624 30.7232 34.7624 30.7232C34.7624 30.7232 34.7624 30.7232 34.7624 30.7232C34.7624 30.7232 34.7624 30.7232 34.7624 30.7232C34.7624 30.7232 34.7624 30.7232 34.7624 30.7232C34.7624 30.7232 34.7624 30.7232 34.7624 30.7232C34.7624 30.7232 34.7624 30.7232 34.7624 30.7232C34.7624 30.7232 34.7624 30.7232 34.7624 30.7232C34.7624 30.7232 34.7624 30.7232 34.7624 30.7232C34.7624 30.7232 34.7624 30.7232 34.7624 30.7232C34.7624 30.7232 34.7624 30.7232 34.7624 30.7232C34.7624 30.7232 34.7623 30.7232 34.7623 30.7232C34.7623 30.7232 34.7623 30.7232 34.7623 30.7232C34.7623 30.7232 34.7623 30.7232 34.7623 30.7232C34.7623 30.7232 34.7623 30.7232 34.7623 30.7232C34.7623 30.7232 34.7623 30.7232 34.7623 30.7232C34.7623 30.7232 34.7623 30.7232 34.7623 30.7232C34.7623 30.7232 34.7623 30.7232 34.7623 30.7232C34.7623 30.7232 34.7623 30.7232 34.7623 30.7232C34.7623 30.7232 34.7623 30.7232 34.7623 30.7232C34.7623 30.7232 34.7623 30.7232 34.7623 30.7232C34.7623 30.7232 34.7623 30.7232 34.7623 30.7232C34.7623 30.7232 34.7623 30.7232 34.7623 30.7232C34.7623 30.7232 34.7623 30.7232 34.7623 30.7232C34.7622 30.7232 34.7622 30.7232 34.7622 30.7232C34.7622 30.7232 34.7622 30.7232 34.7622 30.7232C34.7622 30.7232 34.7622 30.7232 34.7622 30.7232C34.7622 30.7232 34.7622 30.7232 34.7622 30.7232C34.7622 30.7232 34.7622 30.7232 34.7622 30.7232C34.7622 30.7232 34.7622 30.7232 34.7622 30.7232C34.7622 30.7232 34.7622 30.7232 34.7622 30.7232C34.7622 30.7232 34.7622 30.7232 34.7622 30.7232C34.7622 30.7232 34.7622 30.7232 34.7622 30.7232C34.7622 30.7232 34.7622 30.7232 34.7622 30.7232C34.7622 30.7232 34.7622 30.7232 34.7622 30.7232C34.7622 30.7232 34.7622 30.7232 34.7622 30.7232C34.7622 30.7232 34.7622 30.7232 34.7621 30.7232C34.7621 30.7232 34.7621 30.7232 34.7621 30.7232C34.7621 30.7232 34.7621 30.7232 34.7621 30.7232C34.7621 30.7232 34.7621 30.7232 34.7621 30.7232C34.7621 30.7232 34.7621 30.7232 34.7621 30.7232C34.7621 30.7232 34.7621 30.7232 34.7621 30.7232C34.7621 30.7232 34.7621 30.7232 34.7621 30.7232C34.7621 30.7232 34.7621 30.7232 34.7621 30.7232C34.7621 30.7232 34.7621 30.7232 34.7621 30.7232C34.7621 30.7232 34.7621 30.7232 34.7621 30.7232C34.7621 30.7232 34.7621 30.7232 34.7621 30.7232C34.7621 30.7232 34.7621 30.7232 34.7621 30.7232C34.7621 30.7232 34.7621 30.7232 34.7621 30.7232C34.7621 30.7232 34.762 30.7232 34.762 30.7232C34.762 30.7232 34.762 30.7232 34.762 30.7232C34.762 30.7232 34.762 30.7232 34.762 30.7232C34.762 30.7232 34.762 30.7232 34.762 30.7232C34.762 30.7232 34.762 30.7232 34.762 30.7232C34.762 30.7232 34.762 30.7232 34.762 30.7232C34.762 30.7232 34.762 30.7232 34.762 30.7232C34.762 30.7232 34.762 30.7232 34.762 30.7232C34.762 30.7232 34.762 30.7232 34.762 30.7232C34.762 30.7232 34.762 30.7232 34.762 30.7232C34.762 30.7232 34.762 30.7232 34.762 30.7232C34.762 30.7232 34.762 30.7232 34.762 30.7232C34.762 30.7232 34.762 30.7232 34.7619 30.7232C34.7619 30.7232 34.7619 30.7232 34.7619 30.7232C34.7619 30.7232 34.7619 30.7232 34.7619 30.7232C34.7619 30.7232 34.7619 30.7232 34.7619 30.7232C34.7619 30.7232 34.7619 30.7232 34.7619 30.7232C34.7619 30.7232 34.7619 30.7232 34.7619 30.7232C34.7619 30.7232 34.7619 30.7232 34.7619 30.7232C34.7619 30.7232 34.7619 30.7232 34.7619 30.7232C34.7619 30.7232 34.7619 30.7232 34.7619 30.7232C34.7619 30.7232 34.7619 30.7232 34.7619 30.7232C34.7619 30.7232 34.7619 30.7232 34.7619 30.7232C34.7619 30.7232 34.7619 30.7232 34.7619 30.7232C34.7619 30.7232 34.7618 30.7232 34.7618 30.7232C34.7618 30.7232 34.7618 30.7232 34.7618 30.7232C34.7618 30.7232 34.7618 30.7232 34.7618 30.7232C34.7618 30.7232 34.7618 30.7232 34.7618 30.7232C34.7618 30.7232 34.7618 30.7232 34.7618 30.7232C34.7618 30.7232 34.7618 30.7232 34.7618 30.7232C34.7618 30.7232 34.7618 30.7232 34.7618 30.7232C34.7618 30.7232 34.7618 30.7232 34.7618 30.7232C34.7618 30.7232 34.7618 30.7232 34.7618 30.7232C34.7618 30.7232 34.7618 30.7232 34.7618 30.7232C34.7618 30.7232 34.7618 30.7232 34.7618 30.7232C34.7618 30.7232 34.7618 30.7232 34.7618 30.7232C34.7617 30.7232 34.7617 30.7232 34.7617 30.7232C34.7617 30.7232 34.7617 30.7232 34.7617 30.7232C34.7617 30.7232 34.7617 30.7232 34.7617 30.7232C34.7617 30.7232 34.7617 30.7232 34.7617 30.7232C34.7617 30.7232 34.7617 30.7232 34.7617 30.7232C34.7617 30.7232 34.7617 30.7232 34.7617 30.7232C34.7617 30.7232 34.7617 30.7232 34.7617 30.7232C34.7617 30.7232 34.7617 30.7232 34.7617 30.7232C34.7617 30.7232 34.7617 30.7232 34.7617 30.7232C34.7617 30.7232 34.7617 30.7232 34.7617 30.7232C34.7617 30.7232 34.7617 30.7232 34.7617 30.7232C34.7617 30.7232 34.7617 30.7232 34.7617 30.7232C34.7616 30.7232 34.7616 30.7232 34.7616 30.7232C34.7616 30.7232 34.7616 30.7232 34.7616 30.7232C34.7616 30.7232 34.7616 30.7232 34.7616 30.7232C34.7616 30.7232 34.7616 30.7232 34.7616 30.7232C34.7616 30.7232 34.7616 30.7232 34.7616 30.7232C34.7616 30.7232 34.7616 30.7232 34.7616 30.7232C34.7616 30.7232 34.7616 30.7232 34.7616 30.7232C34.7616 30.7232 34.7616 30.7232 34.7616 30.7232C34.7616 30.7232 34.7616 30.7232 34.7616 30.7232C34.7616 30.7232 34.7616 30.7232 34.7616 30.7232C34.7616 30.7232 34.7616 30.7232 34.7616 30.7232C34.7616 30.7232 34.7615 30.7232 34.7615 30.7232C34.7615 30.7232 34.7615 30.7232 34.7615 30.7232C34.7615 30.7232 34.7615 30.7232 34.7615 30.7232C34.7615 30.7232 34.7615 30.7232 34.7615 30.7232C34.7615 30.7232 34.7615 30.7232 34.7615 30.7232C34.7615 30.7232 34.7615 30.7232 34.7615 30.7232C34.7615 30.7232 34.7615 30.7232 34.7615 30.7232C34.7615 30.7232 34.7615 30.7232 34.7615 30.7232C34.7615 30.7232 34.7615 30.7232 34.7615 30.7232C34.7615 30.7232 34.7615 30.7232 34.7615 30.7232C34.7615 30.7232 34.7615 30.7232 34.7615 30.7232C34.7615 30.7232 34.7614 30.7232 34.7614 30.7232C34.7614 30.7232 34.7614 30.7232 34.7614 30.7232C34.7614 30.7232 34.7614 30.7232 34.7614 30.7232C34.7614 30.7232 34.7614 30.7232 34.7614 30.7232C34.7614 30.7232 34.7614 30.7232 34.7614 30.7232C34.7614 30.7232 34.7614 30.7232 34.7614 30.7232C34.7614 30.7232 34.7614 30.7232 34.7614 30.7232C34.7614 30.7232 34.7614 30.7232 34.7614 30.7232C34.7614 30.7232 34.7614 30.7232 34.7614 30.7232C34.7614 30.7232 34.7614 30.7232 34.7614 30.7232C34.7614 30.7232 34.7614 30.7232 34.7614 30.7232C34.7614 30.7232 34.7613 30.7232 34.7613 30.7232C34.7613 30.7232 34.7613 30.7232 34.7613 30.7232C34.7613 30.7232 34.7613 30.7232 34.7613 30.7232C34.7613 30.7232 34.7613 30.7232 34.7613 30.7232C34.7613 30.7232 34.7613 30.7232 34.7613 30.7232C34.7613 30.7232 34.7613 30.7232 34.7613 30.7232C34.7613 30.7232 34.7613 30.7232 34.7613 30.7232C34.7613 30.7232 34.7613 30.7232 34.7613 30.7232C34.7613 30.7232 34.7613 30.7232 34.7613 30.7232C34.7613 30.7232 34.7613 30.7232 34.7613 30.7232C34.7613 30.7232 34.7613 30.7232 34.7612 30.7232C34.7612 30.7232 34.7612 30.7232 34.7612 30.7232C34.7612 30.7232 34.7612 30.7232 34.7612 30.7232C34.7612 30.7232 34.7612 30.7232 34.7612 30.7232C34.7612 30.7232 34.7612 30.7232 34.7612 30.7232C34.7612 30.7232 34.7612 30.7232 34.7612 30.7232C34.7612 30.7232 34.7612 30.7232 34.7612 30.7232C34.7612 30.7232 34.7612 30.7232 34.7612 30.7232C34.7612 30.7232 34.7612 30.7232 34.7612 30.7232C34.7612 30.7232 34.7612 30.7232 34.7612 30.7232C34.7612 30.7232 34.7612 30.7232 34.7612 30.7232C34.7612 30.7232 34.7612 30.7232 34.7611 30.7232V31.8843C34.7612 31.8843 34.7612 31.8843 34.7612 31.8843C34.7612 31.8843 34.7612 31.8843 34.7612 31.8843C34.7612 31.8843 34.7612 31.8843 34.7612 31.8843C34.7612 31.8843 34.7612 31.8843 34.7612 31.8843C34.7612 31.8843 34.7612 31.8843 34.7612 31.8843C34.7612 31.8843 34.7612 31.8843 34.7612 31.8843C34.7612 31.8843 34.7612 31.8843 34.7612 31.8843C34.7612 31.8843 34.7612 31.8843 34.7612 31.8843C34.7612 31.8843 34.7612 31.8843 34.7612 31.8843C34.7612 31.8843 34.7612 31.8843 34.7612 31.8843C34.7612 31.8843 34.7612 31.8843 34.7612 31.8843C34.7613 31.8843 34.7613 31.8843 34.7613 31.8843C34.7613 31.8843 34.7613 31.8843 34.7613 31.8843C34.7613 31.8843 34.7613 31.8843 34.7613 31.8843C34.7613 31.8843 34.7613 31.8843 34.7613 31.8843C34.7613 31.8843 34.7613 31.8843 34.7613 31.8843C34.7613 31.8843 34.7613 31.8843 34.7613 31.8843C34.7613 31.8843 34.7613 31.8843 34.7613 31.8843C34.7613 31.8843 34.7613 31.8843 34.7613 31.8843C34.7613 31.8843 34.7613 31.8843 34.7613 31.8843C34.7613 31.8843 34.7613 31.8843 34.7613 31.8843C34.7613 31.8843 34.7614 31.8843 34.7614 31.8843C34.7614 31.8843 34.7614 31.8843 34.7614 31.8843C34.7614 31.8843 34.7614 31.8843 34.7614 31.8843C34.7614 31.8843 34.7614 31.8843 34.7614 31.8843C34.7614 31.8843 34.7614 31.8843 34.7614 31.8843C34.7614 31.8843 34.7614 31.8843 34.7614 31.8843C34.7614 31.8843 34.7614 31.8843 34.7614 31.8843C34.7614 31.8843 34.7614 31.8843 34.7614 31.8843C34.7614 31.8843 34.7614 31.8843 34.7614 31.8843C34.7614 31.8843 34.7614 31.8843 34.7614 31.8843C34.7614 31.8843 34.7614 31.8843 34.7614 31.8843C34.7614 31.8843 34.7615 31.8843 34.7615 31.8843C34.7615 31.8843 34.7615 31.8843 34.7615 31.8843C34.7615 31.8843 34.7615 31.8843 34.7615 31.8843C34.7615 31.8843 34.7615 31.8843 34.7615 31.8843C34.7615 31.8843 34.7615 31.8843 34.7615 31.8843C34.7615 31.8843 34.7615 31.8843 34.7615 31.8843C34.7615 31.8843 34.7615 31.8843 34.7615 31.8843C34.7615 31.8843 34.7615 31.8843 34.7615 31.8843C34.7615 31.8843 34.7615 31.8843 34.7615 31.8843C34.7615 31.8843 34.7615 31.8843 34.7615 31.8843C34.7615 31.8843 34.7615 31.8843 34.7615 31.8843C34.7615 31.8843 34.7616 31.8843 34.7616 31.8843C34.7616 31.8843 34.7616 31.8843 34.7616 31.8843C34.7616 31.8843 34.7616 31.8843 34.7616 31.8843C34.7616 31.8843 34.7616 31.8843 34.7616 31.8843C34.7616 31.8843 34.7616 31.8843 34.7616 31.8843C34.7616 31.8843 34.7616 31.8843 34.7616 31.8843C34.7616 31.8843 34.7616 31.8843 34.7616 31.8843C34.7616 31.8843 34.7616 31.8843 34.7616 31.8843C34.7616 31.8843 34.7616 31.8843 34.7616 31.8843C34.7616 31.8843 34.7616 31.8843 34.7616 31.8843C34.7616 31.8843 34.7616 31.8843 34.7616 31.8843C34.7616 31.8843 34.7616 31.8843 34.7617 31.8843C34.7617 31.8843 34.7617 31.8843 34.7617 31.8843C34.7617 31.8843 34.7617 31.8843 34.7617 31.8843C34.7617 31.8843 34.7617 31.8843 34.7617 31.8843C34.7617 31.8843 34.7617 31.8843 34.7617 31.8843C34.7617 31.8843 34.7617 31.8843 34.7617 31.8843C34.7617 31.8843 34.7617 31.8843 34.7617 31.8843C34.7617 31.8843 34.7617 31.8843 34.7617 31.8843C34.7617 31.8843 34.7617 31.8843 34.7617 31.8843C34.7617 31.8843 34.7617 31.8843 34.7617 31.8843C34.7617 31.8843 34.7617 31.8843 34.7617 31.8843C34.7617 31.8843 34.7617 31.8843 34.7617 31.8843C34.7617 31.8843 34.7617 31.8843 34.7618 31.8843C34.7618 31.8843 34.7618 31.8843 34.7618 31.8843C34.7618 31.8843 34.7618 31.8843 34.7618 31.8843C34.7618 31.8843 34.7618 31.8843 34.7618 31.8843C34.7618 31.8843 34.7618 31.8843 34.7618 31.8843C34.7618 31.8843 34.7618 31.8843 34.7618 31.8843C34.7618 31.8843 34.7618 31.8843 34.7618 31.8843C34.7618 31.8843 34.7618 31.8843 34.7618 31.8843C34.7618 31.8843 34.7618 31.8843 34.7618 31.8843C34.7618 31.8843 34.7618 31.8843 34.7618 31.8843C34.7618 31.8843 34.7618 31.8843 34.7618 31.8843C34.7618 31.8843 34.7618 31.8843 34.7618 31.8843C34.7618 31.8843 34.7619 31.8843 34.7619 31.8843C34.7619 31.8843 34.7619 31.8843 34.7619 31.8843C34.7619 31.8843 34.7619 31.8843 34.7619 31.8843C34.7619 31.8843 34.7619 31.8843 34.7619 31.8843C34.7619 31.8843 34.7619 31.8843 34.7619 31.8843C34.7619 31.8843 34.7619 31.8843 34.7619 31.8843C34.7619 31.8843 34.7619 31.8843 34.7619 31.8843C34.7619 31.8843 34.7619 31.8843 34.7619 31.8843C34.7619 31.8843 34.7619 31.8843 34.7619 31.8843C34.7619 31.8843 34.7619 31.8843 34.7619 31.8843C34.7619 31.8843 34.7619 31.8843 34.7619 31.8843C34.7619 31.8843 34.7619 31.8843 34.7619 31.8843C34.762 31.8843 34.762 31.8843 34.762 31.8843C34.762 31.8843 34.762 31.8843 34.762 31.8843C34.762 31.8843 34.762 31.8843 34.762 31.8843C34.762 31.8843 34.762 31.8843 34.762 31.8843C34.762 31.8843 34.762 31.8843 34.762 31.8843C34.762 31.8843 34.762 31.8843 34.762 31.8843C34.762 31.8843 34.762 31.8843 34.762 31.8843C34.762 31.8843 34.762 31.8843 34.762 31.8843C34.762 31.8843 34.762 31.8843 34.762 31.8843C34.762 31.8843 34.762 31.8843 34.762 31.8843C34.762 31.8843 34.762 31.8843 34.762 31.8843C34.762 31.8843 34.762 31.8843 34.762 31.8843C34.762 31.8843 34.7621 31.8843 34.7621 31.8843C34.7621 31.8843 34.7621 31.8843 34.7621 31.8843C34.7621 31.8843 34.7621 31.8843 34.7621 31.8843C34.7621 31.8843 34.7621 31.8843 34.7621 31.8843C34.7621 31.8843 34.7621 31.8843 34.7621 31.8843C34.7621 31.8843 34.7621 31.8843 34.7621 31.8843C34.7621 31.8843 34.7621 31.8843 34.7621 31.8843C34.7621 31.8843 34.7621 31.8843 34.7621 31.8843C34.7621 31.8843 34.7621 31.8843 34.7621 31.8843C34.7621 31.8843 34.7621 31.8843 34.7621 31.8843C34.7621 31.8843 34.7621 31.8843 34.7621 31.8843C34.7621 31.8843 34.7621 31.8843 34.7621 31.8843C34.7621 31.8843 34.7621 31.8843 34.7621 31.8843C34.7622 31.8843 34.7622 31.8843 34.7622 31.8843C34.7622 31.8843 34.7622 31.8843 34.7622 31.8843C34.7622 31.8843 34.7622 31.8843 34.7622 31.8843C34.7622 31.8843 34.7622 31.8843 34.7622 31.8843C34.7622 31.8843 34.7622 31.8843 34.7622 31.8843C34.7622 31.8843 34.7622 31.8843 34.7622 31.8843C34.7622 31.8843 34.7622 31.8843 34.7622 31.8843C34.7622 31.8843 34.7622 31.8843 34.7622 31.8843C34.7622 31.8843 34.7622 31.8843 34.7622 31.8843C34.7622 31.8843 34.7622 31.8843 34.7622 31.8843C34.7622 31.8843 34.7622 31.8843 34.7622 31.8843C34.7622 31.8843 34.7622 31.8843 34.7622 31.8843C34.7622 31.8843 34.7622 31.8843 34.7623 31.8843C34.7623 31.8843 34.7623 31.8843 34.7623 31.8843C34.7623 31.8843 34.7623 31.8843 34.7623 31.8843C34.7623 31.8843 34.7623 31.8843 34.7623 31.8843C34.7623 31.8843 34.7623 31.8843 34.7623 31.8843C34.7623 31.8843 34.7623 31.8843 34.7623 31.8843C34.7623 31.8843 34.7623 31.8843 34.7623 31.8843C34.7623 31.8843 34.7623 31.8843 34.7623 31.8843C34.7623 31.8843 34.7623 31.8843 34.7623 31.8843C34.7623 31.8843 34.7623 31.8843 34.7623 31.8843C34.7623 31.8843 34.7623 31.8843 34.7623 31.8843C34.7623 31.8843 34.7623 31.8843 34.7623 31.8843C34.7623 31.8843 34.7623 31.8843 34.7623 31.8843C34.7623 31.8843 34.7624 31.8843 34.7624 31.8843C34.7624 31.8843 34.7624 31.8843 34.7624 31.8843C34.7624 31.8843 34.7624 31.8843 34.7624 31.8843C34.7624 31.8843 34.7624 31.8843 34.7624 31.8843C34.7624 31.8843 34.7624 31.8843 34.7624 31.8843C34.7624 31.8843 34.7624 31.8843 34.7624 31.8843C34.7624 31.8843 34.7624 31.8843 34.7624 31.8843C34.7624 31.8843 34.7624 31.8843 34.7624 31.8843C34.7624 31.8843 34.7624 31.8843 34.7624 31.8843C34.7624 31.8843 34.7624 31.8843 34.7624 31.8843C34.7624 31.8843 34.7624 31.8843 34.7624 31.8843C34.7624 31.8843 34.7624 31.8843 34.7624 31.8843C34.7624 31.8843 34.7624 31.8843 34.7624 31.8843C34.7624 31.8843 34.7625 31.8843 34.7625 31.8843C34.7625 31.8843 34.7625 31.8843 34.7625 31.8843C34.7625 31.8843 34.7625 31.8843 34.7625 31.8843C34.7625 31.8843 34.7625 31.8843 34.7625 31.8843C34.7625 31.8843 34.7625 31.8843 34.7625 31.8843C34.7625 31.8843 34.7625 31.8843 34.7625 31.8843C34.7625 31.8843 34.7625 31.8843 34.7625 31.8843C34.7625 31.8843 34.7625 31.8843 34.7625 31.8843C34.7625 31.8843 34.7625 31.8843 34.7625 31.8843C34.7625 31.8843 34.7625 31.8843 34.7625 31.8843C34.7625 31.8843 34.7625 31.8843 34.7625 31.8843C34.7625 31.8843 34.7625 31.8843 34.7625 31.8843C34.7625 31.8843 34.7625 31.8843 34.7625 31.8843C34.7625 31.8843 34.7626 31.8843 34.7626 31.8843C34.7626 31.8843 34.7626 31.8843 34.7626 31.8843C34.7626 31.8843 34.7626 31.8843 34.7626 31.8843C34.7626 31.8843 34.7626 31.8843 34.7626 31.8843C34.7626 31.8843 34.7626 31.8843 34.7626 31.8843C34.7626 31.8843 34.7626 31.8843 34.7626 31.8843C34.7626 31.8843 34.7626 31.8843 34.7626 31.8843C34.7626 31.8843 34.7626 31.8843 34.7626 31.8843C34.7626 31.8843 34.7626 31.8843 34.7626 31.8843C34.7626 31.8843 34.7626 31.8843 34.7626 31.8843C34.7626 31.8843 34.7626 31.8843 34.7626 31.8843C34.7626 31.8843 34.7626 31.8843 34.7626 31.8843C34.7626 31.8843 34.7626 31.8843 34.7626 31.8843C34.7626 31.8843 34.7626 31.8843 34.7626 31.8843C34.7626 31.8843 34.7627 31.8843 34.7627 31.8843C34.7627 31.8843 34.7627 31.8843 34.7627 31.8843C34.7627 31.8843 34.7627 31.8843 34.7627 31.8843C34.7627 31.8843 34.7627 31.8843 34.7627 31.8843H34.7627C34.7627 31.8843 34.7627 31.8843 34.7627 31.8843C34.7627 31.8843 34.7627 31.8843 34.7627 31.8843C34.7627 31.8843 34.7627 31.8843 34.7627 31.8843C34.7627 31.8843 34.7627 31.8843 34.7627 31.8843C34.7627 31.8843 34.7627 31.8843 34.7627 31.8843C34.7627 31.8843 34.7627 31.8843 34.7627 31.8843C34.7627 31.8843 34.7627 31.8843 34.7627 31.8843C34.7627 31.8843 34.7627 31.8843 34.7627 31.8843C34.7627 31.8843 34.7627 31.8843 34.7628 31.8843C34.7628 31.8843 34.7628 31.8843 34.7628 31.8843C34.7628 31.8843 34.7628 31.8843 34.7628 31.8843C34.7628 31.8843 34.7628 31.8843 34.7628 31.8843C34.7628 31.8843 34.7628 31.8843 34.7628 31.8843C34.7628 31.8843 34.7628 31.8843 34.7628 31.8843H34.7628C34.7628 31.8843 34.7628 31.8843 34.7628 31.8843C34.7628 31.8843 34.7628 31.8843 34.7628 31.8843C34.7628 31.8843 34.7628 31.8843 34.7628 31.8843C34.7628 31.8843 34.7628 31.8843 34.7628 31.8843C34.7628 31.8843 34.7628 31.8843 34.7628 31.8843C34.7628 31.8843 34.7628 31.8843 34.7628 31.8843C34.7628 31.8843 34.7628 31.8843 34.7628 31.8843C34.7629 31.8843 34.7629 31.8843 34.7629 31.8843C34.7629 31.8843 34.7629 31.8843 34.7629 31.8843C34.7629 31.8843 34.7629 31.8843 34.7629 31.8843C34.7629 31.8843 34.7629 31.8843 34.7629 31.8843C34.7629 31.8843 34.7629 31.8843 34.7629 31.8843H34.7629C34.7629 31.8843 34.7629 31.8843 34.7629 31.8843C34.7629 31.8843 34.7629 31.8843 34.7629 31.8843C34.7629 31.8843 34.7629 31.8843 34.7629 31.8843C34.7629 31.8843 34.7629 31.8843 34.7629 31.8843C34.7629 31.8843 34.7629 31.8843 34.7629 31.8843C34.7629 31.8843 34.7629 31.8843 34.7629 31.8843C34.7629 31.8843 34.7629 31.8843 34.7629 31.8843C34.7629 31.8843 34.7629 31.8843 34.763 31.8843C34.763 31.8843 34.763 31.8843 34.763 31.8843C34.763 31.8843 34.763 31.8843 34.763 31.8843H34.763C34.763 31.8843 34.763 31.8843 34.763 31.8843C34.763 31.8843 34.763 31.8843 34.763 31.8843C34.763 31.8843 34.763 31.8843 34.763 31.8843C34.763 31.8843 34.763 31.8843 34.763 31.8843C34.763 31.8843 34.763 31.8843 34.763 31.8843C34.763 31.8843 34.763 31.8843 34.763 31.8843C34.763 31.8843 34.763 31.8843 34.763 31.8843C34.763 31.8843 34.763 31.8843 34.763 31.8843C34.763 31.8843 34.763 31.8843 34.763 31.8843H34.763C34.763 31.8843 34.7631 31.8843 34.7631 31.8843C34.7631 31.8843 34.7631 31.8843 34.7631 31.8843C34.7631 31.8843 34.7631 31.8843 34.7631 31.8843C34.7631 31.8843 34.7631 31.8843 34.7631 31.8843C34.7631 31.8843 34.7631 31.8843 34.7631 31.8843C34.7631 31.8843 34.7631 31.8843 34.7631 31.8843C34.7631 31.8843 34.7631 31.8843 34.7631 31.8843C34.7631 31.8843 34.7631 31.8843 34.7631 31.8843C34.7631 31.8843 34.7631 31.8843 34.7631 31.8843H34.7631C34.7631 31.8843 34.7631 31.8843 34.7631 31.8843C34.7631 31.8843 34.7631 31.8843 34.7631 31.8843C34.7631 31.8843 34.7631 31.8843 34.7631 31.8843C34.7631 31.8843 34.7631 31.8843 34.7631 31.8843C34.7631 31.8843 34.7631 31.8843 34.7632 31.8843C34.7632 31.8843 34.7632 31.8843 34.7632 31.8843C34.7632 31.8843 34.7632 31.8843 34.7632 31.8843C34.7632 31.8843 34.7632 31.8843 34.7632 31.8843C34.7632 31.8843 34.7632 31.8843 34.7632 31.8843H34.7632C34.7632 31.8843 34.7632 31.8843 34.7632 31.8843C34.7632 31.8843 34.7632 31.8843 34.7632 31.8843C34.7632 31.8843 34.7632 31.8843 34.7632 31.8843C34.7632 31.8843 34.7632 31.8843 34.7632 31.8843C34.7632 31.8843 34.7632 31.8843 34.7632 31.8843C34.7632 31.8843 34.7632 31.8843 34.7632 31.8843C34.7632 31.8843 34.7632 31.8843 34.7632 31.8843C34.7632 31.8843 34.7632 31.8843 34.7632 31.8843H34.7633C34.7633 31.8843 34.7633 31.8843 34.7633 31.8843C34.7633 31.8843 34.7633 31.8843 34.7633 31.8843C34.7633 31.8843 34.7633 31.8843 34.7633 31.8843C34.7633 31.8843 34.7633 31.8843 34.7633 31.8843C34.7633 31.8843 34.7633 31.8843 34.7633 31.8843C34.7633 31.8843 34.7633 31.8843 34.7633 31.8843C34.7633 31.8843 34.7633 31.8843 34.7633 31.8843C34.7633 31.8843 34.7633 31.8843 34.7633 31.8843C34.7633 31.8843 34.7633 31.8843 34.7633 31.8843H34.7633C34.7633 31.8843 34.7633 31.8843 34.7633 31.8843C34.7633 31.8843 34.7633 31.8843 34.7633 31.8843C34.7633 31.8843 34.7633 31.8843 34.7633 31.8843C34.7634 31.8843 34.7634 31.8843 34.7634 31.8843C34.7634 31.8843 34.7634 31.8843 34.7634 31.8843C34.7634 31.8843 34.7634 31.8843 34.7634 31.8843C34.7634 31.8843 34.7634 31.8843 34.7634 31.8843C34.7634 31.8843 34.7634 31.8843 34.7634 31.8843C34.7634 31.8843 34.7634 31.8843 34.7634 31.8843H34.7634C34.7634 31.8843 34.7634 31.8843 34.7634 31.8843C34.7634 31.8843 34.7634 31.8843 34.7634 31.8843C34.7634 31.8843 34.7634 31.8843 34.7634 31.8843C34.7634 31.8843 34.7634 31.8843 34.7634 31.8843C34.7634 31.8843 34.7634 31.8843 34.7634 31.8843C34.7634 31.8843 34.7634 31.8843 34.7634 31.8843C34.7634 31.8843 34.7634 31.8843 34.7635 31.8843C34.7635 31.8843 34.7635 31.8843 34.7635 31.8843C34.7635 31.8843 34.7635 31.8843 34.7635 31.8843C34.7635 31.8843 34.7635 31.8843 34.7635 31.8843H34.7635C34.7635 31.8843 34.7635 31.8843 34.7635 31.8843C34.7635 31.8843 34.7635 31.8843 34.7635 31.8843C34.7635 31.8843 34.7635 31.8843 34.7635 31.8843C34.7635 31.8843 34.7635 31.8843 34.7635 31.8843C34.7635 31.8843 34.7635 31.8843 34.7635 31.8843C34.7635 31.8843 34.7635 31.8843 34.7635 31.8843C34.7635 31.8843 34.7635 31.8843 34.7635 31.8843C34.7635 31.8843 34.7635 31.8843 34.7635 31.8843C34.7635 31.8843 34.7635 31.8843 34.7635 31.8843C34.7635 31.8843 34.7635 31.8843 34.7636 31.8843H34.7636C34.7636 31.8843 34.7636 31.8843 34.7636 31.8843C34.7636 31.8843 34.7636 31.8843 34.7636 31.8843C34.7636 31.8843 34.7636 31.8843 34.7636 31.8843C34.7636 31.8843 34.7636 31.8843 34.7636 31.8843C34.7636 31.8843 34.7636 31.8843 34.7636 31.8843C34.7636 31.8843 34.7636 31.8843 34.7636 31.8843C34.7636 31.8843 34.7636 31.8843 34.7636 31.8843C34.7636 31.8843 34.7636 31.8843 34.7636 31.8843C34.7636 31.8843 34.7636 31.8843 34.7636 31.8843C34.7636 31.8843 34.7636 31.8843 34.7636 31.8843C34.7636 31.8843 34.7636 31.8843 34.7636 31.8843C34.7636 31.8843 34.7636 31.8843 34.7636 31.8843H34.7637C34.7637 31.8843 34.7637 31.8843 34.7637 31.8843C34.7637 31.8843 34.7637 31.8843 34.7637 31.8843C34.7637 31.8843 34.7637 31.8843 34.7637 31.8843C34.7637 31.8843 34.7637 31.8843 34.7637 31.8843C34.7637 31.8843 34.7637 31.8843 34.7637 31.8843C34.7637 31.8843 34.7637 31.8843 34.7637 31.8843C34.7637 31.8843 34.7637 31.8843 34.7637 31.8843C34.7637 31.8843 34.7637 31.8843 34.7637 31.8843C34.7637 31.8843 34.7637 31.8843 34.7637 31.8843C34.7637 31.8843 34.7637 31.8843 34.7637 31.8843C34.7637 31.8843 34.7637 31.8843 34.7637 31.8843C34.7637 31.8843 34.7637 31.8843 34.7637 31.8843C34.7637 31.8843 34.7637 31.8843 34.7638 31.8843C34.7638 31.8843 34.7638 31.8843 34.7638 31.8843C34.7638 31.8843 34.7638 31.8843 34.7638 31.8843C34.7638 31.8843 34.7638 31.8843 34.7638 31.8843C34.7638 31.8843 34.7638 31.8843 34.7638 31.8843C34.7638 31.8843 34.7638 31.8843 34.7638 31.8843H34.7638C34.7638 31.8843 34.7638 31.8843 34.7638 31.8843C34.7638 31.8843 34.7638 31.8843 34.7638 31.8843C34.7638 31.8843 34.7638 31.8843 34.7638 31.8843C34.7638 31.8843 34.7638 31.8843 34.7638 31.8843C34.7638 31.8843 34.7638 31.8843 34.7638 31.8843C34.7638 31.8843 34.7638 31.8843 34.7638 31.8843C34.7638 31.8843 34.7638 31.8843 34.7638 31.8843C34.7639 31.8843 34.7639 31.8843 34.7639 31.8843C34.7639 31.8843 34.7639 31.8843 34.7639 31.8843C34.7639 31.8843 34.7639 31.8843 34.7639 31.8843C34.7639 31.8843 34.7639 31.8843 34.7639 31.8843C34.7639 31.8843 34.7639 31.8843 34.7639 31.8843C34.7639 31.8843 34.7639 31.8843 34.7639 31.8843C34.7639 31.8843 34.7639 31.8843 34.7639 31.8843C34.7639 31.8843 34.7639 31.8843 34.7639 31.8843C34.7639 31.8843 34.7639 31.8843 34.7639 31.8843C34.7639 31.8843 34.7639 31.8843 34.7639 31.8843C34.7639 31.8843 34.7639 31.8843 34.7639 31.8843C34.7639 31.8843 34.7639 31.8843 34.7639 31.8843C34.7639 31.8843 34.7639 31.8843 34.7639 31.8843C34.764 31.8843 34.764 31.8843 34.764 31.8843C34.764 31.8843 34.764 31.8843 34.764 31.8843C34.764 31.8843 34.764 31.8843 34.764 31.8843C34.764 31.8843 34.764 31.8843 34.764 31.8843C34.764 31.8843 34.764 31.8843 34.764 31.8843C34.764 31.8843 34.764 31.8843 34.764 31.8843C34.764 31.8843 34.764 31.8843 34.764 31.8843C34.764 31.8843 34.764 31.8843 34.764 31.8843C34.764 31.8843 34.764 31.8843 34.764 31.8843C34.764 31.8843 34.764 31.8843 34.764 31.8843C34.764 31.8843 34.764 31.8843 34.764 31.8843C34.764 31.8843 34.764 31.8843 34.764 31.8843C34.764 31.8843 34.764 31.8843 34.764 31.8843C34.764 31.8843 34.764 31.8843 34.7641 31.8843C34.7641 31.8843 34.7641 31.8843 34.7641 31.8843C34.7641 31.8843 34.7641 31.8843 34.7641 31.8843C34.7641 31.8843 34.7641 31.8843 34.7641 31.8843C34.7641 31.8843 34.7641 31.8843 34.7641 31.8843C34.7641 31.8843 34.7641 31.8843 34.7641 31.8843C34.7641 31.8843 34.7641 31.8843 34.7641 31.8843C34.7641 31.8843 34.7641 31.8843 34.7641 31.8843C34.7641 31.8843 34.7641 31.8843 34.7641 31.8843C34.7641 31.8843 34.7641 31.8843 34.7641 31.8843C34.7641 31.8843 34.7641 31.8843 34.7641 31.8843C34.7641 31.8843 34.7641 31.8843 34.7641 31.8843C34.7641 31.8843 34.7641 31.8843 34.7641 31.8843C34.7641 31.8843 34.7642 31.8843 34.7642 31.8843C34.7642 31.8843 34.7642 31.8843 34.7642 31.8843C34.7642 31.8843 34.7642 31.8843 34.7642 31.8843C34.7642 31.8843 34.7642 31.8843 34.7642 31.8843C34.7642 31.8843 34.7642 31.8843 34.7642 31.8843C34.7642 31.8843 34.7642 31.8843 34.7642 31.8843C34.7642 31.8843 34.7642 31.8843 34.7642 31.8843C34.7642 31.8843 34.7642 31.8843 34.7642 31.8843C34.7642 31.8843 34.7642 31.8843 34.7642 31.8843C34.7642 31.8843 34.7642 31.8843 34.7642 31.8843C34.7642 31.8843 34.7642 31.8843 34.7642 31.8843C34.7642 31.8843 34.7642 31.8843 34.7642 31.8843C34.7642 31.8843 34.7642 31.8843 34.7642 31.8843C34.7643 31.8843 34.7643 31.8843 34.7643 31.8843C34.7643 31.8843 34.7643 31.8843 34.7643 31.8843C34.7643 31.8843 34.7643 31.8843 34.7643 31.8843C34.7643 31.8843 34.7643 31.8843 34.7643 31.8843C34.7643 31.8843 34.7643 31.8843 34.7643 31.8843C34.7643 31.8843 34.7643 31.8843 34.7643 31.8843C34.7643 31.8843 34.7643 31.8843 34.7643 31.8843C34.7643 31.8843 34.7643 31.8843 34.7643 31.8843C34.7643 31.8843 34.7643 31.8843 34.7643 31.8843C34.7643 31.8843 34.7643 31.8843 34.7643 31.8843C34.7643 31.8843 34.7643 31.8843 34.7643 31.8843C34.7643 31.8843 34.7643 31.8843 34.7643 31.8843C34.7643 31.8843 34.7644 31.8843 34.7644 31.8843C34.7644 31.8843 34.7644 31.8843 34.7644 31.8843C34.7644 31.8843 34.7644 31.8843 34.7644 31.8843C34.7644 31.8843 34.7644 31.8843 34.7644 31.8843C34.7644 31.8843 34.7644 31.8843 34.7644 31.8843C34.7644 31.8843 34.7644 31.8843 34.7644 31.8843C34.7644 31.8843 34.7644 31.8843 34.7644 31.8843C34.7644 31.8843 34.7644 31.8843 34.7644 31.8843C34.7644 31.8843 34.7644 31.8843 34.7644 31.8843C34.7644 31.8843 34.7644 31.8843 34.7644 31.8843C34.7644 31.8843 34.7644 31.8843 34.7644 31.8843C34.7644 31.8843 34.7644 31.8843 34.7644 31.8843C34.7644 31.8843 34.7645 31.8843 34.7645 31.8843C34.7645 31.8843 34.7645 31.8843 34.7645 31.8843C34.7645 31.8843 34.7645 31.8843 34.7645 31.8843C34.7645 31.8843 34.7645 31.8843 34.7645 31.8843C34.7645 31.8843 34.7645 31.8843 34.7645 31.8843C34.7645 31.8843 34.7645 31.8843 34.7645 31.8843C34.7645 31.8843 34.7645 31.8843 34.7645 31.8843C34.7645 31.8843 34.7645 31.8843 34.7645 31.8843C34.7645 31.8843 34.7645 31.8843 34.7645 31.8843C34.7645 31.8843 34.7645 31.8843 34.7645 31.8843C34.7645 31.8843 34.7645 31.8843 34.7645 31.8843C34.7645 31.8843 34.7645 31.8843 34.7645 31.8843C34.7645 31.8843 34.7645 31.8843 34.7646 31.8843C34.7646 31.8843 34.7646 31.8843 34.7646 31.8843C34.7646 31.8843 34.7646 31.8843 34.7646 31.8843C34.7646 31.8843 34.7646 31.8843 34.7646 31.8843C34.7646 31.8843 34.7646 31.8843 34.7646 31.8843C34.7646 31.8843 34.7646 31.8843 34.7646 31.8843C34.7646 31.8843 34.7646 31.8843 34.7646 31.8843C34.7646 31.8843 34.7646 31.8843 34.7646 31.8843C34.7646 31.8843 34.7646 31.8843 34.7646 31.8843C34.7646 31.8843 34.7646 31.8843 34.7646 31.8843C34.7646 31.8843 34.7646 31.8843 34.7646 31.8843C34.7646 31.8843 34.7646 31.8843 34.7646 31.8843C34.7646 31.8843 34.7646 31.8843 34.7647 31.8843C34.7647 31.8843 34.7647 31.8843 34.7647 31.8843C34.7647 31.8843 34.7647 31.8843 34.7647 31.8843C34.7647 31.8843 34.7647 31.8843 34.7647 31.8843C34.7647 31.8843 34.7647 31.8843 34.7647 31.8843C34.7647 31.8843 34.7647 31.8843 34.7647 31.8843C34.7647 31.8843 34.7647 31.8843 34.7647 31.8843C34.7647 31.8843 34.7647 31.8843 34.7647 31.8843C34.7647 31.8843 34.7647 31.8843 34.7647 31.8843C34.7647 31.8843 34.7647 31.8843 34.7647 31.8843C34.7647 31.8843 34.7647 31.8843 34.7647 31.8843C34.7647 31.8843 34.7647 31.8843 34.7647 31.8843C34.7648 31.8843 34.7648 31.8843 34.7648 31.8843C34.7648 31.8843 34.7648 31.8843 34.7648 31.8843C34.7648 31.8843 34.7648 31.8843 34.7648 31.8843C34.7648 31.8843 34.7648 31.8843 34.7648 31.8843C34.7648 31.8843 34.7648 31.8843 34.7648 31.8843C34.7648 31.8843 34.7648 31.8843 34.7648 31.8843C34.7648 31.8843 34.7648 31.8843 34.7648 31.8843C34.7648 31.8843 34.7648 31.8843 34.7648 31.8843C34.7648 31.8843 34.7648 31.8843 34.7648 31.8843C34.7648 31.8843 34.7648 31.8843 34.7648 31.8843C34.7648 31.8843 34.7648 31.8843 34.7648 31.8843C34.7648 31.8843 34.7649 31.8843 34.7649 31.8843C34.7649 31.8843 34.7649 31.8843 34.7649 31.8843C34.7649 31.8843 34.7649 31.8843 34.7649 31.8843C34.7649 31.8843 34.7649 31.8843 34.7649 31.8843C34.7649 31.8843 34.7649 31.8843 34.7649 31.8843C34.7649 31.8843 34.7649 31.8843 34.7649 31.8843C34.7649 31.8843 34.7649 31.8843 34.7649 31.8843C34.7649 31.8843 34.7649 31.8843 34.7649 31.8843C34.7649 31.8843 34.7649 31.8843 34.7649 31.8843C34.7649 31.8843 34.7649 31.8843 34.7649 31.8843C34.7649 31.8843 34.7649 31.8843 34.7649 31.8843C34.7649 31.8843 34.7649 31.8843 34.765 31.8843C34.765 31.8843 34.765 31.8843 34.765 31.8843C34.765 31.8843 34.765 31.8843 34.765 31.8843C34.765 31.8843 34.765 31.8843 34.765 31.8843C34.765 31.8843 34.765 31.8843 34.765 31.8843C34.765 31.8843 34.765 31.8843 34.765 31.8843C34.765 31.8843 34.765 31.8843 34.765 31.8843C34.765 31.8843 34.765 31.8843 34.765 31.8843C34.765 31.8843 34.765 31.8843 34.765 31.8843C34.765 31.8843 34.765 31.8843 34.765 31.8843C34.765 31.8843 34.765 31.8843 34.765 31.8843C34.765 31.8843 34.765 31.8843 34.7651 31.8843C34.7651 31.8843 34.7651 31.8843 34.7651 31.8843C34.7651 31.8843 34.7651 31.8843 34.7651 31.8843C34.7651 31.8843 34.7651 31.8843 34.7651 31.8843C34.7651 31.8843 34.7651 31.8843 34.7651 31.8843C34.7651 31.8843 34.7651 31.8843 34.7651 31.8843C34.7651 31.8843 34.7651 31.8843 34.7651 31.8843C34.7651 31.8843 34.7651 31.8843 34.7651 31.8843C34.7651 31.8843 34.7651 31.8843 34.7651 31.8843C34.7651 31.8843 34.7651 31.8843 34.7651 31.8843C34.7651 31.8843 34.7651 31.8843 34.7651 31.8843C34.7651 31.8843 34.7652 31.8843 34.7652 31.8843C34.7652 31.8843 34.7652 31.8843 34.7652 31.8843C34.7652 31.8843 34.7652 31.8843 34.7652 31.8843C34.7652 31.8843 34.7652 31.8843 34.7652 31.8843C34.7652 31.8843 34.7652 31.8843 34.7652 31.8843C34.7652 31.8843 34.7652 31.8843 34.7652 31.8843C34.7652 31.8843 34.7652 31.8843 34.7652 31.8843C34.7652 31.8843 34.7652 31.8843 34.7652 31.8843C34.7652 31.8843 34.7652 31.8843 34.7652 31.8843C34.7652 31.8843 34.7652 31.8843 34.7652 31.8843C34.7652 31.8843 34.7652 31.8843 34.7653 31.8843C34.7653 31.8843 34.7653 31.8843 34.7653 31.8843V30.7232ZM32.8579 28.1948L34.2629 30.4195L35.2446 29.7995L33.8397 27.5748L32.8579 28.1948ZM35.2504 30.4101L36.5969 28.1855L35.6035 27.5842L34.2571 29.8089L35.2504 30.4101ZM36.1002 27.3043H33.3488V28.4654H36.1002V27.3043Z" fill="#DEC58C" mask="url(#path-1-inside-1_15_289)"/>
</svg>
