<svg width="42" height="37" viewBox="0 0 42 37" fill="none" xmlns="http://www.w3.org/2000/svg">
<path d="M20.8085 36.1764C20.551 36.1764 20.3422 35.9677 20.3422 35.7101V20.7839C20.3422 20.6665 20.243 20.5674 20.1256 20.5674H4.41895C4.30162 20.5674 4.20239 20.6665 4.20239 20.7839V35.7101C4.20239 35.9677 3.99357 36.1764 3.73606 36.1764C3.47855 36.1764 3.26973 35.9677 3.26973 35.7101V20.7839C3.26973 20.1502 3.78521 19.6347 4.41895 19.6347H20.1256C20.7593 19.6347 21.2748 20.1502 21.2748 20.7839V35.7101C21.2749 35.9677 21.066 36.1764 20.8085 36.1764Z" fill="#DEC58C"/>
<path d="M18.8086 20.5674C18.5511 20.5674 18.3423 20.3587 18.3423 20.101V10.4214H6.20229V20.101C6.20229 20.3587 5.99347 20.5674 5.73596 20.5674C5.47846 20.5674 5.26963 20.3587 5.26963 20.101V9.95509C5.26963 9.69758 5.47846 9.48876 5.73596 9.48876H18.8086C19.0661 9.48876 19.2749 9.69758 19.2749 9.95509V20.101C19.2749 20.3586 19.0662 20.5674 18.8086 20.5674Z" fill="#DEC58C"/>
<path d="M5.73559 10.4215C5.64456 10.4215 5.5526 10.3949 5.47183 10.3394C5.25965 10.1936 5.20575 9.90324 5.35161 9.69106L10.9001 1.61691C11.2483 1.1102 11.7485 0.81958 12.2722 0.81958C12.796 0.81958 13.2962 1.1102 13.6444 1.61691L19.1929 9.69106C19.3387 9.90333 19.2849 10.1936 19.0726 10.3394C18.8605 10.4853 18.57 10.4316 18.4243 10.2192L12.8758 2.14508C12.7016 1.89177 12.4873 1.75224 12.2722 1.75224C12.0572 1.75224 11.8428 1.89177 11.6687 2.14508L6.12022 10.2192C6.02994 10.3507 5.88398 10.4215 5.73559 10.4215Z" fill="#DEC58C"/>
<path d="M16.1258 20.5674C15.8683 20.5674 15.6595 20.3587 15.6595 20.101V15.6127C15.6595 13.7451 14.14 12.2256 12.2723 12.2256C10.4047 12.2256 8.88519 13.7451 8.88519 15.6127V20.101C8.88519 20.3587 8.67636 20.5674 8.41886 20.5674C8.16135 20.5674 7.95253 20.3587 7.95253 20.101V15.6127C7.95253 13.2308 9.89041 11.2929 12.2723 11.2929C14.6544 11.2929 16.5921 13.2308 16.5921 15.6127V20.101C16.5921 20.3586 16.3833 20.5674 16.1258 20.5674Z" fill="#DEC58C"/>
<path d="M16.1258 36.1764C15.8683 36.1764 15.6595 35.9677 15.6595 35.7101V20.5674H8.88519V35.7101C8.88519 35.9677 8.67636 36.1764 8.41886 36.1764C8.16135 36.1764 7.95253 35.9677 7.95253 35.7101V20.101C7.95253 19.8434 8.16135 19.6347 8.41886 19.6347H16.1258C16.3833 19.6347 16.5921 19.8434 16.5921 20.101V35.7101C16.5921 35.9677 16.3833 36.1764 16.1258 36.1764Z" fill="#DEC58C"/>
<path d="M29.0888 36.1353C28.9014 36.1353 28.7248 36.0216 28.6534 35.8363L22.7891 20.5873H18.8086C18.5511 20.5873 18.3423 20.3786 18.3423 20.121V16.9992C18.3423 16.7417 18.5511 16.5329 18.8086 16.5329H25.0206C25.2136 16.5329 25.3866 16.6517 25.4559 16.8318L31.3203 32.0807H36.8545C37.1121 32.0807 37.3208 32.2894 37.3208 32.547V35.6689C37.3208 35.9265 37.1121 36.1353 36.8545 36.1353C36.5969 36.1353 36.3882 35.9265 36.3882 35.6689V33.0134H31.0001C30.8071 33.0134 30.6341 32.8946 30.5648 32.7145L24.7004 17.4655H19.275V19.6547H23.1095C23.3025 19.6547 23.4755 19.7735 23.5448 19.9536L29.524 35.5014C29.6164 35.7418 29.4964 36.0117 29.2561 36.1041C29.2011 36.1252 29.1445 36.1353 29.0888 36.1353Z" fill="#DEC58C"/>
<path d="M40.9731 36.1764H0.682151C0.424643 36.1764 0.21582 35.9677 0.21582 35.7101C0.21582 35.4525 0.424643 35.2437 0.682151 35.2437H40.9731C41.2307 35.2437 41.4395 35.4525 41.4395 35.7101C41.4395 35.9677 41.2306 36.1764 40.9731 36.1764Z" fill="#DEC58C"/>
<path d="M16.1258 23.9818H8.41886C8.16135 23.9818 7.95253 23.773 7.95253 23.5154C7.95253 23.2578 8.16135 23.0491 8.41886 23.0491H16.1258C16.3833 23.0491 16.5921 23.2578 16.5921 23.5154C16.5921 23.773 16.3833 23.9818 16.1258 23.9818Z" fill="#DEC58C"/>
<path d="M16.1258 28.3718H8.41886C8.16135 28.3718 7.95253 28.1631 7.95253 27.9055C7.95253 27.6479 8.16135 27.4391 8.41886 27.4391H16.1258C16.3833 27.4391 16.5921 27.6479 16.5921 27.9055C16.5921 28.1631 16.3833 28.3718 16.1258 28.3718Z" fill="#DEC58C"/>
<path d="M16.1258 32.7619H8.41886C8.16135 32.7619 7.95253 32.5532 7.95253 32.2956C7.95253 32.038 8.16135 31.8293 8.41886 31.8293H16.1258C16.3833 31.8293 16.5921 32.038 16.5921 32.2956C16.5921 32.5532 16.3833 32.7619 16.1258 32.7619Z" fill="#DEC58C"/>
<path d="M12.2723 8.85968C11.0469 8.85968 10.0499 7.86276 10.0499 6.63734C10.0499 5.41191 11.0468 4.41499 12.2723 4.41499C13.4978 4.41499 14.4947 5.41191 14.4947 6.63734C14.4947 7.86276 13.4978 8.85968 12.2723 8.85968ZM12.2723 5.34765C11.5612 5.34765 10.9826 5.92618 10.9826 6.63734C10.9826 7.34849 11.5612 7.92702 12.2723 7.92702C12.9835 7.92702 13.562 7.34849 13.562 6.63734C13.562 5.92618 12.9835 5.34765 12.2723 5.34765Z" fill="#DEC58C"/>
<path d="M33.8438 13.6645H24.492C22.9943 13.6645 21.7759 12.446 21.7759 10.9484C21.7759 9.50527 22.9073 8.32144 24.3296 8.23713C24.5493 6.95864 25.666 5.98261 27.0063 5.98261C27.1693 5.98261 27.3298 5.99669 27.4872 6.02486C27.6889 4.09518 29.3251 2.58595 31.3073 2.58595C33.4252 2.58595 35.1483 4.30895 35.1483 6.42683C35.1483 7.10852 34.9687 7.76959 34.6332 8.34933C35.747 8.68826 36.5599 9.72519 36.5599 10.9485C36.5598 12.446 35.3414 13.6645 33.8438 13.6645ZM24.492 9.16494C23.5086 9.16494 22.7085 9.96498 22.7085 10.9484C22.7085 11.9318 23.5086 12.7318 24.492 12.7318H33.8439C34.8272 12.7318 35.6272 11.9318 35.6272 10.9484C35.6272 9.96498 34.8272 9.16494 33.8439 9.16494L33.8114 9.16531C33.6235 9.16839 33.4545 9.06142 33.3775 8.89167C33.3006 8.72193 33.3321 8.52271 33.4576 8.38496C33.9464 7.84868 34.2156 7.15319 34.2156 6.42674C34.2156 4.82312 32.911 3.51852 31.3073 3.51852C29.7036 3.51852 28.399 4.82312 28.399 6.42674C28.399 6.48895 28.4011 6.55414 28.4056 6.62055C28.4164 6.78442 28.3403 6.94185 28.2052 7.03521C28.0701 7.12847 27.8959 7.14386 27.7465 7.0755C27.5137 6.96908 27.2647 6.91518 27.0062 6.91518C26.0229 6.91518 25.2229 7.71521 25.2229 8.69861C25.2252 8.8331 25.1695 8.96591 25.0696 9.05619C24.9699 9.14647 24.8358 9.19274 24.7023 9.17735C24.6324 9.16914 24.5615 9.16494 24.492 9.16494Z" fill="#DEC58C"/>
</svg>
