<svg width="89" height="624" viewBox="0 0 89 624" fill="none" xmlns="http://www.w3.org/2000/svg">
<path d="M0.234464 23.9836L80.2694 23.9836V0.195404L80.8252 0.195404L86.3832 2.80766V58.8877H85.8274L80.2694 56.2755V35.0996L5.23664 35.0996L0.234464 24.5394L0.234464 23.9836Z" fill="#423030"/>
<path d="M0.234462 61.9446H59.7049C67.7084 61.9446 74.2853 64.4457 79.4357 69.4479C84.8084 74.7095 87.4948 81.5643 87.4948 90.0125C87.4948 98.3124 84.8084 105.167 79.4357 110.577C74.4706 115.579 67.8936 118.08 59.7049 118.08H5.23663L0.23446 107.52L0.23446 106.964L41.3635 106.964L41.3635 73.0606L5.23664 73.0606L0.234462 62.5004L0.234462 61.9446ZM47.4773 73.0606V106.964H63.5954C68.5606 106.964 72.5809 105.63 75.6563 102.963C79.4728 99.6278 81.381 95.3111 81.381 90.0125C81.381 84.6768 79.4728 80.3601 75.6563 77.0624C72.5438 74.3945 68.5235 73.0606 63.5954 73.0606H47.4773Z" fill="#423030"/>
<path d="M0.234459 140.312H59.7049C67.7084 140.312 74.2853 142.813 79.4357 147.816C84.8084 153.077 87.4948 159.932 87.4948 168.38C87.4948 176.013 84.8084 182.516 79.4357 187.889C78.1018 189.223 76.8049 190.223 75.5451 190.89C76.842 191.742 78.0833 192.78 79.269 194.002C84.7528 199.597 87.4948 206.063 87.4948 213.4C87.4948 221.7 84.8084 228.555 79.4357 233.964C74.4706 238.966 67.8936 241.468 59.7049 241.468H5.23663L0.234455 230.907L0.234455 230.352H63.5954C68.5606 230.352 72.5809 229.018 75.6563 226.35C79.4728 223.052 81.381 218.735 81.381 213.4C81.381 208.064 79.4728 203.747 75.6563 200.45C72.5809 197.782 68.5606 196.448 63.5954 196.448H5.23663L0.234457 185.888L0.234457 185.332H63.5954C68.5606 185.332 72.5809 183.998 75.6563 181.33C79.4728 178.032 81.381 173.716 81.381 168.38C81.381 163.044 79.4728 158.728 75.6563 155.43C72.5809 152.762 68.5606 151.428 63.5954 151.428H5.23663L0.234459 140.868L0.234459 140.312Z" fill="#423030"/>
<path d="M0.234453 263.699H59.7049C67.7084 263.699 74.2853 266.201 79.4357 271.203C84.8084 276.464 87.4948 283.319 87.4948 291.767C87.4948 300.067 84.8084 306.922 79.4357 312.332C74.4706 317.334 67.8936 319.835 59.7049 319.835H5.23663L0.234451 309.275L0.234451 308.719H41.3635V274.815H5.23663L0.234453 264.255L0.234453 263.699ZM47.4773 274.815L47.4773 308.719H63.5954C68.5606 308.719 72.5809 307.385 75.6563 304.717C79.4728 301.383 81.381 297.066 81.381 291.767C81.381 286.432 79.4728 282.115 75.6563 278.817C72.5438 276.149 68.5235 274.815 63.5954 274.815H47.4773Z" fill="#423030"/>
<path d="M28.0243 339.844L33.0265 350.404V350.96H24.5784C20.0579 350.96 16.26 352.294 13.1846 354.962C9.36808 358.259 7.4598 362.576 7.4598 367.912C7.4598 373.21 9.36808 377.527 13.1846 380.862C16.1859 383.493 21.3177 384.808 28.5802 384.808C34.2863 384.808 38.3992 383.734 40.9188 381.584C44.4018 378.62 46.1434 374.063 46.1434 367.912C46.1434 360.723 48.1442 354.888 52.146 350.404C55.4808 346.699 60.1866 344.846 66.2633 344.846C73.1181 344.846 78.4167 347.143 82.1591 351.738C85.7162 356.11 87.4948 361.502 87.4948 367.912C87.4948 374.322 85.7162 379.713 82.1591 384.085C78.4167 388.68 73.2849 390.977 66.7635 390.977L61.7613 380.417V379.861H68.8755C73.0996 379.861 76.2491 378.657 78.3241 376.249C80.362 373.914 81.381 371.135 81.381 367.912C81.381 364.318 80.2509 361.427 77.9906 359.241C75.7304 357.055 71.8027 355.962 66.2077 355.962C61.2425 355.962 57.8337 356.796 55.981 358.463C53.4984 360.686 52.2572 363.836 52.2572 367.912C52.2572 377.249 50.1636 384.197 45.9766 388.754C41.5673 393.534 35.8055 395.924 28.6913 395.924C21.1324 395.924 14.7037 393.441 9.40508 388.476C4.03235 383.4 1.34604 376.545 1.34604 367.912C1.34604 359.278 4.03236 352.423 9.40508 347.347C14.7037 342.345 20.9101 339.844 28.0243 339.844Z" fill="#423030"/>
<path d="M0.234447 415.988H83.6042L88.6063 426.548V427.104H47.4773L47.4773 459.897H83.6042L88.6063 470.457V471.012H5.23662L0.234445 460.452L0.234445 459.896L41.3635 459.897V427.104H5.23662L0.234447 416.544L0.234447 415.988Z" fill="#423030"/>
<path d="M0.234443 493.244H59.7048C67.7083 493.244 74.2853 495.745 79.4357 500.748C84.8084 506.009 87.4948 512.864 87.4948 521.312C87.4948 529.612 84.8084 536.467 79.4357 541.877C74.4706 546.879 67.8936 549.38 59.7048 549.38H5.23662L0.234441 538.82L0.234441 538.264H41.3635V504.36H5.23662L0.234443 493.8L0.234443 493.244ZM47.4773 504.36L47.4773 538.264H63.5954C68.5606 538.264 72.5808 536.93 75.6563 534.262C79.4727 530.927 81.381 526.611 81.381 521.312C81.381 515.976 79.4727 511.66 75.6563 508.362C72.5438 505.694 68.5235 504.36 63.5954 504.36H47.4773Z" fill="#423030"/>
<path d="M0.234377 564.621H0.811974L6.58791 567.34L36.2763 598.407C45.2867 607.316 53.6811 611.771 61.4593 611.771C68.2365 611.771 73.1845 610.479 76.3035 607.895C80.2697 604.617 82.2527 600.123 82.2527 594.415C82.2527 588.9 80.2697 584.407 76.3035 580.935C73.223 578.274 68.7178 576.944 62.7878 576.944C58.6291 576.944 55.3754 577.638 53.0265 579.026L48.348 569.307V568.728C52.5066 566.376 57.0696 565.199 62.0369 565.199C68.66 565.199 74.7248 567.803 80.2312 573.01C85.8146 578.293 88.6063 585.429 88.6063 594.415C88.6063 603.402 85.8146 610.537 80.2312 615.821C74.7633 620.989 68.0632 623.573 60.1309 623.573C51.467 623.535 42.3602 618.328 32.8107 607.953L6.58791 577.117L6.58791 623.805H6.01032L0.234375 621.086L0.234377 564.621Z" fill="#423030"/>
</svg>
