<svg width="12" height="18" viewBox="0 0 12 18" fill="none" xmlns="http://www.w3.org/2000/svg">
<path fill-rule="evenodd" clip-rule="evenodd" d="M8.33782 17.3317C8.47068 17.5464 8.68313 17.6999 8.92875 17.7585C9.17438 17.8171 9.43321 17.7761 9.6487 17.6444C9.8642 17.5128 10.0188 17.3012 10.0788 17.056C10.1388 16.8107 10.0993 16.5516 9.96894 16.3354L7.77992 12.7838L7.3205 10.9249C7.29849 10.9507 7.2769 10.9765 7.25549 11.0027L5.77086 12.5996L5.95274 13.3346C5.97366 13.4512 6.01615 13.5629 6.07802 13.664L8.33782 17.3317ZM1.03591 16.4837L2.45844 12.7158C2.50839 12.5826 2.58724 12.4622 2.68931 12.3632L4.91221 9.90238V5.86494C4.9128 5.55873 5.03471 5.26524 5.25123 5.04872C5.46775 4.83219 5.76124 4.71029 6.06745 4.70969C6.37877 4.70969 6.51078 4.79581 6.76377 4.9225L11.5682 7.69635C11.6649 7.75238 11.7497 7.82691 11.8176 7.9157C11.8856 8.00448 11.9353 8.10577 11.9641 8.21379C11.9929 8.32181 12.0001 8.43444 11.9854 8.54526C11.9706 8.65607 11.9342 8.76289 11.8782 8.85963C11.8222 8.95636 11.7476 9.04111 11.6588 9.10905C11.5701 9.17698 11.4688 9.22675 11.3607 9.25554C11.2527 9.28432 11.1401 9.29155 11.0293 9.2768C10.9185 9.26206 10.8116 9.22563 10.7149 9.16961L7.22262 7.15332V9.86233C7.22262 10.3605 7.15873 10.3416 6.88359 10.6785L4.20219 13.5625L2.84267 17.1639C2.75245 17.4035 2.57076 17.5974 2.33757 17.703C2.10438 17.8086 1.83879 17.8172 1.59923 17.727C1.35967 17.6368 1.16575 17.4551 1.06015 17.2219C0.954545 16.9887 0.945689 16.7232 1.03591 16.4837ZM5.62015 0.883301C5.34125 0.883301 5.06861 0.966004 4.83672 1.12095C4.60482 1.2759 4.42408 1.49613 4.31735 1.7538C4.21062 2.01147 4.18269 2.295 4.2371 2.56854C4.29151 2.84208 4.42582 3.09334 4.62303 3.29056C4.82024 3.48777 5.0715 3.62207 5.34504 3.67648C5.61858 3.73089 5.90211 3.70297 6.15978 3.59624C6.41745 3.48951 6.63769 3.30876 6.79263 3.07687C6.94758 2.84497 7.03028 2.57234 7.03028 2.29344C7.03028 1.91945 6.88172 1.56077 6.61726 1.29632C6.35281 1.03187 5.99414 0.883301 5.62015 0.883301ZM4.41912 8.3734V5.90287L3.30092 7.05047L0.963563 7.70949C0.746861 7.76961 0.562752 7.91303 0.45144 8.10844C0.340129 8.30384 0.31066 8.53535 0.369469 8.75241C0.428278 8.96947 0.570587 9.15445 0.765318 9.26693C0.960048 9.37942 1.19138 9.41029 1.40879 9.35279L4.0587 8.63541C4.1486 8.61219 4.23038 8.56467 4.29507 8.49805L4.41912 8.3734Z" fill="#DEC58C"/>
</svg>
