<svg width="24" height="24" viewBox="0 0 24 24" fill="none" xmlns="http://www.w3.org/2000/svg">
<circle opacity="0.2" cx="11.8672" cy="12.0562" r="11.5273" fill="#F6F4F2"/>
<path d="M11.8666 11.7002C11.3945 11.7002 10.9418 11.5126 10.608 11.1788C10.2742 10.8451 10.0866 10.3923 10.0866 9.92026C10.0866 9.4482 10.2742 8.99548 10.608 8.66168C10.9418 8.32788 11.3945 8.14036 11.8666 8.14036C12.3386 8.14036 12.7913 8.32788 13.1251 8.66168C13.4589 8.99548 13.6465 9.4482 13.6465 9.92026C13.6465 10.154 13.6004 10.3855 13.511 10.6014C13.4215 10.8174 13.2904 11.0136 13.1251 11.1788C12.9599 11.3441 12.7636 11.4752 12.5477 11.5647C12.3317 11.6541 12.1003 11.7002 11.8666 11.7002ZM11.8666 4.93652C10.5448 4.93652 9.27715 5.46159 8.34252 6.39623C7.40788 7.33086 6.88281 8.59849 6.88281 9.92026C6.88281 13.6581 11.8666 19.1758 11.8666 19.1758C11.8666 19.1758 16.8503 13.6581 16.8503 9.92026C16.8503 8.59849 16.3252 7.33086 15.3906 6.39623C14.456 5.46159 13.1883 4.93652 11.8666 4.93652Z" fill="#DEC58C"/>
</svg>
