<svg width="157" height="94" viewBox="0 0 157 94" fill="none" xmlns="http://www.w3.org/2000/svg">
<path d="M74.2404 5.91639C70.7143 6.70811 65.5683 9.16328 65.5683 10.0543C65.5683 10.2742 66.0482 10.5529 66.7839 10.7603C67.9925 11.1008 68.0113 11.0968 70.0517 10.0784C72.9348 8.6389 74.803 8.21381 78.2623 8.2098C81.6871 8.20579 83.4884 8.62184 86.4837 10.1087C88.4992 11.1093 88.5728 11.1254 89.6949 10.8119C91.0171 10.4425 91.2549 10.1925 90.8017 9.64754C90.3198 9.06823 85.1472 6.63564 83.4153 6.1742C81.253 5.59765 76.282 5.45822 74.2404 5.91639Z" fill="#FFF6EE"/>
<path d="M75.6229 10.1784C72.4517 10.7999 71.0712 11.4983 72.1561 11.9322C72.872 12.2186 79.6905 12.4021 82.1185 12.2005C83.6873 12.0701 84.3697 11.9114 84.469 11.6535C84.6633 11.148 84.6168 11.1229 82.4309 10.5652C79.7695 9.88628 77.711 9.76917 75.6229 10.1784Z" fill="#FFF6EE"/>
<path fill-rule="evenodd" clip-rule="evenodd" d="M78.2049 53.038C92.6753 53.038 104.406 41.3074 104.406 26.837C104.406 12.3666 92.6753 0.635986 78.2049 0.635986C63.7345 0.635986 52.0039 12.3666 52.0039 26.837C52.0039 41.3074 63.7345 53.038 78.2049 53.038ZM68.8361 5.9826C70.482 5.15326 72.3919 4.57445 74.8688 4.1544C77.2088 3.75741 80.7908 3.88857 83.4153 4.46737C86.9714 5.25157 92.662 8.70535 94.9097 11.0191C94.1272 11.4213 91.7616 12.3174 88.8196 13.1051C82.6215 14.7648 74.0011 14.7133 67.2022 12.9762C64.6076 12.3131 61.7702 11.3383 61.5726 11.0191C61.3059 10.5885 66.019 7.40203 68.8361 5.9826ZM59.9754 26.93C61.0208 26.1214 67.3161 24.0989 70.671 23.4932L70.8823 23.4551C72.5466 23.1544 73.0087 23.071 73.256 23.2634C73.351 23.3373 73.4143 23.452 73.502 23.6107C73.5114 23.6277 73.5211 23.6453 73.5311 23.6633C74.0371 24.5736 73.9571 33.6956 73.4182 36.5159C72.6382 40.5986 70.6539 46.7716 69.8448 47.6333C69.5856 47.9094 69.2526 47.8279 67.9269 47.1651C62.5587 44.4805 58.4454 39.7118 56.5033 33.9223C55.3943 30.616 55.2988 29.8002 55.9267 29.0039C56.6116 28.135 56.8469 28.1999 57.0234 29.3059C57.4331 31.8769 58.0457 33.7598 59.3251 36.3827C60.5998 38.9966 60.9487 39.4786 63.1482 41.6627C65.3448 43.8442 67.5176 45.4187 68.3321 45.4187C69.0909 45.4187 70.9003 39.6762 71.4699 35.4591C71.855 32.61 71.9281 25.9589 71.5785 25.6096C71.0358 25.0677 62.1075 27.586 61.5726 28.4319C61.2523 28.9387 61.7325 31.4471 62.4959 33.2557C63.1016 34.6909 65.1354 37.8952 65.4409 37.8952C65.7689 37.8952 66.2095 36.3882 66.3689 34.72C66.4946 33.4044 66.434 33.0415 65.9614 32.2787C65.604 31.7016 65.4655 31.1963 65.5726 30.8597C65.7862 30.1884 67.1285 29.3708 68.0191 29.3696C68.7016 29.3686 68.7104 29.3889 68.7104 30.9806C68.7104 34.1119 67.3975 40.8815 66.7482 41.0974C66.1258 41.3043 63.0169 37.7159 61.8267 35.4167C60.0327 31.9516 59.0873 27.6169 59.9754 26.93ZM82.9442 23.7887C82.3193 27.0049 82.6039 34.2277 83.5249 38.5221C84.202 41.6795 86.2421 47.4518 86.8035 47.7978C87.0998 47.9807 88.9212 47.1042 90.9997 45.7785C93.2276 44.3576 96.797 40.6026 98.0898 38.32C99.4343 35.9459 100.645 32.5267 100.819 30.6135C100.935 29.3377 100.889 29.1489 100.373 28.7883C99.6575 28.2882 99.377 28.4444 99.377 29.3432C99.377 30.553 98.3972 33.9373 97.4996 35.8275C95.8775 39.2431 93.3211 42.252 90.2233 44.3917C88.2827 45.7319 87.923 45.7138 87.2916 44.2437C86.4842 42.3649 85.1163 36.7371 84.7955 33.9755C84.4559 31.0518 84.5442 26.0088 84.9418 25.6129C85.3845 25.1725 91.1465 26.5909 93.9621 27.8335C95.2707 28.4108 95.3112 28.5851 94.718 31.0955C94.0682 33.8463 91.4165 38.3293 90.8022 37.7164C90.6807 37.5953 90.4226 36.5984 90.2288 35.5012C89.8988 33.6336 89.9066 33.4536 90.3535 32.6772C91.097 31.3844 90.9852 30.4585 90.0136 29.8674C89.5644 29.594 88.8855 29.3701 88.5054 29.3696C87.8195 29.3686 87.8142 29.3814 87.8157 31.0614C87.8182 34.0579 89.1213 40.8795 89.7296 41.0819C90.1433 41.2193 92.8186 38.4193 94 36.6122C95.2921 34.6355 96.0027 32.9159 96.4979 30.5673C97.0252 28.066 96.9795 27.197 96.2978 26.7637C94.6845 25.7387 85.5318 23.1479 83.3723 23.1048C83.2107 23.1018 83.0179 23.4092 82.9442 23.7887ZM86.683 16.7337C89.8631 16.119 94.7572 14.696 95.8194 14.0774C96.0479 13.9442 96.4303 13.8318 96.6691 13.8276C97.2311 13.8178 98.0378 15.7419 98.0378 15.7419C99.377 19.4127 100.877 23.8328 100.877 23.8328C101.024 24.6134 101.073 25.4932 100.696 25.3021C95.3941 22.6107 90.6787 21.0313 85.1748 20.1029C83.3771 19.7995 80.6068 19.6731 80.3949 19.8847C80.094 20.1849 79.506 24.5498 79.354 27.6131C79.0672 33.3856 80.2629 40.3965 82.5161 46.1562C83.2921 48.1396 83.4643 48.823 83.2265 48.9737C82.7497 49.2759 82.1026 49.5476 81.5096 49.7144C81.5096 49.7144 76.0231 49.7898 75.7931 49.7144C75.7931 49.7144 73.9526 49.2672 73.3938 48.8594C72.9778 48.556 72.9836 48.4709 73.5012 47.292C73.802 46.6066 74.4207 44.8511 74.8756 43.3911C77.3624 35.4147 77.8729 28.2909 76.4633 21.2455L76.1676 19.7681L73.5072 19.9221C70.5926 20.0911 67.4847 20.692 64.1858 21.7245C61.9356 22.4289 57.1855 24.4031 56.216 25.0368C55.7002 25.3741 55.6283 25.3683 55.478 24.9776C55.3865 24.7396 55.4136 24.2478 55.5383 23.8847C55.9194 22.7745 57.636 18.0734 57.636 18.0734L59.0584 14.6499C59.4865 13.949 60.1584 13.9816 62.5786 14.8202C68.2273 16.7778 72.0907 17.4057 78.5136 17.4105C82.5476 17.4133 83.6304 17.3237 86.683 16.7337Z" fill="#FFF6EE"/>
<path d="M83.1155 91.6098H82.4913V92.9878H82.1808V91.6098H81.5566L80.6372 92.9878H80.2683L81.2952 91.4406L80.3482 89.9827H80.6895L81.5504 91.3299H82.1808V89.9827H82.4913V91.3299H83.1155L83.9795 89.9827H84.3239L83.3707 91.4406L84.4007 92.9878H84.0318L83.1155 91.6098Z" fill="#FFF6EE"/>
<path d="M85.1233 89.9827H85.4369V92.4741L87.3587 89.9827H87.6446V92.9878H87.334V90.5025L85.4093 92.9878H85.1233V89.9827Z" fill="#FFF6EE"/>
<path d="M91.1806 89.9827V92.9878H90.867V90.2564H89.4187L89.3849 91.2622C89.3696 91.6775 89.3388 92.0097 89.2835 92.265C89.2312 92.5203 89.1482 92.7079 89.0406 92.831C88.9329 92.9571 88.7854 93.0186 88.607 93.0186C88.5302 93.0186 88.4502 93.0094 88.3672 92.9878L88.3949 92.7049C88.4441 92.7172 88.4902 92.7233 88.5363 92.7233C88.6624 92.7233 88.7638 92.6741 88.8438 92.5756C88.9237 92.4772 88.9821 92.3204 89.0221 92.1112C89.0621 91.902 89.0898 91.6221 89.1051 91.2745L89.1482 89.9857H91.1867L91.1806 89.9827Z" fill="#FFF6EE"/>
<path d="M92.9178 92.8125C92.6749 92.6772 92.4874 92.4957 92.3521 92.265C92.2137 92.0343 92.1461 91.7729 92.1461 91.4837C92.1461 91.1946 92.2137 90.9331 92.3521 90.7024C92.4904 90.4717 92.678 90.2872 92.9178 90.1549C93.1607 90.0226 93.4282 89.955 93.7265 89.955C94.0247 89.955 94.2892 90.0226 94.529 90.1549C94.7689 90.2872 94.9564 90.4687 95.0917 90.7024C95.2301 90.9362 95.2977 91.1976 95.2977 91.4868C95.2977 91.7759 95.227 92.0374 95.0917 92.2711C94.9533 92.5049 94.7658 92.6864 94.529 92.8187C94.2892 92.9509 94.0217 93.0186 93.7265 93.0186C93.4313 93.0186 93.1607 92.9509 92.9178 92.8187M94.3691 92.5726C94.5628 92.4649 94.7104 92.3142 94.818 92.1266C94.9257 91.9359 94.981 91.7236 94.981 91.4899C94.981 91.2561 94.9257 91.0438 94.818 90.8531C94.7104 90.6624 94.5567 90.5148 94.3691 90.4071C94.1754 90.2995 93.9632 90.2472 93.7265 90.2472C93.4897 90.2472 93.2745 90.2995 93.0808 90.4071C92.8871 90.5148 92.7364 90.6655 92.6257 90.8531C92.515 91.0438 92.4628 91.2561 92.4628 91.4899C92.4628 91.7236 92.5181 91.9359 92.6257 92.1266C92.7364 92.3173 92.8902 92.4649 93.0808 92.5726C93.2745 92.6802 93.4897 92.7325 93.7265 92.7325C93.9632 92.7325 94.1785 92.6802 94.3691 92.5726Z" fill="#FFF6EE"/>
<path d="M96.2755 89.9827H96.5891V92.4741L98.5108 89.9827H98.7968V92.9878H98.4832V90.5025L96.5614 92.9878H96.2755V89.9827ZM97.0195 89.6166C96.8935 89.5213 96.832 89.3828 96.8289 89.2106H97.0657C97.0657 89.3244 97.1118 89.4167 97.1948 89.4813C97.2779 89.5489 97.3916 89.5797 97.5269 89.5797C97.6622 89.5797 97.7759 89.5489 97.859 89.4813C97.9451 89.4167 97.9881 89.3275 97.9912 89.2106H98.2279C98.2279 89.3859 98.1603 89.5213 98.0342 89.6166C97.9082 89.712 97.7391 89.7643 97.53 89.7643C97.3209 89.7643 97.1456 89.715 97.0226 89.6166" fill="#FFF6EE"/>
<path d="M102.363 91.6098H101.675V92.9878H101.364V89.9827H101.675V91.3299H102.363L103.378 89.9827H103.723L102.603 91.4437L103.784 92.9878H103.421L102.363 91.6098Z" fill="#FFF6EE"/>
<path d="M104.995 92.8125C104.753 92.6772 104.565 92.4957 104.43 92.265C104.291 92.0343 104.224 91.7729 104.224 91.4837C104.224 91.1946 104.291 90.9331 104.43 90.7024C104.568 90.4717 104.756 90.2872 104.995 90.1549C105.238 90.0226 105.506 89.955 105.804 89.955C106.102 89.955 106.367 90.0226 106.607 90.1549C106.846 90.2872 107.034 90.4687 107.169 90.7024C107.308 90.9362 107.375 91.1976 107.375 91.4868C107.375 91.7759 107.305 92.0374 107.169 92.2711C107.031 92.5049 106.843 92.6864 106.607 92.8187C106.367 92.9509 106.099 93.0186 105.804 93.0186C105.509 93.0186 105.238 92.9509 104.995 92.8187M106.447 92.5726C106.64 92.4649 106.788 92.3142 106.896 92.1266C107.003 91.9359 107.059 91.7236 107.059 91.4899C107.059 91.2561 107.003 91.0438 106.896 90.8531C106.788 90.6624 106.634 90.5148 106.447 90.4071C106.253 90.2995 106.041 90.2472 105.804 90.2472C105.567 90.2472 105.352 90.2995 105.158 90.4071C104.965 90.5148 104.814 90.6655 104.703 90.8531C104.593 91.0438 104.54 91.2561 104.54 91.4899C104.54 91.7236 104.596 91.9359 104.703 92.1266C104.814 92.3173 104.968 92.4649 105.158 92.5726C105.352 92.6802 105.567 92.7325 105.804 92.7325C106.041 92.7325 106.256 92.6802 106.447 92.5726Z" fill="#FFF6EE"/>
<path d="M111.471 89.9827V92.9878H111.167V90.5855L109.986 92.6064H109.835L108.658 90.5978V92.9878H108.35V89.9827H108.614L109.918 92.2127L111.21 89.9827H111.471Z" fill="#FFF6EE"/>
<path d="M115.228 89.9827V92.9878H114.915V90.2595H113.011V92.9878H112.701V89.9827H115.228Z" fill="#FFF6EE"/>
<path d="M118.761 89.9827V92.9878H118.448V90.2564H116.999L116.966 91.2622C116.95 91.6775 116.919 92.0097 116.864 92.265C116.812 92.5203 116.729 92.7079 116.621 92.831C116.514 92.9571 116.366 93.0186 116.188 93.0186C116.111 93.0186 116.031 93.0094 115.948 92.9878L115.975 92.7049C116.025 92.7172 116.071 92.7233 116.117 92.7233C116.243 92.7233 116.344 92.6741 116.424 92.5756C116.504 92.4772 116.563 92.3204 116.603 92.1112C116.643 91.902 116.67 91.6221 116.686 91.2745L116.729 89.9857H118.767L118.761 89.9827Z" fill="#FFF6EE"/>
<path d="M122.116 92.7141V92.9878H119.988V89.9827H122.051V90.2595H120.308V91.3299H121.864V91.5975H120.308V92.7141H122.116Z" fill="#FFF6EE"/>
<path d="M124.028 91.6098H123.343V92.9878H123.032V89.9827H123.343V91.3299H124.028L125.046 89.9827H125.387L124.274 91.4437L125.455 92.9878H125.089L124.028 91.6098Z" fill="#FFF6EE"/>
<path d="M126.663 92.8156C126.423 92.6833 126.236 92.5018 126.101 92.2681C125.962 92.0343 125.895 91.7729 125.895 91.4837C125.895 91.1946 125.962 90.9331 126.101 90.6994C126.236 90.4656 126.427 90.2841 126.663 90.1518C126.903 90.0196 127.171 89.9519 127.469 89.9519C127.69 89.9519 127.899 89.9888 128.087 90.0626C128.278 90.1364 128.434 90.2472 128.567 90.3887L128.364 90.5917C128.13 90.3548 127.832 90.2349 127.475 90.2349C127.238 90.2349 127.023 90.2902 126.826 90.3979C126.63 90.5056 126.479 90.6563 126.371 90.8439C126.261 91.0346 126.205 91.2438 126.205 91.4776C126.205 91.7113 126.261 91.9236 126.371 92.1112C126.482 92.3019 126.636 92.4465 126.826 92.5572C127.023 92.6649 127.235 92.7202 127.475 92.7202C127.835 92.7202 128.133 92.6003 128.364 92.3603L128.567 92.5634C128.434 92.7079 128.275 92.8156 128.084 92.8894C127.893 92.9663 127.687 93.0032 127.463 93.0032C127.165 93.0032 126.897 92.9386 126.66 92.8033L126.663 92.8156Z" fill="#FFF6EE"/>
<path d="M78.5741 89.8012H78.2912V93.8184H78.5741V89.8012Z" fill="#FFF6EE"/>
<path d="M30.2727 90.2564H29.218V92.9847H28.9013V90.2564H27.8467V89.9796H30.2727V90.2564Z" fill="#FFF6EE"/>
<path d="M32.0345 91.9451V92.9817H31.7209V91.9451L30.5186 89.9796H30.8569L31.8869 91.6652L32.917 89.9796H33.2367L32.0345 91.9451ZM30.9061 91.8036H32.8339V92.0435H30.9061V91.8036Z" fill="#FFF6EE"/>
<path d="M35.9272 90.2564C36.1424 90.441 36.2531 90.6932 36.2531 91.01C36.2531 91.3268 36.1455 91.5821 35.9272 91.7636C35.7119 91.9451 35.4106 92.0343 35.0262 92.0343H34.2207V92.9817H33.9009V89.9765H35.0262C35.4106 89.9765 35.7088 90.0657 35.9272 90.2503M35.6996 91.5575C35.8564 91.4283 35.9364 91.2438 35.9364 91.0038C35.9364 90.7639 35.8564 90.5732 35.6996 90.441C35.5428 90.3118 35.3153 90.2441 35.017 90.2441H34.2176V91.7482H35.017C35.3153 91.7482 35.5428 91.6836 35.6996 91.5514" fill="#FFF6EE"/>
<path d="M37.5721 90.2564V91.4683H38.8697V91.7113H37.5783V92.9847H37.2647V91.7113H36.8035V91.4683H37.2647V89.9796H39.1741V90.2564H37.5721Z" fill="#FFF6EE"/>
<path d="M42.0551 91.293C42.2427 91.453 42.3349 91.6867 42.3349 91.9974C42.3349 92.308 42.2366 92.5665 42.0367 92.7356C41.8368 92.9017 41.5509 92.9878 41.1758 92.9878H39.9828V89.9827H40.2964V91.0561H41.2403C41.5939 91.0561 41.8645 91.1392 42.0521 91.2961M41.7969 92.5511C41.9414 92.428 42.0121 92.2465 42.0121 92.0066C42.0121 91.5452 41.7292 91.3176 41.1604 91.3176H40.2902V92.7387H41.1604C41.4371 92.7387 41.6493 92.6772 41.7938 92.5541M42.8484 89.9857H43.1621V92.9909H42.8484V89.9857Z" fill="#FFF6EE"/>
<path d="M46.9071 89.9796V92.9847H46.5935V91.6006H44.7148V92.9847H44.3981V89.9796H44.7148V91.3207H46.5935V89.9796H46.9071Z" fill="#FFF6EE"/>
<path d="M50.52 91.9451V92.9847H50.2063V91.9451L49.0072 89.9796H49.3454L50.3724 91.6683L51.4055 89.9796H51.7222L50.52 91.9451Z" fill="#FFF6EE"/>
<path d="M52.4232 89.9796H52.7369V92.4711L54.6586 89.9796H54.9445V92.9847H54.6309V90.4994L52.7092 92.9847H52.4232V89.9796ZM53.1673 89.6135C53.0413 89.5182 52.9798 89.3798 52.9767 89.2075H53.2135C53.2135 89.3213 53.2596 89.4136 53.3426 89.4782C53.4256 89.5459 53.5363 89.5766 53.6747 89.5766C53.813 89.5766 53.9237 89.5459 54.0067 89.4782C54.0928 89.4136 54.1359 89.3244 54.139 89.2075H54.3757C54.3757 89.3828 54.3081 89.5182 54.182 89.6135C54.0559 89.7089 53.8868 89.7612 53.6777 89.7612C53.4687 89.7612 53.2934 89.712 53.1704 89.6135" fill="#FFF6EE"/>
<path d="M58.5082 91.6068H57.8194V92.9847H57.512V89.9796H57.8194V91.3299H58.5082L59.5259 89.9796H59.8672L58.7511 91.4406L59.9318 92.9847H59.5659L58.5082 91.6068Z" fill="#FFF6EE"/>
<path d="M62.7606 92.711V92.9847H60.6359V89.9796H62.696V90.2564H60.9495V91.3268H62.5054V91.5944H60.9495V92.711H62.7606Z" fill="#FFF6EE"/>
<path d="M67.3604 89.9796V92.9847H63.6769V89.9796H63.9905V92.711H65.3649V89.9796H65.6785V92.711H67.0499V89.9796H67.3604Z" fill="#FFF6EE"/>
<path d="M70.7119 92.711V92.9847H68.5873V89.9796H70.6473V90.2564H68.9039V91.3268H70.4598V91.5944H68.9039V92.711H70.7119Z" fill="#FFF6EE"/>
<path d="M74.1433 89.9796V92.9847H73.8266V91.6006H71.948V92.9847H71.6313V89.9796H71.948V91.3207H73.8266V89.9796H74.1433Z" fill="#FFF6EE"/>
<path d="M75.6807 89.9796H75.3671V92.9847H75.6807V89.9796Z" fill="#FFF6EE"/>
<path d="M6.21228 85.0585V65.0445H0.263672V64.9055L0.916907 63.5157H14.9406V63.6546L14.2874 65.0445H8.992V83.8076L6.35127 85.0585H6.21228Z" fill="#FFF6EE"/>
<path d="M15.705 85.0585V70.187C15.705 68.1856 16.3305 66.5409 17.5813 65.253C18.8971 63.9094 20.6112 63.2377 22.7238 63.2377C24.7994 63.2377 26.5135 63.9094 27.8663 65.253C29.1172 66.4946 29.7426 68.1393 29.7426 70.187V83.8076L27.1019 85.0585H26.9629V74.7735H18.4848V83.8076L15.844 85.0585H15.705ZM18.4848 73.2447H26.9629V69.2141C26.9629 67.9725 26.6293 66.9671 25.9622 66.1981C25.1283 65.2437 24.0488 64.7665 22.7238 64.7665C21.3896 64.7665 20.3101 65.2437 19.4855 66.1981C18.8183 66.9764 18.4848 67.9817 18.4848 69.2141V73.2447Z" fill="#FFF6EE"/>
<path d="M35.3021 85.0585V70.187C35.3021 68.1856 35.9275 66.5409 37.1784 65.253C38.4941 63.9094 40.2083 63.2377 42.3209 63.2377C44.2296 63.2377 45.8558 63.9094 47.1993 65.253C47.5329 65.5865 47.783 65.9108 47.9498 66.2259C48.1629 65.9016 48.4224 65.5912 48.7281 65.2947C50.1273 63.9233 51.7442 63.2377 53.5788 63.2377C55.6543 63.2377 57.3685 63.9094 58.7213 65.253C59.9721 66.4946 60.5976 68.1393 60.5976 70.187V83.8076L57.9568 85.0585H57.8179V69.2141C57.8179 67.9725 57.4843 66.9671 56.8171 66.1981C55.9925 65.2437 54.913 64.7665 53.5788 64.7665C52.2445 64.7665 51.165 65.2437 50.3404 66.1981C49.6733 66.9671 49.3397 67.9725 49.3397 69.2141V83.8076L46.699 85.0585H46.56V69.2141C46.56 67.9725 46.2264 66.9671 45.5593 66.1981C44.7346 65.2437 43.6552 64.7665 42.3209 64.7665C40.9866 64.7665 39.9072 65.2437 39.0825 66.1981C38.4154 66.9671 38.0818 67.9725 38.0818 69.2141V83.8076L35.4411 85.0585H35.3021Z" fill="#FFF6EE"/>
<path d="M66.157 85.0585V70.187C66.157 68.1856 66.7825 66.5409 68.0333 65.253C69.3491 63.9094 71.0632 63.2377 73.1758 63.2377C75.2513 63.2377 76.9655 63.9094 78.3183 65.253C79.5692 66.4946 80.1946 68.1393 80.1946 70.187V83.8076L77.5539 85.0585H77.4149V74.7735H68.9367V83.8076L66.296 85.0585H66.157ZM68.9367 73.2447H77.4149V69.2141C77.4149 67.9725 77.0813 66.9671 76.4142 66.1981C75.5803 65.2437 74.5008 64.7665 73.1758 64.7665C71.8416 64.7665 70.7621 65.2437 69.9374 66.1981C69.2703 66.9764 68.9367 67.9817 68.9367 69.2141V73.2447Z" fill="#FFF6EE"/>
<path d="M85.1981 78.1092L87.8389 76.8583H87.9778V78.9709C87.9778 80.1013 88.3114 81.0511 88.9785 81.8201C89.8032 82.7745 90.8827 83.2517 92.2169 83.2517C93.5419 83.2517 94.6214 82.7745 95.4553 81.8201C96.1132 81.0696 96.4421 79.7863 96.4421 77.9702C96.4421 76.5433 96.1734 75.5148 95.636 74.8847C94.8947 74.0137 93.755 73.5783 92.2169 73.5783C90.4194 73.5783 88.96 73.0779 87.8389 72.0772C86.9123 71.2433 86.449 70.0665 86.449 68.5469C86.449 66.8328 87.0235 65.5078 88.1724 64.572C89.2658 63.6824 90.614 63.2377 92.2169 63.2377C93.8199 63.2377 95.1681 63.6824 96.2614 64.572C97.4104 65.5078 97.9848 66.7911 97.9848 68.4219L95.3441 69.6727H95.2051V67.8937C95.2051 66.8374 94.904 66.0498 94.3017 65.531C93.718 65.0213 93.023 64.7665 92.2169 64.7665C91.3181 64.7665 90.5954 65.0491 90.0487 65.6143C89.5021 66.1796 89.2287 67.1617 89.2287 68.5609C89.2287 69.8025 89.4372 70.6549 89.8542 71.1182C90.4101 71.739 91.1977 72.0494 92.2169 72.0494C94.5519 72.0494 96.2892 72.5729 97.4289 73.6199C98.6242 74.7226 99.2218 76.1634 99.2218 77.9424C99.2218 79.8326 98.601 81.4402 97.3594 82.7652C96.09 84.1088 94.3758 84.7805 92.2169 84.7805C90.058 84.7805 88.3438 84.1088 87.0744 82.7652C85.8236 81.4402 85.1981 79.8882 85.1981 78.1092Z" fill="#FFF6EE"/>
<path d="M104.239 85.0585V64.2106L106.88 62.9597H107.019V73.2447H115.219V64.2106L117.86 62.9597H117.999V83.8076L115.358 85.0585H115.219V74.7735H107.019V83.8076L104.378 85.0585H104.239Z" fill="#FFF6EE"/>
<path d="M123.558 85.0585V70.187C123.558 68.1856 124.184 66.5409 125.435 65.253C126.75 63.9094 128.465 63.2377 130.577 63.2377C132.653 63.2377 134.367 63.9094 135.72 65.253C136.97 66.4946 137.596 68.1393 137.596 70.187V83.8076L134.955 85.0585H134.816V74.7735H126.338V83.8076L123.697 85.0585H123.558ZM126.338 73.2447H134.816V69.2141C134.816 67.9725 134.483 66.9671 133.815 66.1981C132.982 65.2437 131.902 64.7665 130.577 64.7665C129.243 64.7665 128.163 65.2437 127.339 66.1981C126.672 66.9764 126.338 67.9817 126.338 69.2141V73.2447Z" fill="#FFF6EE"/>
<path d="M141.469 85.0945V84.951L142.143 83.5163L149.847 76.1421C152.057 73.9041 153.161 71.819 153.161 69.887C153.161 68.2036 152.841 66.9746 152.2 66.1999C151.387 65.2147 150.273 64.7222 148.857 64.7222C147.49 64.7222 146.375 65.2147 145.515 66.1999C144.855 66.965 144.525 68.0841 144.525 69.557C144.525 70.59 144.697 71.3982 145.041 71.9816L142.631 73.1437H142.487C141.904 72.1107 141.612 70.9773 141.612 69.7435C141.612 68.0984 142.258 66.592 143.549 65.2243C144.859 63.8375 146.629 63.144 148.857 63.144C151.086 63.144 152.855 63.8375 154.166 65.2243C155.447 66.5825 156.088 68.2467 156.088 70.217C156.078 72.369 154.787 74.631 152.214 77.0029L144.568 83.5163H156.145V83.6598L155.471 85.0945H141.469Z" fill="#FFF6EE"/>
</svg>
