<svg width="156" height="94" viewBox="0 0 156 94" fill="none" xmlns="http://www.w3.org/2000/svg">
<path d="M74.0227 5.91615C70.4965 6.70787 65.3505 9.16303 65.3505 10.0541C65.3505 10.274 65.8304 10.5526 66.5661 10.76C67.7747 11.1006 67.7936 11.0966 69.8339 10.0781C72.7171 8.63865 74.5852 8.21357 78.0445 8.20956C81.4694 8.20554 83.2707 8.6216 86.2659 10.1085C88.2814 11.1091 88.355 11.1252 89.4771 10.8117C90.7993 10.4423 91.0371 10.1922 90.5839 9.64729C90.102 9.06799 84.9294 6.63539 83.1975 6.17395C81.0353 5.59741 76.0642 5.45797 74.0227 5.91615Z" fill="#271A1A"/>
<path d="M75.4052 10.1782C72.2339 10.7996 70.8534 11.4981 71.9383 11.9319C72.6542 12.2183 79.4728 12.4019 81.9007 12.2003C83.4695 12.0699 84.1519 11.9111 84.2512 11.6533C84.4455 11.1477 84.399 11.1226 82.2132 10.5649C79.5517 9.88604 77.4933 9.76892 75.4052 10.1782Z" fill="#271A1A"/>
<path fill-rule="evenodd" clip-rule="evenodd" d="M77.9871 53.0377C92.4576 53.0377 104.188 41.3071 104.188 26.8367C104.188 12.3663 92.4576 0.635742 77.9871 0.635742C63.5167 0.635742 51.7861 12.3663 51.7861 26.8367C51.7861 41.3071 63.5167 53.0377 77.9871 53.0377ZM68.6183 5.98236C70.2642 5.15302 72.1741 4.57421 74.6511 4.15415C76.991 3.75716 80.573 3.88832 83.1975 4.46713C86.7536 5.25132 92.4442 8.70511 94.692 11.0188C93.9095 11.4211 91.5439 12.3171 88.6019 13.1048C82.4037 14.7645 73.7834 14.7131 66.9844 12.9759C64.3898 12.3129 61.5524 11.3381 61.3548 11.0188C61.0881 10.5882 65.8012 7.40178 68.6183 5.98236ZM59.7576 26.9297C60.8031 26.1212 67.0983 24.0986 70.4533 23.493L70.6646 23.4548C72.3288 23.1542 72.7909 23.0707 73.0382 23.2631C73.1332 23.3371 73.1966 23.4518 73.2842 23.6105C73.2936 23.6275 73.3033 23.645 73.3133 23.663C73.8193 24.5734 73.7394 33.6953 73.2004 36.5156C72.4205 40.5984 70.4362 46.7714 69.627 47.6331C69.3679 47.9092 69.0348 47.8277 67.7091 47.1649C62.3409 44.4803 58.2276 39.7116 56.2855 33.922C55.1765 30.6157 55.081 29.7999 55.7089 29.0037C56.3939 28.1347 56.6291 28.1997 56.8056 29.3056C57.2153 31.8767 57.8279 33.7595 59.1074 36.3825C60.382 38.9964 60.7309 39.4784 62.9304 41.6624C65.1271 43.844 67.2999 45.4184 68.1143 45.4184C68.8732 45.4184 70.6825 39.676 71.2521 35.4588C71.6372 32.6097 71.7103 25.9587 71.3607 25.6094C70.818 25.0674 61.8897 27.5858 61.3548 28.4317C61.0346 28.9385 61.5147 31.4468 62.2781 33.2555C62.8839 34.6907 64.9177 37.8949 65.2231 37.8949C65.5511 37.8949 65.9918 36.388 66.1511 34.7198C66.2768 33.4042 66.2162 33.0413 65.7437 32.2784C65.3862 31.7014 65.2477 31.196 65.3548 30.8595C65.5685 30.1881 66.9108 29.3706 67.8013 29.3693C68.4838 29.3683 68.4926 29.3887 68.4926 30.9804C68.4926 34.1116 67.1797 40.8813 66.5304 41.0972C65.9081 41.3041 62.7992 37.7156 61.6089 35.4165C59.8149 31.9514 58.8696 27.6166 59.7576 26.9297ZM82.7265 23.7884C82.1016 27.0047 82.3861 34.2275 83.3071 38.5219C83.9843 41.6792 86.0244 47.4515 86.5857 47.7976C86.882 47.9804 88.7034 47.1039 90.782 45.7783C93.0098 44.3574 96.5792 40.6024 97.872 38.3198C99.2166 35.9456 100.427 32.5264 100.601 30.6132C100.717 29.3375 100.671 29.1486 100.155 28.788C99.4398 28.288 99.1592 28.4442 99.1592 29.343C99.1592 30.5528 98.1794 33.9371 97.2818 35.8272C95.6597 39.2429 93.1033 42.2518 90.0055 44.3915C88.065 45.7316 87.7053 45.7136 87.0738 44.2435C86.2664 42.3646 84.8985 36.7368 84.5778 33.9752C84.2382 31.0516 84.3264 26.0086 84.724 25.6126C85.1667 25.1722 90.9288 26.5907 93.7443 27.8333C95.0529 28.4106 95.0934 28.5849 94.5002 31.0952C93.8504 33.8461 91.1987 38.329 90.5844 37.7161C90.463 37.595 90.2048 36.5981 90.011 35.501C89.681 33.6334 89.6888 33.4533 90.1357 32.6769C90.8793 31.3841 90.7674 30.4582 89.7959 29.8671C89.3467 29.5938 88.6677 29.3698 88.2877 29.3693C87.6017 29.3683 87.5964 29.3811 87.5979 31.0611C87.6004 34.0577 88.9035 40.8793 89.5118 41.0816C89.9256 41.2191 92.6009 38.4191 93.7823 36.6119C95.0743 34.6353 95.7849 32.9156 96.2801 30.5671C96.8075 28.0658 96.7617 27.1968 96.08 26.7635C94.4667 25.7385 85.314 23.1477 83.1545 23.1045C82.9929 23.1015 82.8001 23.409 82.7265 23.7884ZM86.4653 16.7334C89.6453 16.1187 94.5394 14.6958 95.6017 14.0771C95.8302 13.944 96.2125 13.8316 96.4513 13.8273C97.0133 13.8176 97.82 15.7417 97.82 15.7417C99.1592 19.4124 100.66 23.8326 100.66 23.8326C100.806 24.6132 100.855 25.493 100.479 25.3019C95.1763 22.6105 90.461 21.0311 84.9571 20.1027C83.1593 19.7992 80.389 19.6728 80.1771 19.8845C79.8762 20.1847 79.2883 24.5496 79.1362 27.6129C78.8494 33.3854 80.0451 40.3963 82.2984 46.156C83.0743 48.1394 83.2465 48.8228 83.0087 48.9735C82.5319 49.2757 81.8848 49.5474 81.2918 49.7141C81.2918 49.7141 75.8054 49.7896 75.5753 49.7141C75.5753 49.7141 73.7348 49.2669 73.176 48.8592C72.76 48.5557 72.7658 48.4707 73.2834 47.2918C73.5843 46.6064 74.2029 44.8509 74.6579 43.3908C77.1446 35.4145 77.6551 28.2907 76.2455 21.2452L75.9499 19.7679L73.2894 19.9219C70.3748 20.0909 67.2669 20.6918 63.968 21.7242C61.7178 22.4287 56.9677 24.4028 55.9982 25.0366C55.4824 25.3739 55.4105 25.3681 55.2602 24.9774C55.1687 24.7394 55.1958 24.2476 55.3205 23.8845C55.7016 22.7743 57.4183 18.0731 57.4183 18.0731L58.8407 14.6497C59.2687 13.9487 59.9406 13.9813 62.3608 14.8199C68.0095 16.7775 71.873 17.4055 78.2959 17.4103C82.3298 17.413 83.4127 17.3235 86.4653 16.7334Z" fill="#271A1A"/>
<path d="M82.8977 91.6096H82.2735V92.9876H81.963V91.6096H81.3388L80.4195 92.9876H80.0505L81.0775 91.4404L80.1304 89.9824H80.4717L81.3326 91.3297H81.963V89.9824H82.2735V91.3297H82.8977L83.7617 89.9824H84.1061L83.1529 91.4404L84.183 92.9876H83.814L82.8977 91.6096Z" fill="#271A1A"/>
<path d="M84.9056 89.9824H85.2192V92.4739L87.1409 89.9824H87.4268V92.9876H87.1163V90.5022L85.1915 92.9876H84.9056V89.9824Z" fill="#271A1A"/>
<path d="M90.9628 89.9824V92.9876H90.6492V90.2562H89.201L89.1672 91.262C89.1518 91.6772 89.1211 92.0094 89.0657 92.2647C89.0134 92.52 88.9304 92.7077 88.8228 92.8307C88.7152 92.9568 88.5676 93.0184 88.3892 93.0184C88.3124 93.0184 88.2324 93.0091 88.1494 92.9876L88.1771 92.7046C88.2263 92.7169 88.2724 92.7231 88.3185 92.7231C88.4446 92.7231 88.5461 92.6738 88.626 92.5754C88.7059 92.477 88.7644 92.3201 88.8043 92.1109C88.8443 91.9018 88.872 91.6219 88.8873 91.2743L88.9304 89.9855H90.969L90.9628 89.9824Z" fill="#271A1A"/>
<path d="M92.7 92.8122C92.4571 92.6769 92.2696 92.4954 92.1343 92.2647C91.9959 92.034 91.9283 91.7726 91.9283 91.4835C91.9283 91.1943 91.9959 90.9329 92.1343 90.7022C92.2727 90.4715 92.4602 90.2869 92.7 90.1547C92.943 90.0224 93.2105 89.9547 93.5087 89.9547C93.807 89.9547 94.0714 90.0224 94.3112 90.1547C94.5511 90.2869 94.7386 90.4684 94.8739 90.7022C95.0123 90.936 95.0799 91.1974 95.0799 91.4865C95.0799 91.7757 95.0092 92.0371 94.8739 92.2709C94.7356 92.5047 94.548 92.6862 94.3112 92.8184C94.0714 92.9507 93.8039 93.0184 93.5087 93.0184C93.2135 93.0184 92.943 92.9507 92.7 92.8184M94.1513 92.5723C94.3451 92.4647 94.4926 92.314 94.6003 92.1263C94.7079 91.9356 94.7632 91.7234 94.7632 91.4896C94.7632 91.2559 94.7079 91.0436 94.6003 90.8529C94.4926 90.6622 94.3389 90.5145 94.1513 90.4069C93.9576 90.2992 93.7455 90.2469 93.5087 90.2469C93.272 90.2469 93.0567 90.2992 92.863 90.4069C92.6693 90.5145 92.5186 90.6653 92.408 90.8529C92.2973 91.0436 92.245 91.2559 92.245 91.4896C92.245 91.7234 92.3003 91.9356 92.408 92.1263C92.5186 92.3171 92.6724 92.4647 92.863 92.5723C93.0567 92.68 93.272 92.7323 93.5087 92.7323C93.7455 92.7323 93.9607 92.68 94.1513 92.5723Z" fill="#271A1A"/>
<path d="M96.0577 89.9824H96.3713V92.4739L98.293 89.9824H98.579V92.9876H98.2654V90.5022L96.3437 92.9876H96.0577V89.9824ZM96.8018 89.6164C96.6757 89.521 96.6142 89.3826 96.6112 89.2103H96.8479C96.8479 89.3241 96.8941 89.4164 96.9771 89.481C97.0601 89.5487 97.1738 89.5795 97.3091 89.5795C97.4444 89.5795 97.5582 89.5487 97.6412 89.481C97.7273 89.4164 97.7703 89.3272 97.7734 89.2103H98.0102C98.0102 89.3857 97.9425 89.521 97.8165 89.6164C97.6904 89.7117 97.5213 89.764 97.3122 89.764C97.1031 89.764 96.9279 89.7148 96.8049 89.6164" fill="#271A1A"/>
<path d="M102.146 91.6096H101.457V92.9876H101.146V89.9824H101.457V91.3297H102.146L103.16 89.9824H103.505L102.386 91.4435L103.566 92.9876H103.203L102.146 91.6096Z" fill="#271A1A"/>
<path d="M104.778 92.8122C104.535 92.6769 104.347 92.4954 104.212 92.2647C104.074 92.034 104.006 91.7726 104.006 91.4835C104.006 91.1943 104.074 90.9329 104.212 90.7022C104.35 90.4715 104.538 90.2869 104.778 90.1547C105.021 90.0224 105.288 89.9547 105.586 89.9547C105.885 89.9547 106.149 90.0224 106.389 90.1547C106.629 90.2869 106.816 90.4684 106.952 90.7022C107.09 90.936 107.158 91.1974 107.158 91.4865C107.158 91.7757 107.087 92.0371 106.952 92.2709C106.813 92.5047 106.626 92.6862 106.389 92.8184C106.149 92.9507 105.882 93.0184 105.586 93.0184C105.291 93.0184 105.021 92.9507 104.778 92.8184M106.229 92.5723C106.423 92.4647 106.57 92.314 106.678 92.1263C106.786 91.9356 106.841 91.7234 106.841 91.4896C106.841 91.2559 106.786 91.0436 106.678 90.8529C106.57 90.6622 106.417 90.5145 106.229 90.4069C106.035 90.2992 105.823 90.2469 105.586 90.2469C105.35 90.2469 105.134 90.2992 104.941 90.4069C104.747 90.5145 104.596 90.6653 104.486 90.8529C104.375 91.0436 104.323 91.2559 104.323 91.4896C104.323 91.7234 104.378 91.9356 104.486 92.1263C104.596 92.3171 104.75 92.4647 104.941 92.5723C105.134 92.68 105.35 92.7323 105.586 92.7323C105.823 92.7323 106.038 92.68 106.229 92.5723Z" fill="#271A1A"/>
<path d="M111.253 89.9824V92.9876H110.949V90.5853L109.768 92.6062H109.617L108.44 90.5976V92.9876H108.132V89.9824H108.397L109.7 92.2125L110.992 89.9824H111.253Z" fill="#271A1A"/>
<path d="M115.011 89.9824V92.9876H114.697V90.2592H112.794V92.9876H112.483V89.9824H115.011Z" fill="#271A1A"/>
<path d="M118.543 89.9824V92.9876H118.23V90.2562H116.782L116.748 91.262C116.732 91.6772 116.702 92.0094 116.646 92.2647C116.594 92.52 116.511 92.7077 116.403 92.8307C116.296 92.9568 116.148 93.0184 115.97 93.0184C115.893 93.0184 115.813 93.0091 115.73 92.9876L115.758 92.7046C115.807 92.7169 115.853 92.7231 115.899 92.7231C116.025 92.7231 116.127 92.6738 116.207 92.5754C116.287 92.477 116.345 92.3201 116.385 92.1109C116.425 91.9018 116.453 91.6219 116.468 91.2743L116.511 89.9855H118.55L118.543 89.9824Z" fill="#271A1A"/>
<path d="M121.898 92.7139V92.9876H119.77V89.9824H121.833V90.2592H120.09V91.3297H121.646V91.5973H120.09V92.7139H121.898Z" fill="#271A1A"/>
<path d="M123.81 91.6096H123.125V92.9876H122.814V89.9824H123.125V91.3297H123.81L124.828 89.9824H125.17L124.056 91.4435L125.237 92.9876H124.871L123.81 91.6096Z" fill="#271A1A"/>
<path d="M126.446 92.8153C126.206 92.6831 126.018 92.5016 125.883 92.2678C125.744 92.0341 125.677 91.7726 125.677 91.4835C125.677 91.1943 125.744 90.9329 125.883 90.6991C126.018 90.4653 126.209 90.2838 126.446 90.1516C126.685 90.0193 126.953 89.9517 127.251 89.9517C127.473 89.9517 127.682 89.9885 127.869 90.0624C128.06 90.1362 128.217 90.2469 128.349 90.3884L128.146 90.5914C127.912 90.3546 127.614 90.2346 127.257 90.2346C127.021 90.2346 126.805 90.29 126.609 90.3977C126.412 90.5053 126.261 90.656 126.153 90.8437C126.043 91.0344 125.987 91.2435 125.987 91.4773C125.987 91.7111 126.043 91.9233 126.153 92.1109C126.264 92.3017 126.418 92.4462 126.609 92.557C126.805 92.6646 127.017 92.72 127.257 92.72C127.617 92.72 127.915 92.6 128.146 92.3601L128.349 92.5631C128.217 92.7077 128.057 92.8154 127.866 92.8892C127.675 92.9661 127.469 93.003 127.245 93.003C126.947 93.003 126.679 92.9384 126.442 92.803L126.446 92.8153Z" fill="#271A1A"/>
<path d="M78.3563 89.8009H78.0734V93.8181H78.3563V89.8009Z" fill="#271A1A"/>
<path d="M30.0549 90.2562H29.0002V92.9845H28.6835V90.2562H27.6289V89.9793H30.0549V90.2562Z" fill="#271A1A"/>
<path d="M31.8167 91.9449V92.9814H31.5031V91.9449L30.3009 89.9793H30.6391L31.6691 91.6649L32.6992 89.9793H33.019L31.8167 91.9449ZM30.6883 91.8034H32.6162V92.0433H30.6883V91.8034Z" fill="#271A1A"/>
<path d="M35.7094 90.2562C35.9246 90.4407 36.0353 90.693 36.0353 91.0098C36.0353 91.3266 35.9277 91.5819 35.7094 91.7634C35.4941 91.9449 35.1928 92.034 34.8085 92.034H34.0029V92.9814H33.6831V89.9763H34.8085C35.1928 89.9763 35.4911 90.0655 35.7094 90.25M35.4818 91.5573C35.6387 91.4281 35.7186 91.2435 35.7186 91.0036C35.7186 90.7637 35.6387 90.573 35.4818 90.4407C35.325 90.3115 35.0975 90.2439 34.7992 90.2439H33.9998V91.748H34.7992C35.0975 91.748 35.325 91.6834 35.4818 91.5511" fill="#271A1A"/>
<path d="M37.3544 90.2562V91.4681H38.6519V91.7111H37.3605V92.9845H37.0469V91.7111H36.5857V91.4681H37.0469V89.9793H38.9563V90.2562H37.3544Z" fill="#271A1A"/>
<path d="M41.8374 91.2928C42.0249 91.4527 42.1172 91.6865 42.1172 91.9971C42.1172 92.3078 42.0188 92.5662 41.8189 92.7354C41.6191 92.9015 41.3331 92.9876 40.958 92.9876H39.765V89.9824H40.0786V91.0559H41.0226C41.3762 91.0559 41.6467 91.139 41.8343 91.2958M41.5791 92.5508C41.7236 92.4278 41.7943 92.2463 41.7943 92.0064C41.7943 91.545 41.5115 91.3174 40.9426 91.3174H40.0725V92.7384H40.9426C41.2194 92.7384 41.4315 92.6769 41.576 92.5539M42.6307 89.9855H42.9443V92.9907H42.6307V89.9855Z" fill="#271A1A"/>
<path d="M46.6893 89.9793V92.9845H46.3757V91.6003H44.497V92.9845H44.1803V89.9793H44.497V91.3204H46.3757V89.9793H46.6893Z" fill="#271A1A"/>
<path d="M50.3022 91.9449V92.9845H49.9886V91.9449L48.7894 89.9793H49.1276L50.1546 91.668L51.1877 89.9793H51.5044L50.3022 91.9449Z" fill="#271A1A"/>
<path d="M52.2055 89.9793H52.5191V92.4708L54.4408 89.9793H54.7268V92.9845H54.4131V90.4991L52.4914 92.9845H52.2055V89.9793ZM52.9496 89.6133C52.8235 89.5179 52.762 89.3795 52.7589 89.2073H52.9957C52.9957 89.3211 53.0418 89.4134 53.1248 89.4779C53.2078 89.5456 53.3185 89.5764 53.4569 89.5764C53.5953 89.5764 53.7059 89.5456 53.789 89.4779C53.8751 89.4134 53.9181 89.3242 53.9212 89.2073H54.1579C54.1579 89.3826 54.0903 89.5179 53.9642 89.6133C53.8382 89.7086 53.669 89.7609 53.46 89.7609C53.2509 89.7609 53.0756 89.7117 52.9526 89.6133" fill="#271A1A"/>
<path d="M58.2904 91.6065H57.6017V92.9845H57.2942V89.9793H57.6017V91.3297H58.2904L59.3082 89.9793H59.6494L58.5333 91.4404L59.714 92.9845H59.3481L58.2904 91.6065Z" fill="#271A1A"/>
<path d="M62.5428 92.7108V92.9845H60.4181V89.9793H62.4782V90.2562H60.7318V91.3266H62.2876V91.5942H60.7318V92.7108H62.5428Z" fill="#271A1A"/>
<path d="M67.1426 89.9793V92.9845H63.4591V89.9793H63.7727V92.7108H65.1471V89.9793H65.4608V92.7108H66.8321V89.9793H67.1426Z" fill="#271A1A"/>
<path d="M70.4941 92.7108V92.9845H68.3695V89.9793H70.4296V90.2562H68.6862V91.3266H70.242V91.5942H68.6862V92.7108H70.4941Z" fill="#271A1A"/>
<path d="M73.9256 89.9793V92.9845H73.6089V91.6003H71.7302V92.9845H71.4135V89.9793H71.7302V91.3204H73.6089V89.9793H73.9256Z" fill="#271A1A"/>
<path d="M75.463 89.9793H75.1493V92.9845H75.463V89.9793Z" fill="#271A1A"/>
<path d="M5.99451 85.0583V65.0443H0.0458984V64.9053L0.699134 63.5154H14.7228V63.6544L14.0696 65.0443H8.77423V83.8074L6.13349 85.0583H5.99451Z" fill="#271A1A"/>
<path d="M15.4873 85.0583V70.1867C15.4873 68.1853 16.1127 66.5407 17.3636 65.2527C18.6793 63.9092 20.3935 63.2374 22.5061 63.2374C24.5816 63.2374 26.2958 63.9092 27.6486 65.2527C28.8994 66.4943 29.5249 68.139 29.5249 70.1867V83.8074L26.8841 85.0583H26.7451V74.7733H18.267V83.8074L15.6262 85.0583H15.4873ZM18.267 73.2444H26.7451V69.2138C26.7451 67.9722 26.4116 66.9669 25.7444 66.1978C24.9105 65.2435 23.8311 64.7663 22.5061 64.7663C21.1718 64.7663 20.0923 65.2435 19.2677 66.1978C18.6006 66.9762 18.267 67.9815 18.267 69.2138V73.2444Z" fill="#271A1A"/>
<path d="M35.0843 85.0583V70.1867C35.0843 68.1853 35.7098 66.5407 36.9606 65.2527C38.2764 63.9092 39.9905 63.2374 42.1031 63.2374C44.0119 63.2374 45.638 63.9092 46.9815 65.2527C47.3151 65.5863 47.5653 65.9106 47.7321 66.2256C47.9452 65.9013 48.2046 65.5909 48.5104 65.2944C49.9095 63.9231 51.5264 63.2374 53.361 63.2374C55.4365 63.2374 57.1507 63.9092 58.5035 65.2527C59.7544 66.4943 60.3798 68.139 60.3798 70.1867V83.8074L57.7391 85.0583H57.6001V69.2138C57.6001 67.9722 57.2665 66.9669 56.5994 66.1978C55.7747 65.2435 54.6953 64.7663 53.361 64.7663C52.0267 64.7663 50.9473 65.2435 50.1226 66.1978C49.4555 66.9669 49.1219 67.9722 49.1219 69.2138V83.8074L46.4812 85.0583H46.3422V69.2138C46.3422 67.9722 46.0086 66.9669 45.3415 66.1978C44.5168 65.2435 43.4374 64.7663 42.1031 64.7663C40.7688 64.7663 39.6894 65.2435 38.8647 66.1978C38.1976 66.9669 37.864 67.9722 37.864 69.2138V83.8074L35.2233 85.0583H35.0843Z" fill="#271A1A"/>
<path d="M65.9392 85.0583V70.1867C65.9392 68.1853 66.5647 66.5407 67.8156 65.2527C69.1313 63.9092 70.8455 63.2374 72.958 63.2374C75.0336 63.2374 76.7477 63.9092 78.1005 65.2527C79.3514 66.4943 79.9769 68.139 79.9769 70.1867V83.8074L77.3361 85.0583H77.1971V74.7733H68.719V83.8074L66.0782 85.0583H65.9392ZM68.719 73.2444H77.1971V69.2138C77.1971 67.9722 76.8635 66.9669 76.1964 66.1978C75.3625 65.2435 74.2831 64.7663 72.958 64.7663C71.6238 64.7663 70.5443 65.2435 69.7197 66.1978C69.0525 66.9762 68.719 67.9815 68.719 69.2138V73.2444Z" fill="#271A1A"/>
<path d="M84.9803 78.109L87.6211 76.8581H87.7601V78.9707C87.7601 80.1011 88.0936 81.0508 88.7608 81.8199C89.5854 82.7742 90.6649 83.2514 91.9992 83.2514C93.3242 83.2514 94.4036 82.7742 95.2375 81.8199C95.8954 81.0694 96.2243 79.7861 96.2243 77.97C96.2243 76.543 95.9556 75.5146 95.4182 74.8845C94.6769 74.0135 93.5373 73.578 91.9992 73.578C90.2016 73.578 88.7422 73.0777 87.6211 72.077C86.6945 71.243 86.2312 70.0663 86.2312 68.5467C86.2312 66.8325 86.8057 65.5075 87.9547 64.5717C89.048 63.6822 90.3962 63.2374 91.9992 63.2374C93.6021 63.2374 94.9503 63.6822 96.0436 64.5717C97.1926 65.5075 97.7671 66.7909 97.7671 68.4216L95.1263 69.6725H94.9874V67.8935C94.9874 66.8372 94.6862 66.0496 94.0839 65.5307C93.5002 65.0211 92.8053 64.7663 91.9992 64.7663C91.1004 64.7663 90.3776 65.0489 89.831 65.6141C89.2843 66.1793 89.0109 67.1615 89.0109 68.5606C89.0109 69.8022 89.2194 70.6547 89.6364 71.118C90.1923 71.7388 90.9799 72.0492 91.9992 72.0492C94.3341 72.0492 96.0714 72.5727 97.2111 73.6197C98.4064 74.7223 99.0041 76.1632 99.0041 77.9422C99.0041 79.8324 98.3833 81.44 97.1416 82.765C95.8722 84.1085 94.1581 84.7803 91.9992 84.7803C89.8402 84.7803 88.1261 84.1085 86.8567 82.765C85.6058 81.44 84.9803 79.888 84.9803 78.109Z" fill="#271A1A"/>
<path d="M104.021 85.0583V64.2103L106.662 62.9595H106.801V73.2444H115.001V64.2103L117.642 62.9595H117.781V83.8074L115.14 85.0583H115.001V74.7733H106.801V83.8074L104.16 85.0583H104.021Z" fill="#271A1A"/>
<path d="M123.341 85.0583V70.1867C123.341 68.1853 123.966 66.5407 125.217 65.2527C126.533 63.9092 128.247 63.2374 130.359 63.2374C132.435 63.2374 134.149 63.9092 135.502 65.2527C136.753 66.4943 137.378 68.139 137.378 70.1867V83.8074L134.737 85.0583H134.598V74.7733H126.12V83.8074L123.48 85.0583H123.341ZM126.12 73.2444H134.598V69.2138C134.598 67.9722 134.265 66.9669 133.598 66.1978C132.764 65.2435 131.684 64.7663 130.359 64.7663C129.025 64.7663 127.946 65.2435 127.121 66.1978C126.454 66.9762 126.12 67.9815 126.12 69.2138V73.2444Z" fill="#271A1A"/>
<path d="M141.251 85.0942V84.9508L141.925 83.5161L149.629 76.1419C151.839 73.9038 152.944 71.8188 152.944 69.8867C152.944 68.2034 152.623 66.9744 151.982 66.1996C151.169 65.2145 150.055 64.7219 148.64 64.7219C147.272 64.7219 146.158 65.2145 145.297 66.1996C144.637 66.9648 144.307 68.0838 144.307 69.5568C144.307 70.5897 144.479 71.3979 144.823 71.9814L142.413 73.1434H142.27C141.686 72.1105 141.394 70.9771 141.394 69.7433C141.394 68.0982 142.04 66.5918 143.331 65.2241C144.642 63.8372 146.411 63.1438 148.64 63.1438C150.868 63.1438 152.637 63.8372 153.948 65.2241C155.229 66.5822 155.87 68.2464 155.87 70.2167C155.861 72.3687 154.569 74.6307 151.997 77.0027L144.35 83.5161H155.928V83.6596L155.253 85.0942H141.251Z" fill="#271A1A"/>
</svg>
